0
SECTION
2
HEADER
9
$ACADVER
1
AC1015
9
$ACADMAINTVER
70
6
9
$DWGCODEPAGE
3
ANSI_1252
9
$INSBASE
10
0.0
20
0.0
30
0.0
9
$EXTMIN
10
-50
20
-99.991375
30
0
9
$EXTMAX
10
270
20
29.991375
30
0
9
$LIMMIN
10
0.0
20
0.0
9
$LIMMAX
10
420.0
20
297.0
9
$ORTHOMODE
70
0
9
$REGENMODE
70
1
9
$FILLMODE
70
1
9
$QTEXTMODE
70
0
9
$MIRRTEXT
70
1
9
$LTSCALE
40
1.0
9
$ATTMODE
70
1
9
$TEXTSIZE
40
2.5
9
$TRACEWID
40
1.0
9
$TEXTSTYLE
7
Standard
9
$CLAYER
8
0
9
$CELTYPE
6
ByLayer
9
$CECOLOR
62
256
9
$CELTSCALE
40
1.0
9
$DISPSILH
70
0
9
$DIMSCALE
40
1.0
9
$DIMASZ
40
2.5
9
$DIMEXO
40
0.625
9
$DIMDLI
40
3.75
9
$DIMRND
40
0.0
9
$DIMDLE
40
0.0
9
$DIMEXE
40
1.25
9
$DIMTP
40
0.0
9
$DIMTM
40
0.0
9
$DIMTXT
40
2.5
9
$DIMCEN
40
2.5
9
$DIMTSZ
40
0.0
9
$DIMTOL
70
0
9
$DIMLIM
70
0
9
$DIMTIH
70
0
9
$DIMTOH
70
0
9
$DIMSE1
70
0
9
$DIMSE2
70
0
9
$DIMTAD
70
1
9
$DIMZIN
70
8
9
$DIMBLK
1

9
$DIMASO
70
1
9
$DIMSHO
70
1
9
$DIMPOST
1

9
$DIMAPOST
1

9
$DIMALT
70
0
9
$DIMALTD
70
3
9
$DIMALTF
40
0.03937007874
9
$DIMLFAC
40
1.0
9
$DIMTOFL
70
1
9
$DIMTVP
40
0.0
9
$DIMTIX
70
0
9
$DIMSOXD
70
0
9
$DIMSAH
70
0
9
$DIMBLK1
1

9
$DIMBLK2
1

9
$DIMSTYLE
2
ISO-25
9
$DIMCLRD
70
0
9
$DIMCLRE
70
0
9
$DIMCLRT
70
0
9
$DIMTFAC
40
1.0
9
$DIMGAP
40
0.625
9
$DIMJUST
70
0
9
$DIMSD1
70
0
9
$DIMSD2
70
0
9
$DIMTOLJ
70
0
9
$DIMTZIN
70
8
9
$DIMALTZ
70
0
9
$DIMALTTZ
70
0
9
$DIMUPT
70
0
9
$DIMDEC
70
2
9
$DIMTDEC
70
2
9
$DIMALTU
70
2
9
$DIMALTTD
70
3
9
$DIMTXSTY
7
Standard
9
$DIMAUNIT
70
0
9
$DIMADEC
70
0
9
$DIMALTRND
40
0.0
9
$DIMAZIN
70
0
9
$DIMDSEP
70
44
9
$DIMATFIT
70
3
9
$DIMFRAC
70
0
9
$DIMLDRBLK
1

9
$DIMLUNIT
70
2
9
$DIMLWD
70
-2
9
$DIMLWE
70
-2
9
$DIMTMOVE
70
0
9
$LUNITS
70
2
9
$LUPREC
70
6
9
$SKETCHINC
40
1.0
9
$FILLETRAD
40
10.0
9
$AUNITS
70
0
9
$AUPREC
70
2
9
$MENU
1
.
9
$ELEVATION
40
0.0
9
$PELEVATION
40
0.0
9
$THICKNESS
40
0.0
9
$LIMCHECK
70
0
9
$CHAMFERA
40
0.0
9
$CHAMFERB
40
0.0
9
$CHAMFERC
40
0.0
9
$CHAMFERD
40
0.0
9
$SKPOLY
70
0
9
$TDCREATE
40
2451545.0
9
$TDUCREATE
40
2451545.0
9
$TDUPDATE
40
2451545.0
9
$TDUUPDATE
40
2451545.0
9
$TDINDWG
40
0.0
9
$TDUSRTIMER
40
0.0
9
$USRTIMER
70
1
9
$ANGBASE
50
0.0
9
$ANGDIR
70
0
9
$PDMODE
70
0
9
$PDSIZE
40
0.0
9
$PLINEWID
40
0.0
9
$SPLFRAME
70
0
9
$SPLINETYPE
70
6
9
$SPLINESEGS
70
8
9
$HANDSEED
5
13A2
9
$SURFTAB1
70
6
9
$SURFTAB2
70
6
9
$SURFTYPE
70
6
9
$SURFU
70
6
9
$SURFV
70
6
9
$UCSBASE
2

9
$UCSNAME
2

9
$UCSORG
10
0.0
20
0.0
30
0.0
9
$UCSXDIR
10
1.0
20
0.0
30
0.0
9
$UCSYDIR
10
0.0
20
1.0
30
0.0
9
$UCSORTHOREF
2

9
$UCSORTHOVIEW
70
0
9
$UCSORGTOP
10
0.0
20
0.0
30
0.0
9
$UCSORGBOTTOM
10
0.0
20
0.0
30
0.0
9
$UCSORGLEFT
10
0.0
20
0.0
30
0.0
9
$UCSORGRIGHT
10
0.0
20
0.0
30
0.0
9
$UCSORGFRONT
10
0.0
20
0.0
30
0.0
9
$UCSORGBACK
10
0.0
20
0.0
30
0.0
9
$PUCSBASE
2

9
$PUCSNAME
2

9
$PUCSORG
10
0.0
20
0.0
30
0.0
9
$PUCSXDIR
10
1.0
20
0.0
30
0.0
9
$PUCSYDIR
10
0.0
20
1.0
30
0.0
9
$PUCSORTHOREF
2

9
$PUCSORTHOVIEW
70
0
9
$PUCSORGTOP
10
0.0
20
0.0
30
0.0
9
$PUCSORGBOTTOM
10
0.0
20
0.0
30
0.0
9
$PUCSORGLEFT
10
0.0
20
0.0
30
0.0
9
$PUCSORGRIGHT
10
0.0
20
0.0
30
0.0
9
$PUCSORGFRONT
10
0.0
20
0.0
30
0.0
9
$PUCSORGBACK
10
0.0
20
0.0
30
0.0
9
$USERI1
70
0
9
$USERI2
70
0
9
$USERI3
70
0
9
$USERI4
70
0
9
$USERI5
70
0
9
$USERR1
40
0.0
9
$USERR2
40
0.0
9
$USERR3
40
0.0
9
$USERR4
40
0.0
9
$USERR5
40
0.0
9
$WORLDVIEW
70
1
9
$SHADEDGE
70
3
9
$SHADEDIF
70
70
9
$TILEMODE
70
1
9
$MAXACTVP
70
64
9
$PINSBASE
10
0.0
20
0.0
30
0.0
9
$PLIMCHECK
70
0
9
$PEXTMIN
10
1e+20
20
1e+20
30
1e+20
9
$PEXTMAX
10
-1e+20
20
-1e+20
30
-1e+20
9
$PLIMMIN
10
0.0
20
0.0
9
$PLIMMAX
10
420.0
20
297.0
9
$UNITMODE
70
0
9
$VISRETAIN
70
1
9
$PLINEGEN
70
0
9
$PSLTSCALE
70
1
9
$TREEDEPTH
70
3020
9
$CMLSTYLE
2
Standard
9
$CMLJUST
70
0
9
$CMLSCALE
40
20.0
9
$PROXYGRAPHICS
70
1
9
$MEASUREMENT
70
1
9
$CELWEIGHT
370
-1
9
$ENDCAPS
280
0
9
$JOINSTYLE
280
0
9
$LWDISPLAY
290
0
9
$INSUNITS
70
4
9
$HYPERLINKBASE
1

9
$STYLESHEET
1

9
$XEDIT
290
1
9
$CEPSNTYPE
380
0
9
$PSTYLEMODE
290
1
9
$FINGERPRINTGUID
2
{00000000-0000-0000-0000-000000000000}
9
$VERSIONGUID
2
{00000000-0000-0000-0000-000000000000}
9
$EXTNAMES
290
1
9
$PSVPSCALE
40
0.0
9
$OLESTARTUP
290
0
0
ENDSEC
0
SECTION
2
CLASSES
0
CLASS
1
ACDBDICTIONARYWDFLT
2
AcDbDictionaryWithDefault
3
ObjectDBX Classes
90
0
280
0
281
0
0
CLASS
1
SUN
2
AcDbSun
3
SCENEOE
90
1153
280
0
281
0
0
CLASS
1
VISUALSTYLE
2
AcDbVisualStyle
3
ObjectDBX Classes
90
4095
280
0
281
0
0
CLASS
1
MATERIAL
2
AcDbMaterial
3
ObjectDBX Classes
90
1153
280
0
281
0
0
CLASS
1
SCALE
2
AcDbScale
3
ObjectDBX Classes
90
1153
280
0
281
0
0
CLASS
1
TABLESTYLE
2
AcDbTableStyle
3
ObjectDBX Classes
90
4095
280
0
281
0
0
CLASS
1
MLEADERSTYLE
2
AcDbMLeaderStyle
3
ACDB_MLEADERSTYLE_CLASS
90
4095
280
0
281
0
0
CLASS
1
DICTIONARYVAR
2
AcDbDictionaryVar
3
ObjectDBX Classes
90
0
280
0
281
0
0
CLASS
1
CELLSTYLEMAP
2
AcDbCellStyleMap
3
ObjectDBX Classes
90
1152
280
0
281
0
0
CLASS
1
MENTALRAYRENDERSETTINGS
2
AcDbMentalRayRenderSettings
3
SCENEOE
90
1024
280
0
281
0
0
CLASS
1
ACDBDETAILVIEWSTYLE
2
AcDbDetailViewStyle
3
ObjectDBX Classes
90
1025
280
0
281
0
0
CLASS
1
ACDBSECTIONVIEWSTYLE
2
AcDbSectionViewStyle
3
ObjectDBX Classes
90
1025
280
0
281
0
0
CLASS
1
RASTERVARIABLES
2
AcDbRasterVariables
3
ISM
90
0
280
0
281
0
0
CLASS
1
ACDBPLACEHOLDER
2
AcDbPlaceHolder
3
ObjectDBX Classes
90
0
280
0
281
0
0
CLASS
1
LAYOUT
2
AcDbLayout
3
ObjectDBX Classes
90
0
280
0
281
0
0
ENDSEC
0
SECTION
2
TABLES
0
TABLE
2
VPORT
5
8
330
0
100
AcDbSymbolTable
70
1
0
VPORT
5
23
330
8
100
AcDbSymbolTableRecord
100
AcDbViewportTableRecord
2
*Active
70
0
10
0.0
20
0.0
11
1.0
21
1.0
12
0.0
22
0.0
13
0.0
23
0.0
14
0.5
24
0.5
15
0.5
25
0.5
16
0.0
26
0.0
36
1.0
17
0.0
27
0.0
37
0.0
40
1000.0
41
1.34
42
50.0
43
0.0
44
0.0
50
0.0
51
0.0
71
0
72
1000
73
1
74
3
75
0
76
0
77
0
78
0
281
0
65
0
146
0.0
0
ENDTAB
0
TABLE
2
LTYPE
5
2
330
0
100
AcDbSymbolTable
70
4
0
LTYPE
5
24
330
2
100
AcDbSymbolTableRecord
100
AcDbLinetypeTableRecord
2
ByBlock
70
0
3

72
65
73
0
40
0.0
0
LTYPE
5
25
330
2
100
AcDbSymbolTableRecord
100
AcDbLinetypeTableRecord
2
ByLayer
70
0
3

72
65
73
0
40
0.0
0
LTYPE
5
26
330
2
100
AcDbSymbolTableRecord
100
AcDbLinetypeTableRecord
2
Continuous
70
0
3

72
65
73
0
40
0.0
0
LTYPE
5
2F
330
2
100
AcDbSymbolTableRecord
100
AcDbLinetypeTableRecord
2
DASHED
70
0
3
Dashed line
72
65
73
2
40
12.0
49
8.0
74
0
49
-4.0
74
0
0
ENDTAB
0
TABLE
2
LAYER
5
1
330
0
100
AcDbSymbolTable
70
5
0
LAYER
5
27
330
1
100
AcDbSymbolTableRecord
100
AcDbLayerTableRecord
2
0
70
0
62
7
6
Continuous
370
-3
390
13
0
LAYER
5
28
330
1
100
AcDbSymbolTableRecord
100
AcDbLayerTableRecord
2
Defpoints
70
0
62
7
6
Continuous
290
0
370
-3
390
13
0
LAYER
5
30
330
1
100
AcDbSymbolTableRecord
100
AcDbLayerTableRecord
2
CUT
70
0
62
1
6
Continuous
370
-3
390
13
0
LAYER
5
31
330
1
100
AcDbSymbolTableRecord
100
AcDbLayerTableRecord
2
THIN_ENGRAVE
70
0
62
5
6
Continuous
370
-3
390
13
0
LAYER
5
32
330
1
100
AcDbSymbolTableRecord
100
AcDbLayerTableRecord
2
CONSTRUCTION
70
0
62
6
6
DASHED
370
-3
390
13
0
ENDTAB
0
TABLE
2
STYLE
5
5
330
0
100
AcDbSymbolTable
70
1
0
STYLE
5
29
330
5
100
AcDbSymbolTableRecord
100
AcDbTextStyleTableRecord
2
Standard
70
0
40
0.0
41
1.0
50
0.0
71
0
42
2.5
3
txt
4

0
ENDTAB
0
TABLE
2
VIEW
5
7
330
0
100
AcDbSymbolTable
70
0
0
ENDTAB
0
TABLE
2
UCS
5
6
330
0
100
AcDbSymbolTable
70
0
0
ENDTAB
0
TABLE
2
APPID
5
3
330
0
100
AcDbSymbolTable
70
3
0
APPID
5
2A
330
3
100
AcDbSymbolTableRecord
100
AcDbRegAppTableRecord
2
ACAD
70
0
0
APPID
5
33
330
3
100
AcDbSymbolTableRecord
100
AcDbRegAppTableRecord
2
HATCHBACKGROUNDCOLOR
70
0
0
APPID
5
34
330
3
100
AcDbSymbolTableRecord
100
AcDbRegAppTableRecord
2
EZDXF
70
0
0
ENDTAB
0
TABLE
2
DIMSTYLE
5
4
330
0
100
AcDbSymbolTable
70
1
100
AcDbDimStyleTable
0
DIMSTYLE
105
2B
330
4
100
AcDbSymbolTableRecord
100
AcDbDimStyleTableRecord
2
Standard
70
0
3

4

40
1.0
41
2.5
42
0.625
43
3.75
44
1.25
45
0.0
46
0.0
47
0.0
48
0.0
140
2.5
141
2.5
142
0.0
143
0.03937007874
144
1.0
145
0.0
146
1.0
147
0.625
148
0.0
71
0
72
0
73
0
74
0
75
0
76
0
77
1
78
8
79
3
170
0
171
3
172
1
173
0
174
0
175
0
176
0
177
0
178
0
179
2
271
2
272
2
273
2
274
3
275
0
276
0
277
2
278
44
279
0
280
0
281
0
282
0
283
0
284
8
285
0
286
0
288
0
289
3
371
-2
372
-2
0
ENDTAB
0
TABLE
2
BLOCK_RECORD
5
9
330
0
100
AcDbSymbolTable
70
2
0
BLOCK_RECORD
5
17
330
9
100
AcDbSymbolTableRecord
100
AcDbBlockTableRecord
2
*Model_Space
340
1A
0
BLOCK_RECORD
5
1B
330
9
100
AcDbSymbolTableRecord
100
AcDbBlockTableRecord
2
*Paper_Space
340
1E
0
ENDTAB
0
ENDSEC
0
SECTION
2
BLOCKS
0
BLOCK
5
18
330
17
100
AcDbEntity
8
0
100
AcDbBlockBegin
2
*Model_Space
70
0
10
0.0
20
0.0
30
0.0
3
*Model_Space
1

0
ENDBLK
5
19
330
17
100
AcDbEntity
8
0
100
AcDbBlockEnd
0
BLOCK
5
1C
330
1B
100
AcDbEntity
8
0
100
AcDbBlockBegin
2
*Paper_Space
70
0
10
0.0
20
0.0
30
0.0
3
*Paper_Space
1

0
ENDBLK
5
1D
330
1B
100
AcDbEntity
8
0
100
AcDbBlockEnd
0
ENDSEC
0
SECTION
2
ENTITIES
0
CIRCLE
5
1000
330
17
100
AcDbEntity
8
CUT
62
1
100
AcDbCircle
10
45
20
20
30
0
40
1.55
0
CIRCLE
5
1001
330
17
100
AcDbEntity
8
CUT
62
1
100
AcDbCircle
10
-45
20
-20
30
0
40
1.55
0
CIRCLE
5
1002
330
17
100
AcDbEntity
8
CUT
62
1
100
AcDbCircle
10
45
20
-20
30
0
40
1.55
0
CIRCLE
5
1003
330
17
100
AcDbEntity
8
CUT
62
1
100
AcDbCircle
10
45
20
0
30
0
40
1.55
0
CIRCLE
5
1004
330
17
100
AcDbEntity
8
CUT
62
1
100
AcDbCircle
10
-45
20
0
30
0
40
1.55
0
CIRCLE
5
1005
330
17
100
AcDbEntity
8
CUT
62
1
100
AcDbCircle
10
-45
20
20
30
0
40
1.55
0
CIRCLE
5
1006
330
17
100
AcDbEntity
8
CUT
62
1
100
AcDbCircle
10
4.5
20
0
30
0
40
1.5
0
CIRCLE
5
1007
330
17
100
AcDbEntity
8
CUT
62
1
100
AcDbCircle
10
24.5
20
0
30
0
40
1.5
0
CIRCLE
5
1008
330
17
100
AcDbEntity
8
CUT
62
1
100
AcDbCircle
10
14.5
20
0
30
0
40
1.5
0
CIRCLE
5
1009
330
17
100
AcDbEntity
8
CUT
62
1
100
AcDbCircle
10
-4.5
20
0
30
0
40
1.5
0
CIRCLE
5
100A
330
17
100
AcDbEntity
8
CUT
62
1
100
AcDbCircle
10
-14.5
20
0
30
0
40
1.5
0
CIRCLE
5
100B
330
17
100
AcDbEntity
8
CUT
62
1
100
AcDbCircle
10
-24.5
20
0
30
0
40
1.5
0
POLYLINE
5
100C
330
17
100
AcDbEntity
8
CUT
62
1
100
AcDb2dPolyline
66
1
10
0
20
0
30
0
70
1
0
VERTEX
5
100D
330
17
100
AcDbEntity
8
CUT
100
AcDbVertex
100
AcDb2dVertex
10
22.767755
20
-15.467002
30
0
70
0
0
VERTEX
5
100E
330
17
100
AcDbEntity
8
CUT
100
AcDbVertex
100
AcDb2dVertex
10
42.12225
20
-29.088833
30
0
70
0
0
VERTEX
5
100F
330
17
100
AcDbEntity
8
CUT
100
AcDbVertex
100
AcDb2dVertex
10
42.846488
20
-29.51247
30
0
70
0
0
VERTEX
5
1010
330
17
100
AcDbEntity
8
CUT
100
AcDbVertex
100
AcDb2dVertex
10
43.631368
20
-29.809038
30
0
70
0
0
VERTEX
5
1011
330
17
100
AcDbEntity
8
CUT
100
AcDbVertex
100
AcDb2dVertex
10
44.454788
20
-29.970185
30
0
70
0
0
VERTEX
5
1012
330
17
100
AcDbEntity
8
CUT
100
AcDbVertex
100
AcDb2dVertex
10
45.293561
20
-29.991375
30
0
70
0
0
VERTEX
5
1013
330
17
100
AcDbEntity
8
CUT
100
AcDbVertex
100
AcDb2dVertex
10
46.124067
20
-29.872009
30
0
70
0
0
VERTEX
5
1014
330
17
100
AcDbEntity
8
CUT
100
AcDbVertex
100
AcDb2dVertex
10
46.92292
20
-29.61545
30
0
70
0
0
VERTEX
5
1015
330
17
100
AcDbEntity
8
CUT
100
AcDbVertex
100
AcDb2dVertex
10
47.667624
20
-29.228922
30
0
70
0
0
VERTEX
5
1016
330
17
100
AcDbEntity
8
CUT
100
AcDbVertex
100
AcDb2dVertex
10
48.33721
20
-28.723309
30
0
70
0
0
VERTEX
5
1017
330
17
100
AcDbEntity
8
CUT
100
AcDbVertex
100
AcDb2dVertex
10
48.912821
20
-28.11285
30
0
70
0
0
VERTEX
5
1018
330
17
100
AcDbEntity
8
CUT
100
AcDbVertex
100
AcDb2dVertex
10
49.378249
20
-27.414734
30
0
70
0
0
VERTEX
5
1019
330
17
100
AcDbEntity
8
CUT
100
AcDbVertex
100
AcDb2dVertex
10
49.720387
20
-26.64862
30
0
70
0
0
VERTEX
5
101A
330
17
100
AcDbEntity
8
CUT
100
AcDbVertex
100
AcDb2dVertex
10
49.929601
20
-25.836082
30
0
70
0
0
VERTEX
5
101B
330
17
100
AcDbEntity
8
CUT
100
AcDbVertex
100
AcDb2dVertex
10
50
20
-25
30
0
70
0
0
VERTEX
5
101C
330
17
100
AcDbEntity
8
CUT
100
AcDbVertex
100
AcDb2dVertex
10
50
20
25
30
0
70
0
0
VERTEX
5
101D
330
17
100
AcDbEntity
8
CUT
100
AcDbVertex
100
AcDb2dVertex
10
49.929601
20
25.836082
30
0
70
0
0
VERTEX
5
101E
330
17
100
AcDbEntity
8
CUT
100
AcDbVertex
100
AcDb2dVertex
10
49.720387
20
26.64862
30
0
70
0
0
VERTEX
5
101F
330
17
100
AcDbEntity
8
CUT
100
AcDbVertex
100
AcDb2dVertex
10
49.378249
20
27.414734
30
0
70
0
0
VERTEX
5
1020
330
17
100
AcDbEntity
8
CUT
100
AcDbVertex
100
AcDb2dVertex
10
48.912821
20
28.11285
30
0
70
0
0
VERTEX
5
1021
330
17
100
AcDbEntity
8
CUT
100
AcDbVertex
100
AcDb2dVertex
10
48.33721
20
28.723309
30
0
70
0
0
VERTEX
5
1022
330
17
100
AcDbEntity
8
CUT
100
AcDbVertex
100
AcDb2dVertex
10
47.667624
20
29.228922
30
0
70
0
0
VERTEX
5
1023
330
17
100
AcDbEntity
8
CUT
100
AcDbVertex
100
AcDb2dVertex
10
46.92292
20
29.61545
30
0
70
0
0
VERTEX
5
1024
330
17
100
AcDbEntity
8
CUT
100
AcDbVertex
100
AcDb2dVertex
10
46.124067
20
29.872009
30
0
70
0
0
VERTEX
5
1025
330
17
100
AcDbEntity
8
CUT
100
AcDbVertex
100
AcDb2dVertex
10
45.293561
20
29.991375
30
0
70
0
0
VERTEX
5
1026
330
17
100
AcDbEntity
8
CUT
100
AcDbVertex
100
AcDb2dVertex
10
44.454788
20
29.970185
30
0
70
0
0
VERTEX
5
1027
330
17
100
AcDbEntity
8
CUT
100
AcDbVertex
100
AcDb2dVertex
10
43.631368
20
29.809038
30
0
70
0
0
VERTEX
5
1028
330
17
100
AcDbEntity
8
CUT
100
AcDbVertex
100
AcDb2dVertex
10
42.846488
20
29.51247
30
0
70
0
0
VERTEX
5
1029
330
17
100
AcDbEntity
8
CUT
100
AcDbVertex
100
AcDb2dVertex
10
42.12225
20
29.088833
30
0
70
0
0
VERTEX
5
102A
330
17
100
AcDbEntity
8
CUT
100
AcDbVertex
100
AcDb2dVertex
10
22.767755
20
15.467002
30
0
70
0
0
VERTEX
5
102B
330
17
100
AcDbEntity
8
CUT
100
AcDbVertex
100
AcDb2dVertex
10
20.838198
20
14.216707
30
0
70
0
0
VERTEX
5
102C
330
17
100
AcDbEntity
8
CUT
100
AcDbVertex
100
AcDb2dVertex
10
18.818554
20
13.117858
30
0
70
0
0
VERTEX
5
102D
330
17
100
AcDbEntity
8
CUT
100
AcDbVertex
100
AcDb2dVertex
10
16.720687
20
12.176909
30
0
70
0
0
VERTEX
5
102E
330
17
100
AcDbEntity
8
CUT
100
AcDbVertex
100
AcDb2dVertex
10
14.556919
20
11.399389
30
0
70
0
0
VERTEX
5
102F
330
17
100
AcDbEntity
8
CUT
100
AcDbVertex
100
AcDb2dVertex
10
12.33996
20
10.789862
30
0
70
0
0
VERTEX
5
1030
330
17
100
AcDbEntity
8
CUT
100
AcDbVertex
100
AcDb2dVertex
10
10.082831
20
10.351911
30
0
70
0
0
VERTEX
5
1031
330
17
100
AcDbEntity
8
CUT
100
AcDbVertex
100
AcDb2dVertex
10
7.798791
20
10.088107
30
0
70
0
0
VERTEX
5
1032
330
17
100
AcDbEntity
8
CUT
100
AcDbVertex
100
AcDb2dVertex
10
5.501256
20
10
30
0
70
0
0
VERTEX
5
1033
330
17
100
AcDbEntity
8
CUT
100
AcDbVertex
100
AcDb2dVertex
10
-5.501256
20
10
30
0
70
0
0
VERTEX
5
1034
330
17
100
AcDbEntity
8
CUT
100
AcDbVertex
100
AcDb2dVertex
10
-7.798791
20
10.088107
30
0
70
0
0
VERTEX
5
1035
330
17
100
AcDbEntity
8
CUT
100
AcDbVertex
100
AcDb2dVertex
10
-10.082831
20
10.351911
30
0
70
0
0
VERTEX
5
1036
330
17
100
AcDbEntity
8
CUT
100
AcDbVertex
100
AcDb2dVertex
10
-12.33996
20
10.789862
30
0
70
0
0
VERTEX
5
1037
330
17
100
AcDbEntity
8
CUT
100
AcDbVertex
100
AcDb2dVertex
10
-14.556919
20
11.399389
30
0
70
0
0
VERTEX
5
1038
330
17
100
AcDbEntity
8
CUT
100
AcDbVertex
100
AcDb2dVertex
10
-16.720687
20
12.176909
30
0
70
0
0
VERTEX
5
1039
330
17
100
AcDbEntity
8
CUT
100
AcDbVertex
100
AcDb2dVertex
10
-18.818554
20
13.117858
30
0
70
0
0
VERTEX
5
103A
330
17
100
AcDbEntity
8
CUT
100
AcDbVertex
100
AcDb2dVertex
10
-20.838198
20
14.216707
30
0
70
0
0
VERTEX
5
103B
330
17
100
AcDbEntity
8
CUT
100
AcDbVertex
100
AcDb2dVertex
10
-22.767755
20
15.467002
30
0
70
0
0
VERTEX
5
103C
330
17
100
AcDbEntity
8
CUT
100
AcDbVertex
100
AcDb2dVertex
10
-42.12225
20
29.088833
30
0
70
0
0
VERTEX
5
103D
330
17
100
AcDbEntity
8
CUT
100
AcDbVertex
100
AcDb2dVertex
10
-42.846488
20
29.51247
30
0
70
0
0
VERTEX
5
103E
330
17
100
AcDbEntity
8
CUT
100
AcDbVertex
100
AcDb2dVertex
10
-43.631368
20
29.809038
30
0
70
0
0
VERTEX
5
103F
330
17
100
AcDbEntity
8
CUT
100
AcDbVertex
100
AcDb2dVertex
10
-44.454788
20
29.970185
30
0
70
0
0
VERTEX
5
1040
330
17
100
AcDbEntity
8
CUT
100
AcDbVertex
100
AcDb2dVertex
10
-45.293561
20
29.991375
30
0
70
0
0
VERTEX
5
1041
330
17
100
AcDbEntity
8
CUT
100
AcDbVertex
100
AcDb2dVertex
10
-46.124067
20
29.872009
30
0
70
0
0
VERTEX
5
1042
330
17
100
AcDbEntity
8
CUT
100
AcDbVertex
100
AcDb2dVertex
10
-46.92292
20
29.61545
30
0
70
0
0
VERTEX
5
1043
330
17
100
AcDbEntity
8
CUT
100
AcDbVertex
100
AcDb2dVertex
10
-47.667624
20
29.228922
30
0
70
0
0
VERTEX
5
1044
330
17
100
AcDbEntity
8
CUT
100
AcDbVertex
100
AcDb2dVertex
10
-48.33721
20
28.723309
30
0
70
0
0
VERTEX
5
1045
330
17
100
AcDbEntity
8
CUT
100
AcDbVertex
100
AcDb2dVertex
10
-48.912821
20
28.11285
30
0
70
0
0
VERTEX
5
1046
330
17
100
AcDbEntity
8
CUT
100
AcDbVertex
100
AcDb2dVertex
10
-49.378249
20
27.414734
30
0
70
0
0
VERTEX
5
1047
330
17
100
AcDbEntity
8
CUT
100
AcDbVertex
100
AcDb2dVertex
10
-49.720387
20
26.64862
30
0
70
0
0
VERTEX
5
1048
330
17
100
AcDbEntity
8
CUT
100
AcDbVertex
100
AcDb2dVertex
10
-49.929601
20
25.836082
30
0
70
0
0
VERTEX
5
1049
330
17
100
AcDbEntity
8
CUT
100
AcDbVertex
100
AcDb2dVertex
10
-50
20
25
30
0
70
0
0
VERTEX
5
104A
330
17
100
AcDbEntity
8
CUT
100
AcDbVertex
100
AcDb2dVertex
10
-50
20
-25
30
0
70
0
0
VERTEX
5
104B
330
17
100
AcDbEntity
8
CUT
100
AcDbVertex
100
AcDb2dVertex
10
-49.929601
20
-25.836082
30
0
70
0
0
VERTEX
5
104C
330
17
100
AcDbEntity
8
CUT
100
AcDbVertex
100
AcDb2dVertex
10
-49.720387
20
-26.64862
30
0
70
0
0
VERTEX
5
104D
330
17
100
AcDbEntity
8
CUT
100
AcDbVertex
100
AcDb2dVertex
10
-49.378249
20
-27.414734
30
0
70
0
0
VERTEX
5
104E
330
17
100
AcDbEntity
8
CUT
100
AcDbVertex
100
AcDb2dVertex
10
-48.912821
20
-28.11285
30
0
70
0
0
VERTEX
5
104F
330
17
100
AcDbEntity
8
CUT
100
AcDbVertex
100
AcDb2dVertex
10
-48.33721
20
-28.723309
30
0
70
0
0
VERTEX
5
1050
330
17
100
AcDbEntity
8
CUT
100
AcDbVertex
100
AcDb2dVertex
10
-47.667624
20
-29.228922
30
0
70
0
0
VERTEX
5
1051
330
17
100
AcDbEntity
8
CUT
100
AcDbVertex
100
AcDb2dVertex
10
-46.92292
20
-29.61545
30
0
70
0
0
VERTEX
5
1052
330
17
100
AcDbEntity
8
CUT
100
AcDbVertex
100
AcDb2dVertex
10
-46.124067
20
-29.872009
30
0
70
0
0
VERTEX
5
1053
330
17
100
AcDbEntity
8
CUT
100
AcDbVertex
100
AcDb2dVertex
10
-45.293561
20
-29.991375
30
0
70
0
0
VERTEX
5
1054
330
17
100
AcDbEntity
8
CUT
100
AcDbVertex
100
AcDb2dVertex
10
-44.454788
20
-29.970185
30
0
70
0
0
VERTEX
5
1055
330
17
100
AcDbEntity
8
CUT
100
AcDbVertex
100
AcDb2dVertex
10
-43.631368
20
-29.809038
30
0
70
0
0
VERTEX
5
1056
330
17
100
AcDbEntity
8
CUT
100
AcDbVertex
100
AcDb2dVertex
10
-42.846488
20
-29.51247
30
0
70
0
0
VERTEX
5
1057
330
17
100
AcDbEntity
8
CUT
100
AcDbVertex
100
AcDb2dVertex
10
-42.12225
20
-29.088833
30
0
70
0
0
VERTEX
5
1058
330
17
100
AcDbEntity
8
CUT
100
AcDbVertex
100
AcDb2dVertex
10
-22.767755
20
-15.467002
30
0
70
0
0
VERTEX
5
1059
330
17
100
AcDbEntity
8
CUT
100
AcDbVertex
100
AcDb2dVertex
10
-20.838198
20
-14.216707
30
0
70
0
0
VERTEX
5
105A
330
17
100
AcDbEntity
8
CUT
100
AcDbVertex
100
AcDb2dVertex
10
-18.818554
20
-13.117858
30
0
70
0
0
VERTEX
5
105B
330
17
100
AcDbEntity
8
CUT
100
AcDbVertex
100
AcDb2dVertex
10
-16.720687
20
-12.176909
30
0
70
0
0
VERTEX
5
105C
330
17
100
AcDbEntity
8
CUT
100
AcDbVertex
100
AcDb2dVertex
10
-14.556919
20
-11.399389
30
0
70
0
0
VERTEX
5
105D
330
17
100
AcDbEntity
8
CUT
100
AcDbVertex
100
AcDb2dVertex
10
-12.33996
20
-10.789862
30
0
70
0
0
VERTEX
5
105E
330
17
100
AcDbEntity
8
CUT
100
AcDbVertex
100
AcDb2dVertex
10
-10.082831
20
-10.351911
30
0
70
0
0
VERTEX
5
105F
330
17
100
AcDbEntity
8
CUT
100
AcDbVertex
100
AcDb2dVertex
10
-7.798791
20
-10.088107
30
0
70
0
0
VERTEX
5
1060
330
17
100
AcDbEntity
8
CUT
100
AcDbVertex
100
AcDb2dVertex
10
-5.501256
20
-10
30
0
70
0
0
VERTEX
5
1061
330
17
100
AcDbEntity
8
CUT
100
AcDbVertex
100
AcDb2dVertex
10
5.501256
20
-10
30
0
70
0
0
VERTEX
5
1062
330
17
100
AcDbEntity
8
CUT
100
AcDbVertex
100
AcDb2dVertex
10
7.798791
20
-10.088107
30
0
70
0
0
VERTEX
5
1063
330
17
100
AcDbEntity
8
CUT
100
AcDbVertex
100
AcDb2dVertex
10
10.082831
20
-10.351911
30
0
70
0
0
VERTEX
5
1064
330
17
100
AcDbEntity
8
CUT
100
AcDbVertex
100
AcDb2dVertex
10
12.33996
20
-10.789862
30
0
70
0
0
VERTEX
5
1065
330
17
100
AcDbEntity
8
CUT
100
AcDbVertex
100
AcDb2dVertex
10
14.556919
20
-11.399389
30
0
70
0
0
VERTEX
5
1066
330
17
100
AcDbEntity
8
CUT
100
AcDbVertex
100
AcDb2dVertex
10
16.720687
20
-12.176909
30
0
70
0
0
VERTEX
5
1067
330
17
100
AcDbEntity
8
CUT
100
AcDbVertex
100
AcDb2dVertex
10
18.818554
20
-13.117858
30
0
70
0
0
VERTEX
5
1068
330
17
100
AcDbEntity
8
CUT
100
AcDbVertex
100
AcDb2dVertex
10
20.838198
20
-14.216707
30
0
70
0
0
SEQEND
5
1069
330
100C
100
AcDbEntity
8
CUT
0
POLYLINE
5
106A
330
17
100
AcDbEntity
8
CUT
62
1
100
AcDb2dPolyline
66
1
10
0
20
0
30
0
70
1
0
VERTEX
5
106B
330
17
100
AcDbEntity
8
CUT
100
AcDbVertex
100
AcDb2dVertex
10
-30
20
5.733501
30
0
70
0
0
VERTEX
5
106C
330
17
100
AcDbEntity
8
CUT
100
AcDbVertex
100
AcDb2dVertex
10
-30.075961
20
6.601742
30
0
70
0
0
VERTEX
5
106D
330
17
100
AcDbEntity
8
CUT
100
AcDbVertex
100
AcDb2dVertex
10
-30.301537
20
7.443602
30
0
70
0
0
VERTEX
5
106E
330
17
100
AcDbEntity
8
CUT
100
AcDbVertex
100
AcDb2dVertex
10
-30.669873
20
8.233501
30
0
70
0
0
VERTEX
5
106F
330
17
100
AcDbEntity
8
CUT
100
AcDbVertex
100
AcDb2dVertex
10
-31.169778
20
8.947439
30
0
70
0
0
VERTEX
5
1070
330
17
100
AcDbEntity
8
CUT
100
AcDbVertex
100
AcDb2dVertex
10
-31.786062
20
9.563723
30
0
70
0
0
VERTEX
5
1071
330
17
100
AcDbEntity
8
CUT
100
AcDbVertex
100
AcDb2dVertex
10
-32.5
20
10.063628
30
0
70
0
0
VERTEX
5
1072
330
17
100
AcDbEntity
8
CUT
100
AcDbVertex
100
AcDb2dVertex
10
-33.289899
20
10.431964
30
0
70
0
0
VERTEX
5
1073
330
17
100
AcDbEntity
8
CUT
100
AcDbVertex
100
AcDb2dVertex
10
-34.131759
20
10.65754
30
0
70
0
0
VERTEX
5
1074
330
17
100
AcDbEntity
8
CUT
100
AcDbVertex
100
AcDb2dVertex
10
-35
20
10.733501
30
0
70
0
0
VERTEX
5
1075
330
17
100
AcDbEntity
8
CUT
100
AcDbVertex
100
AcDb2dVertex
10
-35.868241
20
10.65754
30
0
70
0
0
VERTEX
5
1076
330
17
100
AcDbEntity
8
CUT
100
AcDbVertex
100
AcDb2dVertex
10
-36.710101
20
10.431964
30
0
70
0
0
VERTEX
5
1077
330
17
100
AcDbEntity
8
CUT
100
AcDbVertex
100
AcDb2dVertex
10
-37.5
20
10.063628
30
0
70
0
0
VERTEX
5
1078
330
17
100
AcDbEntity
8
CUT
100
AcDbVertex
100
AcDb2dVertex
10
-38.213938
20
9.563723
30
0
70
0
0
VERTEX
5
1079
330
17
100
AcDbEntity
8
CUT
100
AcDbVertex
100
AcDb2dVertex
10
-38.830222
20
8.947439
30
0
70
0
0
VERTEX
5
107A
330
17
100
AcDbEntity
8
CUT
100
AcDbVertex
100
AcDb2dVertex
10
-39.330127
20
8.233501
30
0
70
0
0
VERTEX
5
107B
330
17
100
AcDbEntity
8
CUT
100
AcDbVertex
100
AcDb2dVertex
10
-39.698463
20
7.443602
30
0
70
0
0
VERTEX
5
107C
330
17
100
AcDbEntity
8
CUT
100
AcDbVertex
100
AcDb2dVertex
10
-39.924039
20
6.601742
30
0
70
0
0
VERTEX
5
107D
330
17
100
AcDbEntity
8
CUT
100
AcDbVertex
100
AcDb2dVertex
10
-40
20
5.733501
30
0
70
0
0
VERTEX
5
107E
330
17
100
AcDbEntity
8
CUT
100
AcDbVertex
100
AcDb2dVertex
10
-40
20
-5.733501
30
0
70
0
0
VERTEX
5
107F
330
17
100
AcDbEntity
8
CUT
100
AcDbVertex
100
AcDb2dVertex
10
-39.924039
20
-6.601742
30
0
70
0
0
VERTEX
5
1080
330
17
100
AcDbEntity
8
CUT
100
AcDbVertex
100
AcDb2dVertex
10
-39.698463
20
-7.443602
30
0
70
0
0
VERTEX
5
1081
330
17
100
AcDbEntity
8
CUT
100
AcDbVertex
100
AcDb2dVertex
10
-39.330127
20
-8.233501
30
0
70
0
0
VERTEX
5
1082
330
17
100
AcDbEntity
8
CUT
100
AcDbVertex
100
AcDb2dVertex
10
-38.830222
20
-8.947439
30
0
70
0
0
VERTEX
5
1083
330
17
100
AcDbEntity
8
CUT
100
AcDbVertex
100
AcDb2dVertex
10
-38.213938
20
-9.563723
30
0
70
0
0
VERTEX
5
1084
330
17
100
AcDbEntity
8
CUT
100
AcDbVertex
100
AcDb2dVertex
10
-37.5
20
-10.063628
30
0
70
0
0
VERTEX
5
1085
330
17
100
AcDbEntity
8
CUT
100
AcDbVertex
100
AcDb2dVertex
10
-36.710101
20
-10.431964
30
0
70
0
0
VERTEX
5
1086
330
17
100
AcDbEntity
8
CUT
100
AcDbVertex
100
AcDb2dVertex
10
-35.868241
20
-10.65754
30
0
70
0
0
VERTEX
5
1087
330
17
100
AcDbEntity
8
CUT
100
AcDbVertex
100
AcDb2dVertex
10
-35
20
-10.733501
30
0
70
0
0
VERTEX
5
1088
330
17
100
AcDbEntity
8
CUT
100
AcDbVertex
100
AcDb2dVertex
10
-34.131759
20
-10.65754
30
0
70
0
0
VERTEX
5
1089
330
17
100
AcDbEntity
8
CUT
100
AcDbVertex
100
AcDb2dVertex
10
-33.289899
20
-10.431964
30
0
70
0
0
VERTEX
5
108A
330
17
100
AcDbEntity
8
CUT
100
AcDbVertex
100
AcDb2dVertex
10
-32.5
20
-10.063628
30
0
70
0
0
VERTEX
5
108B
330
17
100
AcDbEntity
8
CUT
100
AcDbVertex
100
AcDb2dVertex
10
-31.786062
20
-9.563723
30
0
70
0
0
VERTEX
5
108C
330
17
100
AcDbEntity
8
CUT
100
AcDbVertex
100
AcDb2dVertex
10
-31.169778
20
-8.947439
30
0
70
0
0
VERTEX
5
108D
330
17
100
AcDbEntity
8
CUT
100
AcDbVertex
100
AcDb2dVertex
10
-30.669873
20
-8.233501
30
0
70
0
0
VERTEX
5
108E
330
17
100
AcDbEntity
8
CUT
100
AcDbVertex
100
AcDb2dVertex
10
-30.301537
20
-7.443602
30
0
70
0
0
VERTEX
5
108F
330
17
100
AcDbEntity
8
CUT
100
AcDbVertex
100
AcDb2dVertex
10
-30.075961
20
-6.601742
30
0
70
0
0
VERTEX
5
1090
330
17
100
AcDbEntity
8
CUT
100
AcDbVertex
100
AcDb2dVertex
10
-30
20
-5.733501
30
0
70
0
0
SEQEND
5
1091
330
106A
100
AcDbEntity
8
CUT
0
POLYLINE
5
1092
330
17
100
AcDbEntity
8
CUT
62
1
100
AcDb2dPolyline
66
1
10
0
20
0
30
0
70
1
0
VERTEX
5
1093
330
17
100
AcDbEntity
8
CUT
100
AcDbVertex
100
AcDb2dVertex
10
30
20
5.733501
30
0
70
0
0
VERTEX
5
1094
330
17
100
AcDbEntity
8
CUT
100
AcDbVertex
100
AcDb2dVertex
10
30
20
-5.733501
30
0
70
0
0
VERTEX
5
1095
330
17
100
AcDbEntity
8
CUT
100
AcDbVertex
100
AcDb2dVertex
10
30.075961
20
-6.601742
30
0
70
0
0
VERTEX
5
1096
330
17
100
AcDbEntity
8
CUT
100
AcDbVertex
100
AcDb2dVertex
10
30.301537
20
-7.443602
30
0
70
0
0
VERTEX
5
1097
330
17
100
AcDbEntity
8
CUT
100
AcDbVertex
100
AcDb2dVertex
10
30.669873
20
-8.233501
30
0
70
0
0
VERTEX
5
1098
330
17
100
AcDbEntity
8
CUT
100
AcDbVertex
100
AcDb2dVertex
10
31.169778
20
-8.947439
30
0
70
0
0
VERTEX
5
1099
330
17
100
AcDbEntity
8
CUT
100
AcDbVertex
100
AcDb2dVertex
10
31.786062
20
-9.563723
30
0
70
0
0
VERTEX
5
109A
330
17
100
AcDbEntity
8
CUT
100
AcDbVertex
100
AcDb2dVertex
10
32.5
20
-10.063628
30
0
70
0
0
VERTEX
5
109B
330
17
100
AcDbEntity
8
CUT
100
AcDbVertex
100
AcDb2dVertex
10
33.289899
20
-10.431964
30
0
70
0
0
VERTEX
5
109C
330
17
100
AcDbEntity
8
CUT
100
AcDbVertex
100
AcDb2dVertex
10
34.131759
20
-10.65754
30
0
70
0
0
VERTEX
5
109D
330
17
100
AcDbEntity
8
CUT
100
AcDbVertex
100
AcDb2dVertex
10
35
20
-10.733501
30
0
70
0
0
VERTEX
5
109E
330
17
100
AcDbEntity
8
CUT
100
AcDbVertex
100
AcDb2dVertex
10
35.868241
20
-10.65754
30
0
70
0
0
VERTEX
5
109F
330
17
100
AcDbEntity
8
CUT
100
AcDbVertex
100
AcDb2dVertex
10
36.710101
20
-10.431964
30
0
70
0
0
VERTEX
5
10A0
330
17
100
AcDbEntity
8
CUT
100
AcDbVertex
100
AcDb2dVertex
10
37.5
20
-10.063628
30
0
70
0
0
VERTEX
5
10A1
330
17
100
AcDbEntity
8
CUT
100
AcDbVertex
100
AcDb2dVertex
10
38.213938
20
-9.563723
30
0
70
0
0
VERTEX
5
10A2
330
17
100
AcDbEntity
8
CUT
100
AcDbVertex
100
AcDb2dVertex
10
38.830222
20
-8.947439
30
0
70
0
0
VERTEX
5
10A3
330
17
100
AcDbEntity
8
CUT
100
AcDbVertex
100
AcDb2dVertex
10
39.330127
20
-8.233501
30
0
70
0
0
VERTEX
5
10A4
330
17
100
AcDbEntity
8
CUT
100
AcDbVertex
100
AcDb2dVertex
10
39.698463
20
-7.443602
30
0
70
0
0
VERTEX
5
10A5
330
17
100
AcDbEntity
8
CUT
100
AcDbVertex
100
AcDb2dVertex
10
39.924039
20
-6.601742
30
0
70
0
0
VERTEX
5
10A6
330
17
100
AcDbEntity
8
CUT
100
AcDbVertex
100
AcDb2dVertex
10
40
20
-5.733501
30
0
70
0
0
VERTEX
5
10A7
330
17
100
AcDbEntity
8
CUT
100
AcDbVertex
100
AcDb2dVertex
10
40
20
5.733501
30
0
70
0
0
VERTEX
5
10A8
330
17
100
AcDbEntity
8
CUT
100
AcDbVertex
100
AcDb2dVertex
10
39.924039
20
6.601742
30
0
70
0
0
VERTEX
5
10A9
330
17
100
AcDbEntity
8
CUT
100
AcDbVertex
100
AcDb2dVertex
10
39.698463
20
7.443602
30
0
70
0
0
VERTEX
5
10AA
330
17
100
AcDbEntity
8
CUT
100
AcDbVertex
100
AcDb2dVertex
10
39.330127
20
8.233501
30
0
70
0
0
VERTEX
5
10AB
330
17
100
AcDbEntity
8
CUT
100
AcDbVertex
100
AcDb2dVertex
10
38.830222
20
8.947439
30
0
70
0
0
VERTEX
5
10AC
330
17
100
AcDbEntity
8
CUT
100
AcDbVertex
100
AcDb2dVertex
10
38.213938
20
9.563723
30
0
70
0
0
VERTEX
5
10AD
330
17
100
AcDbEntity
8
CUT
100
AcDbVertex
100
AcDb2dVertex
10
37.5
20
10.063628
30
0
70
0
0
VERTEX
5
10AE
330
17
100
AcDbEntity
8
CUT
100
AcDbVertex
100
AcDb2dVertex
10
36.710101
20
10.431964
30
0
70
0
0
VERTEX
5
10AF
330
17
100
AcDbEntity
8
CUT
100
AcDbVertex
100
AcDb2dVertex
10
35.868241
20
10.65754
30
0
70
0
0
VERTEX
5
10B0
330
17
100
AcDbEntity
8
CUT
100
AcDbVertex
100
AcDb2dVertex
10
35
20
10.733501
30
0
70
0
0
VERTEX
5
10B1
330
17
100
AcDbEntity
8
CUT
100
AcDbVertex
100
AcDb2dVertex
10
34.131759
20
10.65754
30
0
70
0
0
VERTEX
5
10B2
330
17
100
AcDbEntity
8
CUT
100
AcDbVertex
100
AcDb2dVertex
10
33.289899
20
10.431964
30
0
70
0
0
VERTEX
5
10B3
330
17
100
AcDbEntity
8
CUT
100
AcDbVertex
100
AcDb2dVertex
10
32.5
20
10.063628
30
0
70
0
0
VERTEX
5
10B4
330
17
100
AcDbEntity
8
CUT
100
AcDbVertex
100
AcDb2dVertex
10
31.786062
20
9.563723
30
0
70
0
0
VERTEX
5
10B5
330
17
100
AcDbEntity
8
CUT
100
AcDbVertex
100
AcDb2dVertex
10
31.169778
20
8.947439
30
0
70
0
0
VERTEX
5
10B6
330
17
100
AcDbEntity
8
CUT
100
AcDbVertex
100
AcDb2dVertex
10
30.669873
20
8.233501
30
0
70
0
0
VERTEX
5
10B7
330
17
100
AcDbEntity
8
CUT
100
AcDbVertex
100
AcDb2dVertex
10
30.301537
20
7.443602
30
0
70
0
0
VERTEX
5
10B8
330
17
100
AcDbEntity
8
CUT
100
AcDbVertex
100
AcDb2dVertex
10
30.075961
20
6.601742
30
0
70
0
0
SEQEND
5
10B9
330
1092
100
AcDbEntity
8
CUT
0
CIRCLE
5
10BA
330
17
100
AcDbEntity
8
CUT
62
1
100
AcDbCircle
10
155
20
20
30
0
40
1.55
0
CIRCLE
5
10BB
330
17
100
AcDbEntity
8
CUT
62
1
100
AcDbCircle
10
65
20
-20
30
0
40
1.55
0
CIRCLE
5
10BC
330
17
100
AcDbEntity
8
CUT
62
1
100
AcDbCircle
10
155
20
-20
30
0
40
1.55
0
CIRCLE
5
10BD
330
17
100
AcDbEntity
8
CUT
62
1
100
AcDbCircle
10
155
20
0
30
0
40
1.55
0
CIRCLE
5
10BE
330
17
100
AcDbEntity
8
CUT
62
1
100
AcDbCircle
10
65
20
0
30
0
40
1.55
0
CIRCLE
5
10BF
330
17
100
AcDbEntity
8
CUT
62
1
100
AcDbCircle
10
65
20
20
30
0
40
1.55
0
CIRCLE
5
10C0
330
17
100
AcDbEntity
8
CUT
62
1
100
AcDbCircle
10
114.5
20
0
30
0
40
1.5
0
CIRCLE
5
10C1
330
17
100
AcDbEntity
8
CUT
62
1
100
AcDbCircle
10
134.5
20
0
30
0
40
1.5
0
CIRCLE
5
10C2
330
17
100
AcDbEntity
8
CUT
62
1
100
AcDbCircle
10
124.5
20
0
30
0
40
1.5
0
CIRCLE
5
10C3
330
17
100
AcDbEntity
8
CUT
62
1
100
AcDbCircle
10
105.5
20
0
30
0
40
1.5
0
CIRCLE
5
10C4
330
17
100
AcDbEntity
8
CUT
62
1
100
AcDbCircle
10
95.5
20
0
30
0
40
1.5
0
CIRCLE
5
10C5
330
17
100
AcDbEntity
8
CUT
62
1
100
AcDbCircle
10
85.5
20
0
30
0
40
1.5
0
POLYLINE
5
10C6
330
17
100
AcDbEntity
8
CUT
62
1
100
AcDb2dPolyline
66
1
10
0
20
0
30
0
70
1
0
VERTEX
5
10C7
330
17
100
AcDbEntity
8
CUT
100
AcDbVertex
100
AcDb2dVertex
10
132.767755
20
-15.467002
30
0
70
0
0
VERTEX
5
10C8
330
17
100
AcDbEntity
8
CUT
100
AcDbVertex
100
AcDb2dVertex
10
152.12225
20
-29.088833
30
0
70
0
0
VERTEX
5
10C9
330
17
100
AcDbEntity
8
CUT
100
AcDbVertex
100
AcDb2dVertex
10
152.846488
20
-29.51247
30
0
70
0
0
VERTEX
5
10CA
330
17
100
AcDbEntity
8
CUT
100
AcDbVertex
100
AcDb2dVertex
10
153.631368
20
-29.809038
30
0
70
0
0
VERTEX
5
10CB
330
17
100
AcDbEntity
8
CUT
100
AcDbVertex
100
AcDb2dVertex
10
154.454788
20
-29.970185
30
0
70
0
0
VERTEX
5
10CC
330
17
100
AcDbEntity
8
CUT
100
AcDbVertex
100
AcDb2dVertex
10
155.293561
20
-29.991375
30
0
70
0
0
VERTEX
5
10CD
330
17
100
AcDbEntity
8
CUT
100
AcDbVertex
100
AcDb2dVertex
10
156.124067
20
-29.872009
30
0
70
0
0
VERTEX
5
10CE
330
17
100
AcDbEntity
8
CUT
100
AcDbVertex
100
AcDb2dVertex
10
156.92292
20
-29.61545
30
0
70
0
0
VERTEX
5
10CF
330
17
100
AcDbEntity
8
CUT
100
AcDbVertex
100
AcDb2dVertex
10
157.667624
20
-29.228922
30
0
70
0
0
VERTEX
5
10D0
330
17
100
AcDbEntity
8
CUT
100
AcDbVertex
100
AcDb2dVertex
10
158.33721
20
-28.723309
30
0
70
0
0
VERTEX
5
10D1
330
17
100
AcDbEntity
8
CUT
100
AcDbVertex
100
AcDb2dVertex
10
158.912821
20
-28.11285
30
0
70
0
0
VERTEX
5
10D2
330
17
100
AcDbEntity
8
CUT
100
AcDbVertex
100
AcDb2dVertex
10
159.378249
20
-27.414734
30
0
70
0
0
VERTEX
5
10D3
330
17
100
AcDbEntity
8
CUT
100
AcDbVertex
100
AcDb2dVertex
10
159.720387
20
-26.64862
30
0
70
0
0
VERTEX
5
10D4
330
17
100
AcDbEntity
8
CUT
100
AcDbVertex
100
AcDb2dVertex
10
159.929601
20
-25.836082
30
0
70
0
0
VERTEX
5
10D5
330
17
100
AcDbEntity
8
CUT
100
AcDbVertex
100
AcDb2dVertex
10
160
20
-25
30
0
70
0
0
VERTEX
5
10D6
330
17
100
AcDbEntity
8
CUT
100
AcDbVertex
100
AcDb2dVertex
10
160
20
25
30
0
70
0
0
VERTEX
5
10D7
330
17
100
AcDbEntity
8
CUT
100
AcDbVertex
100
AcDb2dVertex
10
159.929601
20
25.836082
30
0
70
0
0
VERTEX
5
10D8
330
17
100
AcDbEntity
8
CUT
100
AcDbVertex
100
AcDb2dVertex
10
159.720387
20
26.64862
30
0
70
0
0
VERTEX
5
10D9
330
17
100
AcDbEntity
8
CUT
100
AcDbVertex
100
AcDb2dVertex
10
159.378249
20
27.414734
30
0
70
0
0
VERTEX
5
10DA
330
17
100
AcDbEntity
8
CUT
100
AcDbVertex
100
AcDb2dVertex
10
158.912821
20
28.11285
30
0
70
0
0
VERTEX
5
10DB
330
17
100
AcDbEntity
8
CUT
100
AcDbVertex
100
AcDb2dVertex
10
158.33721
20
28.723309
30
0
70
0
0
VERTEX
5
10DC
330
17
100
AcDbEntity
8
CUT
100
AcDbVertex
100
AcDb2dVertex
10
157.667624
20
29.228922
30
0
70
0
0
VERTEX
5
10DD
330
17
100
AcDbEntity
8
CUT
100
AcDbVertex
100
AcDb2dVertex
10
156.92292
20
29.61545
30
0
70
0
0
VERTEX
5
10DE
330
17
100
AcDbEntity
8
CUT
100
AcDbVertex
100
AcDb2dVertex
10
156.124067
20
29.872009
30
0
70
0
0
VERTEX
5
10DF
330
17
100
AcDbEntity
8
CUT
100
AcDbVertex
100
AcDb2dVertex
10
155.293561
20
29.991375
30
0
70
0
0
VERTEX
5
10E0
330
17
100
AcDbEntity
8
CUT
100
AcDbVertex
100
AcDb2dVertex
10
154.454788
20
29.970185
30
0
70
0
0
VERTEX
5
10E1
330
17
100
AcDbEntity
8
CUT
100
AcDbVertex
100
AcDb2dVertex
10
153.631368
20
29.809038
30
0
70
0
0
VERTEX
5
10E2
330
17
100
AcDbEntity
8
CUT
100
AcDbVertex
100
AcDb2dVertex
10
152.846488
20
29.51247
30
0
70
0
0
VERTEX
5
10E3
330
17
100
AcDbEntity
8
CUT
100
AcDbVertex
100
AcDb2dVertex
10
152.12225
20
29.088833
30
0
70
0
0
VERTEX
5
10E4
330
17
100
AcDbEntity
8
CUT
100
AcDbVertex
100
AcDb2dVertex
10
132.767755
20
15.467002
30
0
70
0
0
VERTEX
5
10E5
330
17
100
AcDbEntity
8
CUT
100
AcDbVertex
100
AcDb2dVertex
10
130.838198
20
14.216707
30
0
70
0
0
VERTEX
5
10E6
330
17
100
AcDbEntity
8
CUT
100
AcDbVertex
100
AcDb2dVertex
10
128.818554
20
13.117858
30
0
70
0
0
VERTEX
5
10E7
330
17
100
AcDbEntity
8
CUT
100
AcDbVertex
100
AcDb2dVertex
10
126.720687
20
12.176909
30
0
70
0
0
VERTEX
5
10E8
330
17
100
AcDbEntity
8
CUT
100
AcDbVertex
100
AcDb2dVertex
10
124.556919
20
11.399389
30
0
70
0
0
VERTEX
5
10E9
330
17
100
AcDbEntity
8
CUT
100
AcDbVertex
100
AcDb2dVertex
10
122.33996
20
10.789862
30
0
70
0
0
VERTEX
5
10EA
330
17
100
AcDbEntity
8
CUT
100
AcDbVertex
100
AcDb2dVertex
10
120.082831
20
10.351911
30
0
70
0
0
VERTEX
5
10EB
330
17
100
AcDbEntity
8
CUT
100
AcDbVertex
100
AcDb2dVertex
10
117.798791
20
10.088107
30
0
70
0
0
VERTEX
5
10EC
330
17
100
AcDbEntity
8
CUT
100
AcDbVertex
100
AcDb2dVertex
10
115.501256
20
10
30
0
70
0
0
VERTEX
5
10ED
330
17
100
AcDbEntity
8
CUT
100
AcDbVertex
100
AcDb2dVertex
10
104.498744
20
10
30
0
70
0
0
VERTEX
5
10EE
330
17
100
AcDbEntity
8
CUT
100
AcDbVertex
100
AcDb2dVertex
10
102.201209
20
10.088107
30
0
70
0
0
VERTEX
5
10EF
330
17
100
AcDbEntity
8
CUT
100
AcDbVertex
100
AcDb2dVertex
10
99.917169
20
10.351911
30
0
70
0
0
VERTEX
5
10F0
330
17
100
AcDbEntity
8
CUT
100
AcDbVertex
100
AcDb2dVertex
10
97.66004
20
10.789862
30
0
70
0
0
VERTEX
5
10F1
330
17
100
AcDbEntity
8
CUT
100
AcDbVertex
100
AcDb2dVertex
10
95.443081
20
11.399389
30
0
70
0
0
VERTEX
5
10F2
330
17
100
AcDbEntity
8
CUT
100
AcDbVertex
100
AcDb2dVertex
10
93.279313
20
12.176909
30
0
70
0
0
VERTEX
5
10F3
330
17
100
AcDbEntity
8
CUT
100
AcDbVertex
100
AcDb2dVertex
10
91.181446
20
13.117858
30
0
70
0
0
VERTEX
5
10F4
330
17
100
AcDbEntity
8
CUT
100
AcDbVertex
100
AcDb2dVertex
10
89.161802
20
14.216707
30
0
70
0
0
VERTEX
5
10F5
330
17
100
AcDbEntity
8
CUT
100
AcDbVertex
100
AcDb2dVertex
10
87.232245
20
15.467002
30
0
70
0
0
VERTEX
5
10F6
330
17
100
AcDbEntity
8
CUT
100
AcDbVertex
100
AcDb2dVertex
10
67.87775
20
29.088833
30
0
70
0
0
VERTEX
5
10F7
330
17
100
AcDbEntity
8
CUT
100
AcDbVertex
100
AcDb2dVertex
10
67.153512
20
29.51247
30
0
70
0
0
VERTEX
5
10F8
330
17
100
AcDbEntity
8
CUT
100
AcDbVertex
100
AcDb2dVertex
10
66.368632
20
29.809038
30
0
70
0
0
VERTEX
5
10F9
330
17
100
AcDbEntity
8
CUT
100
AcDbVertex
100
AcDb2dVertex
10
65.545212
20
29.970185
30
0
70
0
0
VERTEX
5
10FA
330
17
100
AcDbEntity
8
CUT
100
AcDbVertex
100
AcDb2dVertex
10
64.706439
20
29.991375
30
0
70
0
0
VERTEX
5
10FB
330
17
100
AcDbEntity
8
CUT
100
AcDbVertex
100
AcDb2dVertex
10
63.875933
20
29.872009
30
0
70
0
0
VERTEX
5
10FC
330
17
100
AcDbEntity
8
CUT
100
AcDbVertex
100
AcDb2dVertex
10
63.07708
20
29.61545
30
0
70
0
0
VERTEX
5
10FD
330
17
100
AcDbEntity
8
CUT
100
AcDbVertex
100
AcDb2dVertex
10
62.332376
20
29.228922
30
0
70
0
0
VERTEX
5
10FE
330
17
100
AcDbEntity
8
CUT
100
AcDbVertex
100
AcDb2dVertex
10
61.66279
20
28.723309
30
0
70
0
0
VERTEX
5
10FF
330
17
100
AcDbEntity
8
CUT
100
AcDbVertex
100
AcDb2dVertex
10
61.087179
20
28.11285
30
0
70
0
0
VERTEX
5
1100
330
17
100
AcDbEntity
8
CUT
100
AcDbVertex
100
AcDb2dVertex
10
60.621751
20
27.414734
30
0
70
0
0
VERTEX
5
1101
330
17
100
AcDbEntity
8
CUT
100
AcDbVertex
100
AcDb2dVertex
10
60.279613
20
26.64862
30
0
70
0
0
VERTEX
5
1102
330
17
100
AcDbEntity
8
CUT
100
AcDbVertex
100
AcDb2dVertex
10
60.070399
20
25.836082
30
0
70
0
0
VERTEX
5
1103
330
17
100
AcDbEntity
8
CUT
100
AcDbVertex
100
AcDb2dVertex
10
60
20
25
30
0
70
0
0
VERTEX
5
1104
330
17
100
AcDbEntity
8
CUT
100
AcDbVertex
100
AcDb2dVertex
10
60
20
-25
30
0
70
0
0
VERTEX
5
1105
330
17
100
AcDbEntity
8
CUT
100
AcDbVertex
100
AcDb2dVertex
10
60.070399
20
-25.836082
30
0
70
0
0
VERTEX
5
1106
330
17
100
AcDbEntity
8
CUT
100
AcDbVertex
100
AcDb2dVertex
10
60.279613
20
-26.64862
30
0
70
0
0
VERTEX
5
1107
330
17
100
AcDbEntity
8
CUT
100
AcDbVertex
100
AcDb2dVertex
10
60.621751
20
-27.414734
30
0
70
0
0
VERTEX
5
1108
330
17
100
AcDbEntity
8
CUT
100
AcDbVertex
100
AcDb2dVertex
10
61.087179
20
-28.11285
30
0
70
0
0
VERTEX
5
1109
330
17
100
AcDbEntity
8
CUT
100
AcDbVertex
100
AcDb2dVertex
10
61.66279
20
-28.723309
30
0
70
0
0
VERTEX
5
110A
330
17
100
AcDbEntity
8
CUT
100
AcDbVertex
100
AcDb2dVertex
10
62.332376
20
-29.228922
30
0
70
0
0
VERTEX
5
110B
330
17
100
AcDbEntity
8
CUT
100
AcDbVertex
100
AcDb2dVertex
10
63.07708
20
-29.61545
30
0
70
0
0
VERTEX
5
110C
330
17
100
AcDbEntity
8
CUT
100
AcDbVertex
100
AcDb2dVertex
10
63.875933
20
-29.872009
30
0
70
0
0
VERTEX
5
110D
330
17
100
AcDbEntity
8
CUT
100
AcDbVertex
100
AcDb2dVertex
10
64.706439
20
-29.991375
30
0
70
0
0
VERTEX
5
110E
330
17
100
AcDbEntity
8
CUT
100
AcDbVertex
100
AcDb2dVertex
10
65.545212
20
-29.970185
30
0
70
0
0
VERTEX
5
110F
330
17
100
AcDbEntity
8
CUT
100
AcDbVertex
100
AcDb2dVertex
10
66.368632
20
-29.809038
30
0
70
0
0
VERTEX
5
1110
330
17
100
AcDbEntity
8
CUT
100
AcDbVertex
100
AcDb2dVertex
10
67.153512
20
-29.51247
30
0
70
0
0
VERTEX
5
1111
330
17
100
AcDbEntity
8
CUT
100
AcDbVertex
100
AcDb2dVertex
10
67.87775
20
-29.088833
30
0
70
0
0
VERTEX
5
1112
330
17
100
AcDbEntity
8
CUT
100
AcDbVertex
100
AcDb2dVertex
10
87.232245
20
-15.467002
30
0
70
0
0
VERTEX
5
1113
330
17
100
AcDbEntity
8
CUT
100
AcDbVertex
100
AcDb2dVertex
10
89.161802
20
-14.216707
30
0
70
0
0
VERTEX
5
1114
330
17
100
AcDbEntity
8
CUT
100
AcDbVertex
100
AcDb2dVertex
10
91.181446
20
-13.117858
30
0
70
0
0
VERTEX
5
1115
330
17
100
AcDbEntity
8
CUT
100
AcDbVertex
100
AcDb2dVertex
10
93.279313
20
-12.176909
30
0
70
0
0
VERTEX
5
1116
330
17
100
AcDbEntity
8
CUT
100
AcDbVertex
100
AcDb2dVertex
10
95.443081
20
-11.399389
30
0
70
0
0
VERTEX
5
1117
330
17
100
AcDbEntity
8
CUT
100
AcDbVertex
100
AcDb2dVertex
10
97.66004
20
-10.789862
30
0
70
0
0
VERTEX
5
1118
330
17
100
AcDbEntity
8
CUT
100
AcDbVertex
100
AcDb2dVertex
10
99.917169
20
-10.351911
30
0
70
0
0
VERTEX
5
1119
330
17
100
AcDbEntity
8
CUT
100
AcDbVertex
100
AcDb2dVertex
10
102.201209
20
-10.088107
30
0
70
0
0
VERTEX
5
111A
330
17
100
AcDbEntity
8
CUT
100
AcDbVertex
100
AcDb2dVertex
10
104.498744
20
-10
30
0
70
0
0
VERTEX
5
111B
330
17
100
AcDbEntity
8
CUT
100
AcDbVertex
100
AcDb2dVertex
10
115.501256
20
-10
30
0
70
0
0
VERTEX
5
111C
330
17
100
AcDbEntity
8
CUT
100
AcDbVertex
100
AcDb2dVertex
10
117.798791
20
-10.088107
30
0
70
0
0
VERTEX
5
111D
330
17
100
AcDbEntity
8
CUT
100
AcDbVertex
100
AcDb2dVertex
10
120.082831
20
-10.351911
30
0
70
0
0
VERTEX
5
111E
330
17
100
AcDbEntity
8
CUT
100
AcDbVertex
100
AcDb2dVertex
10
122.33996
20
-10.789862
30
0
70
0
0
VERTEX
5
111F
330
17
100
AcDbEntity
8
CUT
100
AcDbVertex
100
AcDb2dVertex
10
124.556919
20
-11.399389
30
0
70
0
0
VERTEX
5
1120
330
17
100
AcDbEntity
8
CUT
100
AcDbVertex
100
AcDb2dVertex
10
126.720687
20
-12.176909
30
0
70
0
0
VERTEX
5
1121
330
17
100
AcDbEntity
8
CUT
100
AcDbVertex
100
AcDb2dVertex
10
128.818554
20
-13.117858
30
0
70
0
0
VERTEX
5
1122
330
17
100
AcDbEntity
8
CUT
100
AcDbVertex
100
AcDb2dVertex
10
130.838198
20
-14.216707
30
0
70
0
0
SEQEND
5
1123
330
10C6
100
AcDbEntity
8
CUT
0
POLYLINE
5
1124
330
17
100
AcDbEntity
8
CUT
62
1
100
AcDb2dPolyline
66
1
10
0
20
0
30
0
70
1
0
VERTEX
5
1125
330
17
100
AcDbEntity
8
CUT
100
AcDbVertex
100
AcDb2dVertex
10
80
20
5.733501
30
0
70
0
0
VERTEX
5
1126
330
17
100
AcDbEntity
8
CUT
100
AcDbVertex
100
AcDb2dVertex
10
79.924039
20
6.601742
30
0
70
0
0
VERTEX
5
1127
330
17
100
AcDbEntity
8
CUT
100
AcDbVertex
100
AcDb2dVertex
10
79.698463
20
7.443602
30
0
70
0
0
VERTEX
5
1128
330
17
100
AcDbEntity
8
CUT
100
AcDbVertex
100
AcDb2dVertex
10
79.330127
20
8.233501
30
0
70
0
0
VERTEX
5
1129
330
17
100
AcDbEntity
8
CUT
100
AcDbVertex
100
AcDb2dVertex
10
78.830222
20
8.947439
30
0
70
0
0
VERTEX
5
112A
330
17
100
AcDbEntity
8
CUT
100
AcDbVertex
100
AcDb2dVertex
10
78.213938
20
9.563723
30
0
70
0
0
VERTEX
5
112B
330
17
100
AcDbEntity
8
CUT
100
AcDbVertex
100
AcDb2dVertex
10
77.5
20
10.063628
30
0
70
0
0
VERTEX
5
112C
330
17
100
AcDbEntity
8
CUT
100
AcDbVertex
100
AcDb2dVertex
10
76.710101
20
10.431964
30
0
70
0
0
VERTEX
5
112D
330
17
100
AcDbEntity
8
CUT
100
AcDbVertex
100
AcDb2dVertex
10
75.868241
20
10.65754
30
0
70
0
0
VERTEX
5
112E
330
17
100
AcDbEntity
8
CUT
100
AcDbVertex
100
AcDb2dVertex
10
75
20
10.733501
30
0
70
0
0
VERTEX
5
112F
330
17
100
AcDbEntity
8
CUT
100
AcDbVertex
100
AcDb2dVertex
10
74.131759
20
10.65754
30
0
70
0
0
VERTEX
5
1130
330
17
100
AcDbEntity
8
CUT
100
AcDbVertex
100
AcDb2dVertex
10
73.289899
20
10.431964
30
0
70
0
0
VERTEX
5
1131
330
17
100
AcDbEntity
8
CUT
100
AcDbVertex
100
AcDb2dVertex
10
72.5
20
10.063628
30
0
70
0
0
VERTEX
5
1132
330
17
100
AcDbEntity
8
CUT
100
AcDbVertex
100
AcDb2dVertex
10
71.786062
20
9.563723
30
0
70
0
0
VERTEX
5
1133
330
17
100
AcDbEntity
8
CUT
100
AcDbVertex
100
AcDb2dVertex
10
71.169778
20
8.947439
30
0
70
0
0
VERTEX
5
1134
330
17
100
AcDbEntity
8
CUT
100
AcDbVertex
100
AcDb2dVertex
10
70.669873
20
8.233501
30
0
70
0
0
VERTEX
5
1135
330
17
100
AcDbEntity
8
CUT
100
AcDbVertex
100
AcDb2dVertex
10
70.301537
20
7.443602
30
0
70
0
0
VERTEX
5
1136
330
17
100
AcDbEntity
8
CUT
100
AcDbVertex
100
AcDb2dVertex
10
70.075961
20
6.601742
30
0
70
0
0
VERTEX
5
1137
330
17
100
AcDbEntity
8
CUT
100
AcDbVertex
100
AcDb2dVertex
10
70
20
5.733501
30
0
70
0
0
VERTEX
5
1138
330
17
100
AcDbEntity
8
CUT
100
AcDbVertex
100
AcDb2dVertex
10
70
20
-5.733501
30
0
70
0
0
VERTEX
5
1139
330
17
100
AcDbEntity
8
CUT
100
AcDbVertex
100
AcDb2dVertex
10
70.075961
20
-6.601742
30
0
70
0
0
VERTEX
5
113A
330
17
100
AcDbEntity
8
CUT
100
AcDbVertex
100
AcDb2dVertex
10
70.301537
20
-7.443602
30
0
70
0
0
VERTEX
5
113B
330
17
100
AcDbEntity
8
CUT
100
AcDbVertex
100
AcDb2dVertex
10
70.669873
20
-8.233501
30
0
70
0
0
VERTEX
5
113C
330
17
100
AcDbEntity
8
CUT
100
AcDbVertex
100
AcDb2dVertex
10
71.169778
20
-8.947439
30
0
70
0
0
VERTEX
5
113D
330
17
100
AcDbEntity
8
CUT
100
AcDbVertex
100
AcDb2dVertex
10
71.786062
20
-9.563723
30
0
70
0
0
VERTEX
5
113E
330
17
100
AcDbEntity
8
CUT
100
AcDbVertex
100
AcDb2dVertex
10
72.5
20
-10.063628
30
0
70
0
0
VERTEX
5
113F
330
17
100
AcDbEntity
8
CUT
100
AcDbVertex
100
AcDb2dVertex
10
73.289899
20
-10.431964
30
0
70
0
0
VERTEX
5
1140
330
17
100
AcDbEntity
8
CUT
100
AcDbVertex
100
AcDb2dVertex
10
74.131759
20
-10.65754
30
0
70
0
0
VERTEX
5
1141
330
17
100
AcDbEntity
8
CUT
100
AcDbVertex
100
AcDb2dVertex
10
75
20
-10.733501
30
0
70
0
0
VERTEX
5
1142
330
17
100
AcDbEntity
8
CUT
100
AcDbVertex
100
AcDb2dVertex
10
75.868241
20
-10.65754
30
0
70
0
0
VERTEX
5
1143
330
17
100
AcDbEntity
8
CUT
100
AcDbVertex
100
AcDb2dVertex
10
76.710101
20
-10.431964
30
0
70
0
0
VERTEX
5
1144
330
17
100
AcDbEntity
8
CUT
100
AcDbVertex
100
AcDb2dVertex
10
77.5
20
-10.063628
30
0
70
0
0
VERTEX
5
1145
330
17
100
AcDbEntity
8
CUT
100
AcDbVertex
100
AcDb2dVertex
10
78.213938
20
-9.563723
30
0
70
0
0
VERTEX
5
1146
330
17
100
AcDbEntity
8
CUT
100
AcDbVertex
100
AcDb2dVertex
10
78.830222
20
-8.947439
30
0
70
0
0
VERTEX
5
1147
330
17
100
AcDbEntity
8
CUT
100
AcDbVertex
100
AcDb2dVertex
10
79.330127
20
-8.233501
30
0
70
0
0
VERTEX
5
1148
330
17
100
AcDbEntity
8
CUT
100
AcDbVertex
100
AcDb2dVertex
10
79.698463
20
-7.443602
30
0
70
0
0
VERTEX
5
1149
330
17
100
AcDbEntity
8
CUT
100
AcDbVertex
100
AcDb2dVertex
10
79.924039
20
-6.601742
30
0
70
0
0
VERTEX
5
114A
330
17
100
AcDbEntity
8
CUT
100
AcDbVertex
100
AcDb2dVertex
10
80
20
-5.733501
30
0
70
0
0
SEQEND
5
114B
330
1124
100
AcDbEntity
8
CUT
0
POLYLINE
5
114C
330
17
100
AcDbEntity
8
CUT
62
1
100
AcDb2dPolyline
66
1
10
0
20
0
30
0
70
1
0
VERTEX
5
114D
330
17
100
AcDbEntity
8
CUT
100
AcDbVertex
100
AcDb2dVertex
10
140
20
5.733501
30
0
70
0
0
VERTEX
5
114E
330
17
100
AcDbEntity
8
CUT
100
AcDbVertex
100
AcDb2dVertex
10
140
20
-5.733501
30
0
70
0
0
VERTEX
5
114F
330
17
100
AcDbEntity
8
CUT
100
AcDbVertex
100
AcDb2dVertex
10
140.075961
20
-6.601742
30
0
70
0
0
VERTEX
5
1150
330
17
100
AcDbEntity
8
CUT
100
AcDbVertex
100
AcDb2dVertex
10
140.301537
20
-7.443602
30
0
70
0
0
VERTEX
5
1151
330
17
100
AcDbEntity
8
CUT
100
AcDbVertex
100
AcDb2dVertex
10
140.669873
20
-8.233501
30
0
70
0
0
VERTEX
5
1152
330
17
100
AcDbEntity
8
CUT
100
AcDbVertex
100
AcDb2dVertex
10
141.169778
20
-8.947439
30
0
70
0
0
VERTEX
5
1153
330
17
100
AcDbEntity
8
CUT
100
AcDbVertex
100
AcDb2dVertex
10
141.786062
20
-9.563723
30
0
70
0
0
VERTEX
5
1154
330
17
100
AcDbEntity
8
CUT
100
AcDbVertex
100
AcDb2dVertex
10
142.5
20
-10.063628
30
0
70
0
0
VERTEX
5
1155
330
17
100
AcDbEntity
8
CUT
100
AcDbVertex
100
AcDb2dVertex
10
143.289899
20
-10.431964
30
0
70
0
0
VERTEX
5
1156
330
17
100
AcDbEntity
8
CUT
100
AcDbVertex
100
AcDb2dVertex
10
144.131759
20
-10.65754
30
0
70
0
0
VERTEX
5
1157
330
17
100
AcDbEntity
8
CUT
100
AcDbVertex
100
AcDb2dVertex
10
145
20
-10.733501
30
0
70
0
0
VERTEX
5
1158
330
17
100
AcDbEntity
8
CUT
100
AcDbVertex
100
AcDb2dVertex
10
145.868241
20
-10.65754
30
0
70
0
0
VERTEX
5
1159
330
17
100
AcDbEntity
8
CUT
100
AcDbVertex
100
AcDb2dVertex
10
146.710101
20
-10.431964
30
0
70
0
0
VERTEX
5
115A
330
17
100
AcDbEntity
8
CUT
100
AcDbVertex
100
AcDb2dVertex
10
147.5
20
-10.063628
30
0
70
0
0
VERTEX
5
115B
330
17
100
AcDbEntity
8
CUT
100
AcDbVertex
100
AcDb2dVertex
10
148.213938
20
-9.563723
30
0
70
0
0
VERTEX
5
115C
330
17
100
AcDbEntity
8
CUT
100
AcDbVertex
100
AcDb2dVertex
10
148.830222
20
-8.947439
30
0
70
0
0
VERTEX
5
115D
330
17
100
AcDbEntity
8
CUT
100
AcDbVertex
100
AcDb2dVertex
10
149.330127
20
-8.233501
30
0
70
0
0
VERTEX
5
115E
330
17
100
AcDbEntity
8
CUT
100
AcDbVertex
100
AcDb2dVertex
10
149.698463
20
-7.443602
30
0
70
0
0
VERTEX
5
115F
330
17
100
AcDbEntity
8
CUT
100
AcDbVertex
100
AcDb2dVertex
10
149.924039
20
-6.601742
30
0
70
0
0
VERTEX
5
1160
330
17
100
AcDbEntity
8
CUT
100
AcDbVertex
100
AcDb2dVertex
10
150
20
-5.733501
30
0
70
0
0
VERTEX
5
1161
330
17
100
AcDbEntity
8
CUT
100
AcDbVertex
100
AcDb2dVertex
10
150
20
5.733501
30
0
70
0
0
VERTEX
5
1162
330
17
100
AcDbEntity
8
CUT
100
AcDbVertex
100
AcDb2dVertex
10
149.924039
20
6.601742
30
0
70
0
0
VERTEX
5
1163
330
17
100
AcDbEntity
8
CUT
100
AcDbVertex
100
AcDb2dVertex
10
149.698463
20
7.443602
30
0
70
0
0
VERTEX
5
1164
330
17
100
AcDbEntity
8
CUT
100
AcDbVertex
100
AcDb2dVertex
10
149.330127
20
8.233501
30
0
70
0
0
VERTEX
5
1165
330
17
100
AcDbEntity
8
CUT
100
AcDbVertex
100
AcDb2dVertex
10
148.830222
20
8.947439
30
0
70
0
0
VERTEX
5
1166
330
17
100
AcDbEntity
8
CUT
100
AcDbVertex
100
AcDb2dVertex
10
148.213938
20
9.563723
30
0
70
0
0
VERTEX
5
1167
330
17
100
AcDbEntity
8
CUT
100
AcDbVertex
100
AcDb2dVertex
10
147.5
20
10.063628
30
0
70
0
0
VERTEX
5
1168
330
17
100
AcDbEntity
8
CUT
100
AcDbVertex
100
AcDb2dVertex
10
146.710101
20
10.431964
30
0
70
0
0
VERTEX
5
1169
330
17
100
AcDbEntity
8
CUT
100
AcDbVertex
100
AcDb2dVertex
10
145.868241
20
10.65754
30
0
70
0
0
VERTEX
5
116A
330
17
100
AcDbEntity
8
CUT
100
AcDbVertex
100
AcDb2dVertex
10
145
20
10.733501
30
0
70
0
0
VERTEX
5
116B
330
17
100
AcDbEntity
8
CUT
100
AcDbVertex
100
AcDb2dVertex
10
144.131759
20
10.65754
30
0
70
0
0
VERTEX
5
116C
330
17
100
AcDbEntity
8
CUT
100
AcDbVertex
100
AcDb2dVertex
10
143.289899
20
10.431964
30
0
70
0
0
VERTEX
5
116D
330
17
100
AcDbEntity
8
CUT
100
AcDbVertex
100
AcDb2dVertex
10
142.5
20
10.063628
30
0
70
0
0
VERTEX
5
116E
330
17
100
AcDbEntity
8
CUT
100
AcDbVertex
100
AcDb2dVertex
10
141.786062
20
9.563723
30
0
70
0
0
VERTEX
5
116F
330
17
100
AcDbEntity
8
CUT
100
AcDbVertex
100
AcDb2dVertex
10
141.169778
20
8.947439
30
0
70
0
0
VERTEX
5
1170
330
17
100
AcDbEntity
8
CUT
100
AcDbVertex
100
AcDb2dVertex
10
140.669873
20
8.233501
30
0
70
0
0
VERTEX
5
1171
330
17
100
AcDbEntity
8
CUT
100
AcDbVertex
100
AcDb2dVertex
10
140.301537
20
7.443602
30
0
70
0
0
VERTEX
5
1172
330
17
100
AcDbEntity
8
CUT
100
AcDbVertex
100
AcDb2dVertex
10
140.075961
20
6.601742
30
0
70
0
0
SEQEND
5
1173
330
114C
100
AcDbEntity
8
CUT
0
CIRCLE
5
1174
330
17
100
AcDbEntity
8
CUT
62
1
100
AcDbCircle
10
45
20
-50
30
0
40
1.55
0
CIRCLE
5
1175
330
17
100
AcDbEntity
8
CUT
62
1
100
AcDbCircle
10
-45
20
-90
30
0
40
1.55
0
CIRCLE
5
1176
330
17
100
AcDbEntity
8
CUT
62
1
100
AcDbCircle
10
45
20
-90
30
0
40
1.55
0
CIRCLE
5
1177
330
17
100
AcDbEntity
8
CUT
62
1
100
AcDbCircle
10
45
20
-70
30
0
40
1.55
0
CIRCLE
5
1178
330
17
100
AcDbEntity
8
CUT
62
1
100
AcDbCircle
10
-45
20
-70
30
0
40
1.55
0
CIRCLE
5
1179
330
17
100
AcDbEntity
8
CUT
62
1
100
AcDbCircle
10
-45
20
-50
30
0
40
1.55
0
CIRCLE
5
117A
330
17
100
AcDbEntity
8
CUT
62
1
100
AcDbCircle
10
4.5
20
-70
30
0
40
1.5
0
CIRCLE
5
117B
330
17
100
AcDbEntity
8
CUT
62
1
100
AcDbCircle
10
24.5
20
-70
30
0
40
1.5
0
CIRCLE
5
117C
330
17
100
AcDbEntity
8
CUT
62
1
100
AcDbCircle
10
14.5
20
-70
30
0
40
1.5
0
CIRCLE
5
117D
330
17
100
AcDbEntity
8
CUT
62
1
100
AcDbCircle
10
-4.5
20
-70
30
0
40
1.5
0
CIRCLE
5
117E
330
17
100
AcDbEntity
8
CUT
62
1
100
AcDbCircle
10
-14.5
20
-70
30
0
40
1.5
0
CIRCLE
5
117F
330
17
100
AcDbEntity
8
CUT
62
1
100
AcDbCircle
10
-24.5
20
-70
30
0
40
1.5
0
POLYLINE
5
1180
330
17
100
AcDbEntity
8
CUT
62
1
100
AcDb2dPolyline
66
1
10
0
20
0
30
0
70
1
0
VERTEX
5
1181
330
17
100
AcDbEntity
8
CUT
100
AcDbVertex
100
AcDb2dVertex
10
22.767755
20
-85.467002
30
0
70
0
0
VERTEX
5
1182
330
17
100
AcDbEntity
8
CUT
100
AcDbVertex
100
AcDb2dVertex
10
42.12225
20
-99.088833
30
0
70
0
0
VERTEX
5
1183
330
17
100
AcDbEntity
8
CUT
100
AcDbVertex
100
AcDb2dVertex
10
42.846488
20
-99.51247
30
0
70
0
0
VERTEX
5
1184
330
17
100
AcDbEntity
8
CUT
100
AcDbVertex
100
AcDb2dVertex
10
43.631368
20
-99.809038
30
0
70
0
0
VERTEX
5
1185
330
17
100
AcDbEntity
8
CUT
100
AcDbVertex
100
AcDb2dVertex
10
44.454788
20
-99.970185
30
0
70
0
0
VERTEX
5
1186
330
17
100
AcDbEntity
8
CUT
100
AcDbVertex
100
AcDb2dVertex
10
45.293561
20
-99.991375
30
0
70
0
0
VERTEX
5
1187
330
17
100
AcDbEntity
8
CUT
100
AcDbVertex
100
AcDb2dVertex
10
46.124067
20
-99.872009
30
0
70
0
0
VERTEX
5
1188
330
17
100
AcDbEntity
8
CUT
100
AcDbVertex
100
AcDb2dVertex
10
46.92292
20
-99.61545
30
0
70
0
0
VERTEX
5
1189
330
17
100
AcDbEntity
8
CUT
100
AcDbVertex
100
AcDb2dVertex
10
47.667624
20
-99.228922
30
0
70
0
0
VERTEX
5
118A
330
17
100
AcDbEntity
8
CUT
100
AcDbVertex
100
AcDb2dVertex
10
48.33721
20
-98.723309
30
0
70
0
0
VERTEX
5
118B
330
17
100
AcDbEntity
8
CUT
100
AcDbVertex
100
AcDb2dVertex
10
48.912821
20
-98.11285
30
0
70
0
0
VERTEX
5
118C
330
17
100
AcDbEntity
8
CUT
100
AcDbVertex
100
AcDb2dVertex
10
49.378249
20
-97.414734
30
0
70
0
0
VERTEX
5
118D
330
17
100
AcDbEntity
8
CUT
100
AcDbVertex
100
AcDb2dVertex
10
49.720387
20
-96.64862
30
0
70
0
0
VERTEX
5
118E
330
17
100
AcDbEntity
8
CUT
100
AcDbVertex
100
AcDb2dVertex
10
49.929601
20
-95.836082
30
0
70
0
0
VERTEX
5
118F
330
17
100
AcDbEntity
8
CUT
100
AcDbVertex
100
AcDb2dVertex
10
50
20
-95
30
0
70
0
0
VERTEX
5
1190
330
17
100
AcDbEntity
8
CUT
100
AcDbVertex
100
AcDb2dVertex
10
50
20
-45
30
0
70
0
0
VERTEX
5
1191
330
17
100
AcDbEntity
8
CUT
100
AcDbVertex
100
AcDb2dVertex
10
49.929601
20
-44.163918
30
0
70
0
0
VERTEX
5
1192
330
17
100
AcDbEntity
8
CUT
100
AcDbVertex
100
AcDb2dVertex
10
49.720387
20
-43.35138
30
0
70
0
0
VERTEX
5
1193
330
17
100
AcDbEntity
8
CUT
100
AcDbVertex
100
AcDb2dVertex
10
49.378249
20
-42.585266
30
0
70
0
0
VERTEX
5
1194
330
17
100
AcDbEntity
8
CUT
100
AcDbVertex
100
AcDb2dVertex
10
48.912821
20
-41.88715
30
0
70
0
0
VERTEX
5
1195
330
17
100
AcDbEntity
8
CUT
100
AcDbVertex
100
AcDb2dVertex
10
48.33721
20
-41.276691
30
0
70
0
0
VERTEX
5
1196
330
17
100
AcDbEntity
8
CUT
100
AcDbVertex
100
AcDb2dVertex
10
47.667624
20
-40.771078
30
0
70
0
0
VERTEX
5
1197
330
17
100
AcDbEntity
8
CUT
100
AcDbVertex
100
AcDb2dVertex
10
46.92292
20
-40.38455
30
0
70
0
0
VERTEX
5
1198
330
17
100
AcDbEntity
8
CUT
100
AcDbVertex
100
AcDb2dVertex
10
46.124067
20
-40.127991
30
0
70
0
0
VERTEX
5
1199
330
17
100
AcDbEntity
8
CUT
100
AcDbVertex
100
AcDb2dVertex
10
45.293561
20
-40.008625
30
0
70
0
0
VERTEX
5
119A
330
17
100
AcDbEntity
8
CUT
100
AcDbVertex
100
AcDb2dVertex
10
44.454788
20
-40.029815
30
0
70
0
0
VERTEX
5
119B
330
17
100
AcDbEntity
8
CUT
100
AcDbVertex
100
AcDb2dVertex
10
43.631368
20
-40.190962
30
0
70
0
0
VERTEX
5
119C
330
17
100
AcDbEntity
8
CUT
100
AcDbVertex
100
AcDb2dVertex
10
42.846488
20
-40.48753
30
0
70
0
0
VERTEX
5
119D
330
17
100
AcDbEntity
8
CUT
100
AcDbVertex
100
AcDb2dVertex
10
42.12225
20
-40.911167
30
0
70
0
0
VERTEX
5
119E
330
17
100
AcDbEntity
8
CUT
100
AcDbVertex
100
AcDb2dVertex
10
22.767755
20
-54.532998
30
0
70
0
0
VERTEX
5
119F
330
17
100
AcDbEntity
8
CUT
100
AcDbVertex
100
AcDb2dVertex
10
20.838198
20
-55.783293
30
0
70
0
0
VERTEX
5
11A0
330
17
100
AcDbEntity
8
CUT
100
AcDbVertex
100
AcDb2dVertex
10
18.818554
20
-56.882142
30
0
70
0
0
VERTEX
5
11A1
330
17
100
AcDbEntity
8
CUT
100
AcDbVertex
100
AcDb2dVertex
10
16.720687
20
-57.823091
30
0
70
0
0
VERTEX
5
11A2
330
17
100
AcDbEntity
8
CUT
100
AcDbVertex
100
AcDb2dVertex
10
14.556919
20
-58.600611
30
0
70
0
0
VERTEX
5
11A3
330
17
100
AcDbEntity
8
CUT
100
AcDbVertex
100
AcDb2dVertex
10
12.33996
20
-59.210138
30
0
70
0
0
VERTEX
5
11A4
330
17
100
AcDbEntity
8
CUT
100
AcDbVertex
100
AcDb2dVertex
10
10.082831
20
-59.648089
30
0
70
0
0
VERTEX
5
11A5
330
17
100
AcDbEntity
8
CUT
100
AcDbVertex
100
AcDb2dVertex
10
7.798791
20
-59.911893
30
0
70
0
0
VERTEX
5
11A6
330
17
100
AcDbEntity
8
CUT
100
AcDbVertex
100
AcDb2dVertex
10
5.501256
20
-60
30
0
70
0
0
VERTEX
5
11A7
330
17
100
AcDbEntity
8
CUT
100
AcDbVertex
100
AcDb2dVertex
10
-5.501256
20
-60
30
0
70
0
0
VERTEX
5
11A8
330
17
100
AcDbEntity
8
CUT
100
AcDbVertex
100
AcDb2dVertex
10
-7.798791
20
-59.911893
30
0
70
0
0
VERTEX
5
11A9
330
17
100
AcDbEntity
8
CUT
100
AcDbVertex
100
AcDb2dVertex
10
-10.082831
20
-59.648089
30
0
70
0
0
VERTEX
5
11AA
330
17
100
AcDbEntity
8
CUT
100
AcDbVertex
100
AcDb2dVertex
10
-12.33996
20
-59.210138
30
0
70
0
0
VERTEX
5
11AB
330
17
100
AcDbEntity
8
CUT
100
AcDbVertex
100
AcDb2dVertex
10
-14.556919
20
-58.600611
30
0
70
0
0
VERTEX
5
11AC
330
17
100
AcDbEntity
8
CUT
100
AcDbVertex
100
AcDb2dVertex
10
-16.720687
20
-57.823091
30
0
70
0
0
VERTEX
5
11AD
330
17
100
AcDbEntity
8
CUT
100
AcDbVertex
100
AcDb2dVertex
10
-18.818554
20
-56.882142
30
0
70
0
0
VERTEX
5
11AE
330
17
100
AcDbEntity
8
CUT
100
AcDbVertex
100
AcDb2dVertex
10
-20.838198
20
-55.783293
30
0
70
0
0
VERTEX
5
11AF
330
17
100
AcDbEntity
8
CUT
100
AcDbVertex
100
AcDb2dVertex
10
-22.767755
20
-54.532998
30
0
70
0
0
VERTEX
5
11B0
330
17
100
AcDbEntity
8
CUT
100
AcDbVertex
100
AcDb2dVertex
10
-42.12225
20
-40.911167
30
0
70
0
0
VERTEX
5
11B1
330
17
100
AcDbEntity
8
CUT
100
AcDbVertex
100
AcDb2dVertex
10
-42.846488
20
-40.48753
30
0
70
0
0
VERTEX
5
11B2
330
17
100
AcDbEntity
8
CUT
100
AcDbVertex
100
AcDb2dVertex
10
-43.631368
20
-40.190962
30
0
70
0
0
VERTEX
5
11B3
330
17
100
AcDbEntity
8
CUT
100
AcDbVertex
100
AcDb2dVertex
10
-44.454788
20
-40.029815
30
0
70
0
0
VERTEX
5
11B4
330
17
100
AcDbEntity
8
CUT
100
AcDbVertex
100
AcDb2dVertex
10
-45.293561
20
-40.008625
30
0
70
0
0
VERTEX
5
11B5
330
17
100
AcDbEntity
8
CUT
100
AcDbVertex
100
AcDb2dVertex
10
-46.124067
20
-40.127991
30
0
70
0
0
VERTEX
5
11B6
330
17
100
AcDbEntity
8
CUT
100
AcDbVertex
100
AcDb2dVertex
10
-46.92292
20
-40.38455
30
0
70
0
0
VERTEX
5
11B7
330
17
100
AcDbEntity
8
CUT
100
AcDbVertex
100
AcDb2dVertex
10
-47.667624
20
-40.771078
30
0
70
0
0
VERTEX
5
11B8
330
17
100
AcDbEntity
8
CUT
100
AcDbVertex
100
AcDb2dVertex
10
-48.33721
20
-41.276691
30
0
70
0
0
VERTEX
5
11B9
330
17
100
AcDbEntity
8
CUT
100
AcDbVertex
100
AcDb2dVertex
10
-48.912821
20
-41.88715
30
0
70
0
0
VERTEX
5
11BA
330
17
100
AcDbEntity
8
CUT
100
AcDbVertex
100
AcDb2dVertex
10
-49.378249
20
-42.585266
30
0
70
0
0
VERTEX
5
11BB
330
17
100
AcDbEntity
8
CUT
100
AcDbVertex
100
AcDb2dVertex
10
-49.720387
20
-43.35138
30
0
70
0
0
VERTEX
5
11BC
330
17
100
AcDbEntity
8
CUT
100
AcDbVertex
100
AcDb2dVertex
10
-49.929601
20
-44.163918
30
0
70
0
0
VERTEX
5
11BD
330
17
100
AcDbEntity
8
CUT
100
AcDbVertex
100
AcDb2dVertex
10
-50
20
-45
30
0
70
0
0
VERTEX
5
11BE
330
17
100
AcDbEntity
8
CUT
100
AcDbVertex
100
AcDb2dVertex
10
-50
20
-95
30
0
70
0
0
VERTEX
5
11BF
330
17
100
AcDbEntity
8
CUT
100
AcDbVertex
100
AcDb2dVertex
10
-49.929601
20
-95.836082
30
0
70
0
0
VERTEX
5
11C0
330
17
100
AcDbEntity
8
CUT
100
AcDbVertex
100
AcDb2dVertex
10
-49.720387
20
-96.64862
30
0
70
0
0
VERTEX
5
11C1
330
17
100
AcDbEntity
8
CUT
100
AcDbVertex
100
AcDb2dVertex
10
-49.378249
20
-97.414734
30
0
70
0
0
VERTEX
5
11C2
330
17
100
AcDbEntity
8
CUT
100
AcDbVertex
100
AcDb2dVertex
10
-48.912821
20
-98.11285
30
0
70
0
0
VERTEX
5
11C3
330
17
100
AcDbEntity
8
CUT
100
AcDbVertex
100
AcDb2dVertex
10
-48.33721
20
-98.723309
30
0
70
0
0
VERTEX
5
11C4
330
17
100
AcDbEntity
8
CUT
100
AcDbVertex
100
AcDb2dVertex
10
-47.667624
20
-99.228922
30
0
70
0
0
VERTEX
5
11C5
330
17
100
AcDbEntity
8
CUT
100
AcDbVertex
100
AcDb2dVertex
10
-46.92292
20
-99.61545
30
0
70
0
0
VERTEX
5
11C6
330
17
100
AcDbEntity
8
CUT
100
AcDbVertex
100
AcDb2dVertex
10
-46.124067
20
-99.872009
30
0
70
0
0
VERTEX
5
11C7
330
17
100
AcDbEntity
8
CUT
100
AcDbVertex
100
AcDb2dVertex
10
-45.293561
20
-99.991375
30
0
70
0
0
VERTEX
5
11C8
330
17
100
AcDbEntity
8
CUT
100
AcDbVertex
100
AcDb2dVertex
10
-44.454788
20
-99.970185
30
0
70
0
0
VERTEX
5
11C9
330
17
100
AcDbEntity
8
CUT
100
AcDbVertex
100
AcDb2dVertex
10
-43.631368
20
-99.809038
30
0
70
0
0
VERTEX
5
11CA
330
17
100
AcDbEntity
8
CUT
100
AcDbVertex
100
AcDb2dVertex
10
-42.846488
20
-99.51247
30
0
70
0
0
VERTEX
5
11CB
330
17
100
AcDbEntity
8
CUT
100
AcDbVertex
100
AcDb2dVertex
10
-42.12225
20
-99.088833
30
0
70
0
0
VERTEX
5
11CC
330
17
100
AcDbEntity
8
CUT
100
AcDbVertex
100
AcDb2dVertex
10
-22.767755
20
-85.467002
30
0
70
0
0
VERTEX
5
11CD
330
17
100
AcDbEntity
8
CUT
100
AcDbVertex
100
AcDb2dVertex
10
-20.838198
20
-84.216707
30
0
70
0
0
VERTEX
5
11CE
330
17
100
AcDbEntity
8
CUT
100
AcDbVertex
100
AcDb2dVertex
10
-18.818554
20
-83.117858
30
0
70
0
0
VERTEX
5
11CF
330
17
100
AcDbEntity
8
CUT
100
AcDbVertex
100
AcDb2dVertex
10
-16.720687
20
-82.176909
30
0
70
0
0
VERTEX
5
11D0
330
17
100
AcDbEntity
8
CUT
100
AcDbVertex
100
AcDb2dVertex
10
-14.556919
20
-81.399389
30
0
70
0
0
VERTEX
5
11D1
330
17
100
AcDbEntity
8
CUT
100
AcDbVertex
100
AcDb2dVertex
10
-12.33996
20
-80.789862
30
0
70
0
0
VERTEX
5
11D2
330
17
100
AcDbEntity
8
CUT
100
AcDbVertex
100
AcDb2dVertex
10
-10.082831
20
-80.351911
30
0
70
0
0
VERTEX
5
11D3
330
17
100
AcDbEntity
8
CUT
100
AcDbVertex
100
AcDb2dVertex
10
-7.798791
20
-80.088107
30
0
70
0
0
VERTEX
5
11D4
330
17
100
AcDbEntity
8
CUT
100
AcDbVertex
100
AcDb2dVertex
10
-5.501256
20
-80
30
0
70
0
0
VERTEX
5
11D5
330
17
100
AcDbEntity
8
CUT
100
AcDbVertex
100
AcDb2dVertex
10
5.501256
20
-80
30
0
70
0
0
VERTEX
5
11D6
330
17
100
AcDbEntity
8
CUT
100
AcDbVertex
100
AcDb2dVertex
10
7.798791
20
-80.088107
30
0
70
0
0
VERTEX
5
11D7
330
17
100
AcDbEntity
8
CUT
100
AcDbVertex
100
AcDb2dVertex
10
10.082831
20
-80.351911
30
0
70
0
0
VERTEX
5
11D8
330
17
100
AcDbEntity
8
CUT
100
AcDbVertex
100
AcDb2dVertex
10
12.33996
20
-80.789862
30
0
70
0
0
VERTEX
5
11D9
330
17
100
AcDbEntity
8
CUT
100
AcDbVertex
100
AcDb2dVertex
10
14.556919
20
-81.399389
30
0
70
0
0
VERTEX
5
11DA
330
17
100
AcDbEntity
8
CUT
100
AcDbVertex
100
AcDb2dVertex
10
16.720687
20
-82.176909
30
0
70
0
0
VERTEX
5
11DB
330
17
100
AcDbEntity
8
CUT
100
AcDbVertex
100
AcDb2dVertex
10
18.818554
20
-83.117858
30
0
70
0
0
VERTEX
5
11DC
330
17
100
AcDbEntity
8
CUT
100
AcDbVertex
100
AcDb2dVertex
10
20.838198
20
-84.216707
30
0
70
0
0
SEQEND
5
11DD
330
1180
100
AcDbEntity
8
CUT
0
POLYLINE
5
11DE
330
17
100
AcDbEntity
8
CUT
62
1
100
AcDb2dPolyline
66
1
10
0
20
0
30
0
70
1
0
VERTEX
5
11DF
330
17
100
AcDbEntity
8
CUT
100
AcDbVertex
100
AcDb2dVertex
10
-30
20
-64.266499
30
0
70
0
0
VERTEX
5
11E0
330
17
100
AcDbEntity
8
CUT
100
AcDbVertex
100
AcDb2dVertex
10
-30.075961
20
-63.398258
30
0
70
0
0
VERTEX
5
11E1
330
17
100
AcDbEntity
8
CUT
100
AcDbVertex
100
AcDb2dVertex
10
-30.301537
20
-62.556398
30
0
70
0
0
VERTEX
5
11E2
330
17
100
AcDbEntity
8
CUT
100
AcDbVertex
100
AcDb2dVertex
10
-30.669873
20
-61.766499
30
0
70
0
0
VERTEX
5
11E3
330
17
100
AcDbEntity
8
CUT
100
AcDbVertex
100
AcDb2dVertex
10
-31.169778
20
-61.052561
30
0
70
0
0
VERTEX
5
11E4
330
17
100
AcDbEntity
8
CUT
100
AcDbVertex
100
AcDb2dVertex
10
-31.786062
20
-60.436277
30
0
70
0
0
VERTEX
5
11E5
330
17
100
AcDbEntity
8
CUT
100
AcDbVertex
100
AcDb2dVertex
10
-32.5
20
-59.936372
30
0
70
0
0
VERTEX
5
11E6
330
17
100
AcDbEntity
8
CUT
100
AcDbVertex
100
AcDb2dVertex
10
-33.289899
20
-59.568036
30
0
70
0
0
VERTEX
5
11E7
330
17
100
AcDbEntity
8
CUT
100
AcDbVertex
100
AcDb2dVertex
10
-34.131759
20
-59.34246
30
0
70
0
0
VERTEX
5
11E8
330
17
100
AcDbEntity
8
CUT
100
AcDbVertex
100
AcDb2dVertex
10
-35
20
-59.266499
30
0
70
0
0
VERTEX
5
11E9
330
17
100
AcDbEntity
8
CUT
100
AcDbVertex
100
AcDb2dVertex
10
-35.868241
20
-59.34246
30
0
70
0
0
VERTEX
5
11EA
330
17
100
AcDbEntity
8
CUT
100
AcDbVertex
100
AcDb2dVertex
10
-36.710101
20
-59.568036
30
0
70
0
0
VERTEX
5
11EB
330
17
100
AcDbEntity
8
CUT
100
AcDbVertex
100
AcDb2dVertex
10
-37.5
20
-59.936372
30
0
70
0
0
VERTEX
5
11EC
330
17
100
AcDbEntity
8
CUT
100
AcDbVertex
100
AcDb2dVertex
10
-38.213938
20
-60.436277
30
0
70
0
0
VERTEX
5
11ED
330
17
100
AcDbEntity
8
CUT
100
AcDbVertex
100
AcDb2dVertex
10
-38.830222
20
-61.052561
30
0
70
0
0
VERTEX
5
11EE
330
17
100
AcDbEntity
8
CUT
100
AcDbVertex
100
AcDb2dVertex
10
-39.330127
20
-61.766499
30
0
70
0
0
VERTEX
5
11EF
330
17
100
AcDbEntity
8
CUT
100
AcDbVertex
100
AcDb2dVertex
10
-39.698463
20
-62.556398
30
0
70
0
0
VERTEX
5
11F0
330
17
100
AcDbEntity
8
CUT
100
AcDbVertex
100
AcDb2dVertex
10
-39.924039
20
-63.398258
30
0
70
0
0
VERTEX
5
11F1
330
17
100
AcDbEntity
8
CUT
100
AcDbVertex
100
AcDb2dVertex
10
-40
20
-64.266499
30
0
70
0
0
VERTEX
5
11F2
330
17
100
AcDbEntity
8
CUT
100
AcDbVertex
100
AcDb2dVertex
10
-40
20
-75.733501
30
0
70
0
0
VERTEX
5
11F3
330
17
100
AcDbEntity
8
CUT
100
AcDbVertex
100
AcDb2dVertex
10
-39.924039
20
-76.601742
30
0
70
0
0
VERTEX
5
11F4
330
17
100
AcDbEntity
8
CUT
100
AcDbVertex
100
AcDb2dVertex
10
-39.698463
20
-77.443602
30
0
70
0
0
VERTEX
5
11F5
330
17
100
AcDbEntity
8
CUT
100
AcDbVertex
100
AcDb2dVertex
10
-39.330127
20
-78.233501
30
0
70
0
0
VERTEX
5
11F6
330
17
100
AcDbEntity
8
CUT
100
AcDbVertex
100
AcDb2dVertex
10
-38.830222
20
-78.947439
30
0
70
0
0
VERTEX
5
11F7
330
17
100
AcDbEntity
8
CUT
100
AcDbVertex
100
AcDb2dVertex
10
-38.213938
20
-79.563723
30
0
70
0
0
VERTEX
5
11F8
330
17
100
AcDbEntity
8
CUT
100
AcDbVertex
100
AcDb2dVertex
10
-37.5
20
-80.063628
30
0
70
0
0
VERTEX
5
11F9
330
17
100
AcDbEntity
8
CUT
100
AcDbVertex
100
AcDb2dVertex
10
-36.710101
20
-80.431964
30
0
70
0
0
VERTEX
5
11FA
330
17
100
AcDbEntity
8
CUT
100
AcDbVertex
100
AcDb2dVertex
10
-35.868241
20
-80.65754
30
0
70
0
0
VERTEX
5
11FB
330
17
100
AcDbEntity
8
CUT
100
AcDbVertex
100
AcDb2dVertex
10
-35
20
-80.733501
30
0
70
0
0
VERTEX
5
11FC
330
17
100
AcDbEntity
8
CUT
100
AcDbVertex
100
AcDb2dVertex
10
-34.131759
20
-80.65754
30
0
70
0
0
VERTEX
5
11FD
330
17
100
AcDbEntity
8
CUT
100
AcDbVertex
100
AcDb2dVertex
10
-33.289899
20
-80.431964
30
0
70
0
0
VERTEX
5
11FE
330
17
100
AcDbEntity
8
CUT
100
AcDbVertex
100
AcDb2dVertex
10
-32.5
20
-80.063628
30
0
70
0
0
VERTEX
5
11FF
330
17
100
AcDbEntity
8
CUT
100
AcDbVertex
100
AcDb2dVertex
10
-31.786062
20
-79.563723
30
0
70
0
0
VERTEX
5
1200
330
17
100
AcDbEntity
8
CUT
100
AcDbVertex
100
AcDb2dVertex
10
-31.169778
20
-78.947439
30
0
70
0
0
VERTEX
5
1201
330
17
100
AcDbEntity
8
CUT
100
AcDbVertex
100
AcDb2dVertex
10
-30.669873
20
-78.233501
30
0
70
0
0
VERTEX
5
1202
330
17
100
AcDbEntity
8
CUT
100
AcDbVertex
100
AcDb2dVertex
10
-30.301537
20
-77.443602
30
0
70
0
0
VERTEX
5
1203
330
17
100
AcDbEntity
8
CUT
100
AcDbVertex
100
AcDb2dVertex
10
-30.075961
20
-76.601742
30
0
70
0
0
VERTEX
5
1204
330
17
100
AcDbEntity
8
CUT
100
AcDbVertex
100
AcDb2dVertex
10
-30
20
-75.733501
30
0
70
0
0
SEQEND
5
1205
330
11DE
100
AcDbEntity
8
CUT
0
POLYLINE
5
1206
330
17
100
AcDbEntity
8
CUT
62
1
100
AcDb2dPolyline
66
1
10
0
20
0
30
0
70
1
0
VERTEX
5
1207
330
17
100
AcDbEntity
8
CUT
100
AcDbVertex
100
AcDb2dVertex
10
30
20
-64.266499
30
0
70
0
0
VERTEX
5
1208
330
17
100
AcDbEntity
8
CUT
100
AcDbVertex
100
AcDb2dVertex
10
30
20
-75.733501
30
0
70
0
0
VERTEX
5
1209
330
17
100
AcDbEntity
8
CUT
100
AcDbVertex
100
AcDb2dVertex
10
30.075961
20
-76.601742
30
0
70
0
0
VERTEX
5
120A
330
17
100
AcDbEntity
8
CUT
100
AcDbVertex
100
AcDb2dVertex
10
30.301537
20
-77.443602
30
0
70
0
0
VERTEX
5
120B
330
17
100
AcDbEntity
8
CUT
100
AcDbVertex
100
AcDb2dVertex
10
30.669873
20
-78.233501
30
0
70
0
0
VERTEX
5
120C
330
17
100
AcDbEntity
8
CUT
100
AcDbVertex
100
AcDb2dVertex
10
31.169778
20
-78.947439
30
0
70
0
0
VERTEX
5
120D
330
17
100
AcDbEntity
8
CUT
100
AcDbVertex
100
AcDb2dVertex
10
31.786062
20
-79.563723
30
0
70
0
0
VERTEX
5
120E
330
17
100
AcDbEntity
8
CUT
100
AcDbVertex
100
AcDb2dVertex
10
32.5
20
-80.063628
30
0
70
0
0
VERTEX
5
120F
330
17
100
AcDbEntity
8
CUT
100
AcDbVertex
100
AcDb2dVertex
10
33.289899
20
-80.431964
30
0
70
0
0
VERTEX
5
1210
330
17
100
AcDbEntity
8
CUT
100
AcDbVertex
100
AcDb2dVertex
10
34.131759
20
-80.65754
30
0
70
0
0
VERTEX
5
1211
330
17
100
AcDbEntity
8
CUT
100
AcDbVertex
100
AcDb2dVertex
10
35
20
-80.733501
30
0
70
0
0
VERTEX
5
1212
330
17
100
AcDbEntity
8
CUT
100
AcDbVertex
100
AcDb2dVertex
10
35.868241
20
-80.65754
30
0
70
0
0
VERTEX
5
1213
330
17
100
AcDbEntity
8
CUT
100
AcDbVertex
100
AcDb2dVertex
10
36.710101
20
-80.431964
30
0
70
0
0
VERTEX
5
1214
330
17
100
AcDbEntity
8
CUT
100
AcDbVertex
100
AcDb2dVertex
10
37.5
20
-80.063628
30
0
70
0
0
VERTEX
5
1215
330
17
100
AcDbEntity
8
CUT
100
AcDbVertex
100
AcDb2dVertex
10
38.213938
20
-79.563723
30
0
70
0
0
VERTEX
5
1216
330
17
100
AcDbEntity
8
CUT
100
AcDbVertex
100
AcDb2dVertex
10
38.830222
20
-78.947439
30
0
70
0
0
VERTEX
5
1217
330
17
100
AcDbEntity
8
CUT
100
AcDbVertex
100
AcDb2dVertex
10
39.330127
20
-78.233501
30
0
70
0
0
VERTEX
5
1218
330
17
100
AcDbEntity
8
CUT
100
AcDbVertex
100
AcDb2dVertex
10
39.698463
20
-77.443602
30
0
70
0
0
VERTEX
5
1219
330
17
100
AcDbEntity
8
CUT
100
AcDbVertex
100
AcDb2dVertex
10
39.924039
20
-76.601742
30
0
70
0
0
VERTEX
5
121A
330
17
100
AcDbEntity
8
CUT
100
AcDbVertex
100
AcDb2dVertex
10
40
20
-75.733501
30
0
70
0
0
VERTEX
5
121B
330
17
100
AcDbEntity
8
CUT
100
AcDbVertex
100
AcDb2dVertex
10
40
20
-64.266499
30
0
70
0
0
VERTEX
5
121C
330
17
100
AcDbEntity
8
CUT
100
AcDbVertex
100
AcDb2dVertex
10
39.924039
20
-63.398258
30
0
70
0
0
VERTEX
5
121D
330
17
100
AcDbEntity
8
CUT
100
AcDbVertex
100
AcDb2dVertex
10
39.698463
20
-62.556398
30
0
70
0
0
VERTEX
5
121E
330
17
100
AcDbEntity
8
CUT
100
AcDbVertex
100
AcDb2dVertex
10
39.330127
20
-61.766499
30
0
70
0
0
VERTEX
5
121F
330
17
100
AcDbEntity
8
CUT
100
AcDbVertex
100
AcDb2dVertex
10
38.830222
20
-61.052561
30
0
70
0
0
VERTEX
5
1220
330
17
100
AcDbEntity
8
CUT
100
AcDbVertex
100
AcDb2dVertex
10
38.213938
20
-60.436277
30
0
70
0
0
VERTEX
5
1221
330
17
100
AcDbEntity
8
CUT
100
AcDbVertex
100
AcDb2dVertex
10
37.5
20
-59.936372
30
0
70
0
0
VERTEX
5
1222
330
17
100
AcDbEntity
8
CUT
100
AcDbVertex
100
AcDb2dVertex
10
36.710101
20
-59.568036
30
0
70
0
0
VERTEX
5
1223
330
17
100
AcDbEntity
8
CUT
100
AcDbVertex
100
AcDb2dVertex
10
35.868241
20
-59.34246
30
0
70
0
0
VERTEX
5
1224
330
17
100
AcDbEntity
8
CUT
100
AcDbVertex
100
AcDb2dVertex
10
35
20
-59.266499
30
0
70
0
0
VERTEX
5
1225
330
17
100
AcDbEntity
8
CUT
100
AcDbVertex
100
AcDb2dVertex
10
34.131759
20
-59.34246
30
0
70
0
0
VERTEX
5
1226
330
17
100
AcDbEntity
8
CUT
100
AcDbVertex
100
AcDb2dVertex
10
33.289899
20
-59.568036
30
0
70
0
0
VERTEX
5
1227
330
17
100
AcDbEntity
8
CUT
100
AcDbVertex
100
AcDb2dVertex
10
32.5
20
-59.936372
30
0
70
0
0
VERTEX
5
1228
330
17
100
AcDbEntity
8
CUT
100
AcDbVertex
100
AcDb2dVertex
10
31.786062
20
-60.436277
30
0
70
0
0
VERTEX
5
1229
330
17
100
AcDbEntity
8
CUT
100
AcDbVertex
100
AcDb2dVertex
10
31.169778
20
-61.052561
30
0
70
0
0
VERTEX
5
122A
330
17
100
AcDbEntity
8
CUT
100
AcDbVertex
100
AcDb2dVertex
10
30.669873
20
-61.766499
30
0
70
0
0
VERTEX
5
122B
330
17
100
AcDbEntity
8
CUT
100
AcDbVertex
100
AcDb2dVertex
10
30.301537
20
-62.556398
30
0
70
0
0
VERTEX
5
122C
330
17
100
AcDbEntity
8
CUT
100
AcDbVertex
100
AcDb2dVertex
10
30.075961
20
-63.398258
30
0
70
0
0
SEQEND
5
122D
330
1206
100
AcDbEntity
8
CUT
0
CIRCLE
5
122E
330
17
100
AcDbEntity
8
CUT
62
1
100
AcDbCircle
10
155
20
-50
30
0
40
1.55
0
CIRCLE
5
122F
330
17
100
AcDbEntity
8
CUT
62
1
100
AcDbCircle
10
65
20
-90
30
0
40
1.55
0
CIRCLE
5
1230
330
17
100
AcDbEntity
8
CUT
62
1
100
AcDbCircle
10
155
20
-90
30
0
40
1.55
0
CIRCLE
5
1231
330
17
100
AcDbEntity
8
CUT
62
1
100
AcDbCircle
10
155
20
-70
30
0
40
1.55
0
CIRCLE
5
1232
330
17
100
AcDbEntity
8
CUT
62
1
100
AcDbCircle
10
65
20
-70
30
0
40
1.55
0
CIRCLE
5
1233
330
17
100
AcDbEntity
8
CUT
62
1
100
AcDbCircle
10
65
20
-50
30
0
40
1.55
0
CIRCLE
5
1234
330
17
100
AcDbEntity
8
CUT
62
1
100
AcDbCircle
10
114.5
20
-70
30
0
40
1.5
0
CIRCLE
5
1235
330
17
100
AcDbEntity
8
CUT
62
1
100
AcDbCircle
10
134.5
20
-70
30
0
40
1.5
0
CIRCLE
5
1236
330
17
100
AcDbEntity
8
CUT
62
1
100
AcDbCircle
10
124.5
20
-70
30
0
40
1.5
0
CIRCLE
5
1237
330
17
100
AcDbEntity
8
CUT
62
1
100
AcDbCircle
10
105.5
20
-70
30
0
40
1.5
0
CIRCLE
5
1238
330
17
100
AcDbEntity
8
CUT
62
1
100
AcDbCircle
10
95.5
20
-70
30
0
40
1.5
0
CIRCLE
5
1239
330
17
100
AcDbEntity
8
CUT
62
1
100
AcDbCircle
10
85.5
20
-70
30
0
40
1.5
0
POLYLINE
5
123A
330
17
100
AcDbEntity
8
CUT
62
1
100
AcDb2dPolyline
66
1
10
0
20
0
30
0
70
1
0
VERTEX
5
123B
330
17
100
AcDbEntity
8
CUT
100
AcDbVertex
100
AcDb2dVertex
10
132.767755
20
-85.467002
30
0
70
0
0
VERTEX
5
123C
330
17
100
AcDbEntity
8
CUT
100
AcDbVertex
100
AcDb2dVertex
10
152.12225
20
-99.088833
30
0
70
0
0
VERTEX
5
123D
330
17
100
AcDbEntity
8
CUT
100
AcDbVertex
100
AcDb2dVertex
10
152.846488
20
-99.51247
30
0
70
0
0
VERTEX
5
123E
330
17
100
AcDbEntity
8
CUT
100
AcDbVertex
100
AcDb2dVertex
10
153.631368
20
-99.809038
30
0
70
0
0
VERTEX
5
123F
330
17
100
AcDbEntity
8
CUT
100
AcDbVertex
100
AcDb2dVertex
10
154.454788
20
-99.970185
30
0
70
0
0
VERTEX
5
1240
330
17
100
AcDbEntity
8
CUT
100
AcDbVertex
100
AcDb2dVertex
10
155.293561
20
-99.991375
30
0
70
0
0
VERTEX
5
1241
330
17
100
AcDbEntity
8
CUT
100
AcDbVertex
100
AcDb2dVertex
10
156.124067
20
-99.872009
30
0
70
0
0
VERTEX
5
1242
330
17
100
AcDbEntity
8
CUT
100
AcDbVertex
100
AcDb2dVertex
10
156.92292
20
-99.61545
30
0
70
0
0
VERTEX
5
1243
330
17
100
AcDbEntity
8
CUT
100
AcDbVertex
100
AcDb2dVertex
10
157.667624
20
-99.228922
30
0
70
0
0
VERTEX
5
1244
330
17
100
AcDbEntity
8
CUT
100
AcDbVertex
100
AcDb2dVertex
10
158.33721
20
-98.723309
30
0
70
0
0
VERTEX
5
1245
330
17
100
AcDbEntity
8
CUT
100
AcDbVertex
100
AcDb2dVertex
10
158.912821
20
-98.11285
30
0
70
0
0
VERTEX
5
1246
330
17
100
AcDbEntity
8
CUT
100
AcDbVertex
100
AcDb2dVertex
10
159.378249
20
-97.414734
30
0
70
0
0
VERTEX
5
1247
330
17
100
AcDbEntity
8
CUT
100
AcDbVertex
100
AcDb2dVertex
10
159.720387
20
-96.64862
30
0
70
0
0
VERTEX
5
1248
330
17
100
AcDbEntity
8
CUT
100
AcDbVertex
100
AcDb2dVertex
10
159.929601
20
-95.836082
30
0
70
0
0
VERTEX
5
1249
330
17
100
AcDbEntity
8
CUT
100
AcDbVertex
100
AcDb2dVertex
10
160
20
-95
30
0
70
0
0
VERTEX
5
124A
330
17
100
AcDbEntity
8
CUT
100
AcDbVertex
100
AcDb2dVertex
10
160
20
-45
30
0
70
0
0
VERTEX
5
124B
330
17
100
AcDbEntity
8
CUT
100
AcDbVertex
100
AcDb2dVertex
10
159.929601
20
-44.163918
30
0
70
0
0
VERTEX
5
124C
330
17
100
AcDbEntity
8
CUT
100
AcDbVertex
100
AcDb2dVertex
10
159.720387
20
-43.35138
30
0
70
0
0
VERTEX
5
124D
330
17
100
AcDbEntity
8
CUT
100
AcDbVertex
100
AcDb2dVertex
10
159.378249
20
-42.585266
30
0
70
0
0
VERTEX
5
124E
330
17
100
AcDbEntity
8
CUT
100
AcDbVertex
100
AcDb2dVertex
10
158.912821
20
-41.88715
30
0
70
0
0
VERTEX
5
124F
330
17
100
AcDbEntity
8
CUT
100
AcDbVertex
100
AcDb2dVertex
10
158.33721
20
-41.276691
30
0
70
0
0
VERTEX
5
1250
330
17
100
AcDbEntity
8
CUT
100
AcDbVertex
100
AcDb2dVertex
10
157.667624
20
-40.771078
30
0
70
0
0
VERTEX
5
1251
330
17
100
AcDbEntity
8
CUT
100
AcDbVertex
100
AcDb2dVertex
10
156.92292
20
-40.38455
30
0
70
0
0
VERTEX
5
1252
330
17
100
AcDbEntity
8
CUT
100
AcDbVertex
100
AcDb2dVertex
10
156.124067
20
-40.127991
30
0
70
0
0
VERTEX
5
1253
330
17
100
AcDbEntity
8
CUT
100
AcDbVertex
100
AcDb2dVertex
10
155.293561
20
-40.008625
30
0
70
0
0
VERTEX
5
1254
330
17
100
AcDbEntity
8
CUT
100
AcDbVertex
100
AcDb2dVertex
10
154.454788
20
-40.029815
30
0
70
0
0
VERTEX
5
1255
330
17
100
AcDbEntity
8
CUT
100
AcDbVertex
100
AcDb2dVertex
10
153.631368
20
-40.190962
30
0
70
0
0
VERTEX
5
1256
330
17
100
AcDbEntity
8
CUT
100
AcDbVertex
100
AcDb2dVertex
10
152.846488
20
-40.48753
30
0
70
0
0
VERTEX
5
1257
330
17
100
AcDbEntity
8
CUT
100
AcDbVertex
100
AcDb2dVertex
10
152.12225
20
-40.911167
30
0
70
0
0
VERTEX
5
1258
330
17
100
AcDbEntity
8
CUT
100
AcDbVertex
100
AcDb2dVertex
10
132.767755
20
-54.532998
30
0
70
0
0
VERTEX
5
1259
330
17
100
AcDbEntity
8
CUT
100
AcDbVertex
100
AcDb2dVertex
10
130.838198
20
-55.783293
30
0
70
0
0
VERTEX
5
125A
330
17
100
AcDbEntity
8
CUT
100
AcDbVertex
100
AcDb2dVertex
10
128.818554
20
-56.882142
30
0
70
0
0
VERTEX
5
125B
330
17
100
AcDbEntity
8
CUT
100
AcDbVertex
100
AcDb2dVertex
10
126.720687
20
-57.823091
30
0
70
0
0
VERTEX
5
125C
330
17
100
AcDbEntity
8
CUT
100
AcDbVertex
100
AcDb2dVertex
10
124.556919
20
-58.600611
30
0
70
0
0
VERTEX
5
125D
330
17
100
AcDbEntity
8
CUT
100
AcDbVertex
100
AcDb2dVertex
10
122.33996
20
-59.210138
30
0
70
0
0
VERTEX
5
125E
330
17
100
AcDbEntity
8
CUT
100
AcDbVertex
100
AcDb2dVertex
10
120.082831
20
-59.648089
30
0
70
0
0
VERTEX
5
125F
330
17
100
AcDbEntity
8
CUT
100
AcDbVertex
100
AcDb2dVertex
10
117.798791
20
-59.911893
30
0
70
0
0
VERTEX
5
1260
330
17
100
AcDbEntity
8
CUT
100
AcDbVertex
100
AcDb2dVertex
10
115.501256
20
-60
30
0
70
0
0
VERTEX
5
1261
330
17
100
AcDbEntity
8
CUT
100
AcDbVertex
100
AcDb2dVertex
10
104.498744
20
-60
30
0
70
0
0
VERTEX
5
1262
330
17
100
AcDbEntity
8
CUT
100
AcDbVertex
100
AcDb2dVertex
10
102.201209
20
-59.911893
30
0
70
0
0
VERTEX
5
1263
330
17
100
AcDbEntity
8
CUT
100
AcDbVertex
100
AcDb2dVertex
10
99.917169
20
-59.648089
30
0
70
0
0
VERTEX
5
1264
330
17
100
AcDbEntity
8
CUT
100
AcDbVertex
100
AcDb2dVertex
10
97.66004
20
-59.210138
30
0
70
0
0
VERTEX
5
1265
330
17
100
AcDbEntity
8
CUT
100
AcDbVertex
100
AcDb2dVertex
10
95.443081
20
-58.600611
30
0
70
0
0
VERTEX
5
1266
330
17
100
AcDbEntity
8
CUT
100
AcDbVertex
100
AcDb2dVertex
10
93.279313
20
-57.823091
30
0
70
0
0
VERTEX
5
1267
330
17
100
AcDbEntity
8
CUT
100
AcDbVertex
100
AcDb2dVertex
10
91.181446
20
-56.882142
30
0
70
0
0
VERTEX
5
1268
330
17
100
AcDbEntity
8
CUT
100
AcDbVertex
100
AcDb2dVertex
10
89.161802
20
-55.783293
30
0
70
0
0
VERTEX
5
1269
330
17
100
AcDbEntity
8
CUT
100
AcDbVertex
100
AcDb2dVertex
10
87.232245
20
-54.532998
30
0
70
0
0
VERTEX
5
126A
330
17
100
AcDbEntity
8
CUT
100
AcDbVertex
100
AcDb2dVertex
10
67.87775
20
-40.911167
30
0
70
0
0
VERTEX
5
126B
330
17
100
AcDbEntity
8
CUT
100
AcDbVertex
100
AcDb2dVertex
10
67.153512
20
-40.48753
30
0
70
0
0
VERTEX
5
126C
330
17
100
AcDbEntity
8
CUT
100
AcDbVertex
100
AcDb2dVertex
10
66.368632
20
-40.190962
30
0
70
0
0
VERTEX
5
126D
330
17
100
AcDbEntity
8
CUT
100
AcDbVertex
100
AcDb2dVertex
10
65.545212
20
-40.029815
30
0
70
0
0
VERTEX
5
126E
330
17
100
AcDbEntity
8
CUT
100
AcDbVertex
100
AcDb2dVertex
10
64.706439
20
-40.008625
30
0
70
0
0
VERTEX
5
126F
330
17
100
AcDbEntity
8
CUT
100
AcDbVertex
100
AcDb2dVertex
10
63.875933
20
-40.127991
30
0
70
0
0
VERTEX
5
1270
330
17
100
AcDbEntity
8
CUT
100
AcDbVertex
100
AcDb2dVertex
10
63.07708
20
-40.38455
30
0
70
0
0
VERTEX
5
1271
330
17
100
AcDbEntity
8
CUT
100
AcDbVertex
100
AcDb2dVertex
10
62.332376
20
-40.771078
30
0
70
0
0
VERTEX
5
1272
330
17
100
AcDbEntity
8
CUT
100
AcDbVertex
100
AcDb2dVertex
10
61.66279
20
-41.276691
30
0
70
0
0
VERTEX
5
1273
330
17
100
AcDbEntity
8
CUT
100
AcDbVertex
100
AcDb2dVertex
10
61.087179
20
-41.88715
30
0
70
0
0
VERTEX
5
1274
330
17
100
AcDbEntity
8
CUT
100
AcDbVertex
100
AcDb2dVertex
10
60.621751
20
-42.585266
30
0
70
0
0
VERTEX
5
1275
330
17
100
AcDbEntity
8
CUT
100
AcDbVertex
100
AcDb2dVertex
10
60.279613
20
-43.35138
30
0
70
0
0
VERTEX
5
1276
330
17
100
AcDbEntity
8
CUT
100
AcDbVertex
100
AcDb2dVertex
10
60.070399
20
-44.163918
30
0
70
0
0
VERTEX
5
1277
330
17
100
AcDbEntity
8
CUT
100
AcDbVertex
100
AcDb2dVertex
10
60
20
-45
30
0
70
0
0
VERTEX
5
1278
330
17
100
AcDbEntity
8
CUT
100
AcDbVertex
100
AcDb2dVertex
10
60
20
-95
30
0
70
0
0
VERTEX
5
1279
330
17
100
AcDbEntity
8
CUT
100
AcDbVertex
100
AcDb2dVertex
10
60.070399
20
-95.836082
30
0
70
0
0
VERTEX
5
127A
330
17
100
AcDbEntity
8
CUT
100
AcDbVertex
100
AcDb2dVertex
10
60.279613
20
-96.64862
30
0
70
0
0
VERTEX
5
127B
330
17
100
AcDbEntity
8
CUT
100
AcDbVertex
100
AcDb2dVertex
10
60.621751
20
-97.414734
30
0
70
0
0
VERTEX
5
127C
330
17
100
AcDbEntity
8
CUT
100
AcDbVertex
100
AcDb2dVertex
10
61.087179
20
-98.11285
30
0
70
0
0
VERTEX
5
127D
330
17
100
AcDbEntity
8
CUT
100
AcDbVertex
100
AcDb2dVertex
10
61.66279
20
-98.723309
30
0
70
0
0
VERTEX
5
127E
330
17
100
AcDbEntity
8
CUT
100
AcDbVertex
100
AcDb2dVertex
10
62.332376
20
-99.228922
30
0
70
0
0
VERTEX
5
127F
330
17
100
AcDbEntity
8
CUT
100
AcDbVertex
100
AcDb2dVertex
10
63.07708
20
-99.61545
30
0
70
0
0
VERTEX
5
1280
330
17
100
AcDbEntity
8
CUT
100
AcDbVertex
100
AcDb2dVertex
10
63.875933
20
-99.872009
30
0
70
0
0
VERTEX
5
1281
330
17
100
AcDbEntity
8
CUT
100
AcDbVertex
100
AcDb2dVertex
10
64.706439
20
-99.991375
30
0
70
0
0
VERTEX
5
1282
330
17
100
AcDbEntity
8
CUT
100
AcDbVertex
100
AcDb2dVertex
10
65.545212
20
-99.970185
30
0
70
0
0
VERTEX
5
1283
330
17
100
AcDbEntity
8
CUT
100
AcDbVertex
100
AcDb2dVertex
10
66.368632
20
-99.809038
30
0
70
0
0
VERTEX
5
1284
330
17
100
AcDbEntity
8
CUT
100
AcDbVertex
100
AcDb2dVertex
10
67.153512
20
-99.51247
30
0
70
0
0
VERTEX
5
1285
330
17
100
AcDbEntity
8
CUT
100
AcDbVertex
100
AcDb2dVertex
10
67.87775
20
-99.088833
30
0
70
0
0
VERTEX
5
1286
330
17
100
AcDbEntity
8
CUT
100
AcDbVertex
100
AcDb2dVertex
10
87.232245
20
-85.467002
30
0
70
0
0
VERTEX
5
1287
330
17
100
AcDbEntity
8
CUT
100
AcDbVertex
100
AcDb2dVertex
10
89.161802
20
-84.216707
30
0
70
0
0
VERTEX
5
1288
330
17
100
AcDbEntity
8
CUT
100
AcDbVertex
100
AcDb2dVertex
10
91.181446
20
-83.117858
30
0
70
0
0
VERTEX
5
1289
330
17
100
AcDbEntity
8
CUT
100
AcDbVertex
100
AcDb2dVertex
10
93.279313
20
-82.176909
30
0
70
0
0
VERTEX
5
128A
330
17
100
AcDbEntity
8
CUT
100
AcDbVertex
100
AcDb2dVertex
10
95.443081
20
-81.399389
30
0
70
0
0
VERTEX
5
128B
330
17
100
AcDbEntity
8
CUT
100
AcDbVertex
100
AcDb2dVertex
10
97.66004
20
-80.789862
30
0
70
0
0
VERTEX
5
128C
330
17
100
AcDbEntity
8
CUT
100
AcDbVertex
100
AcDb2dVertex
10
99.917169
20
-80.351911
30
0
70
0
0
VERTEX
5
128D
330
17
100
AcDbEntity
8
CUT
100
AcDbVertex
100
AcDb2dVertex
10
102.201209
20
-80.088107
30
0
70
0
0
VERTEX
5
128E
330
17
100
AcDbEntity
8
CUT
100
AcDbVertex
100
AcDb2dVertex
10
104.498744
20
-80
30
0
70
0
0
VERTEX
5
128F
330
17
100
AcDbEntity
8
CUT
100
AcDbVertex
100
AcDb2dVertex
10
115.501256
20
-80
30
0
70
0
0
VERTEX
5
1290
330
17
100
AcDbEntity
8
CUT
100
AcDbVertex
100
AcDb2dVertex
10
117.798791
20
-80.088107
30
0
70
0
0
VERTEX
5
1291
330
17
100
AcDbEntity
8
CUT
100
AcDbVertex
100
AcDb2dVertex
10
120.082831
20
-80.351911
30
0
70
0
0
VERTEX
5
1292
330
17
100
AcDbEntity
8
CUT
100
AcDbVertex
100
AcDb2dVertex
10
122.33996
20
-80.789862
30
0
70
0
0
VERTEX
5
1293
330
17
100
AcDbEntity
8
CUT
100
AcDbVertex
100
AcDb2dVertex
10
124.556919
20
-81.399389
30
0
70
0
0
VERTEX
5
1294
330
17
100
AcDbEntity
8
CUT
100
AcDbVertex
100
AcDb2dVertex
10
126.720687
20
-82.176909
30
0
70
0
0
VERTEX
5
1295
330
17
100
AcDbEntity
8
CUT
100
AcDbVertex
100
AcDb2dVertex
10
128.818554
20
-83.117858
30
0
70
0
0
VERTEX
5
1296
330
17
100
AcDbEntity
8
CUT
100
AcDbVertex
100
AcDb2dVertex
10
130.838198
20
-84.216707
30
0
70
0
0
SEQEND
5
1297
330
123A
100
AcDbEntity
8
CUT
0
POLYLINE
5
1298
330
17
100
AcDbEntity
8
CUT
62
1
100
AcDb2dPolyline
66
1
10
0
20
0
30
0
70
1
0
VERTEX
5
1299
330
17
100
AcDbEntity
8
CUT
100
AcDbVertex
100
AcDb2dVertex
10
80
20
-64.266499
30
0
70
0
0
VERTEX
5
129A
330
17
100
AcDbEntity
8
CUT
100
AcDbVertex
100
AcDb2dVertex
10
79.924039
20
-63.398258
30
0
70
0
0
VERTEX
5
129B
330
17
100
AcDbEntity
8
CUT
100
AcDbVertex
100
AcDb2dVertex
10
79.698463
20
-62.556398
30
0
70
0
0
VERTEX
5
129C
330
17
100
AcDbEntity
8
CUT
100
AcDbVertex
100
AcDb2dVertex
10
79.330127
20
-61.766499
30
0
70
0
0
VERTEX
5
129D
330
17
100
AcDbEntity
8
CUT
100
AcDbVertex
100
AcDb2dVertex
10
78.830222
20
-61.052561
30
0
70
0
0
VERTEX
5
129E
330
17
100
AcDbEntity
8
CUT
100
AcDbVertex
100
AcDb2dVertex
10
78.213938
20
-60.436277
30
0
70
0
0
VERTEX
5
129F
330
17
100
AcDbEntity
8
CUT
100
AcDbVertex
100
AcDb2dVertex
10
77.5
20
-59.936372
30
0
70
0
0
VERTEX
5
12A0
330
17
100
AcDbEntity
8
CUT
100
AcDbVertex
100
AcDb2dVertex
10
76.710101
20
-59.568036
30
0
70
0
0
VERTEX
5
12A1
330
17
100
AcDbEntity
8
CUT
100
AcDbVertex
100
AcDb2dVertex
10
75.868241
20
-59.34246
30
0
70
0
0
VERTEX
5
12A2
330
17
100
AcDbEntity
8
CUT
100
AcDbVertex
100
AcDb2dVertex
10
75
20
-59.266499
30
0
70
0
0
VERTEX
5
12A3
330
17
100
AcDbEntity
8
CUT
100
AcDbVertex
100
AcDb2dVertex
10
74.131759
20
-59.34246
30
0
70
0
0
VERTEX
5
12A4
330
17
100
AcDbEntity
8
CUT
100
AcDbVertex
100
AcDb2dVertex
10
73.289899
20
-59.568036
30
0
70
0
0
VERTEX
5
12A5
330
17
100
AcDbEntity
8
CUT
100
AcDbVertex
100
AcDb2dVertex
10
72.5
20
-59.936372
30
0
70
0
0
VERTEX
5
12A6
330
17
100
AcDbEntity
8
CUT
100
AcDbVertex
100
AcDb2dVertex
10
71.786062
20
-60.436277
30
0
70
0
0
VERTEX
5
12A7
330
17
100
AcDbEntity
8
CUT
100
AcDbVertex
100
AcDb2dVertex
10
71.169778
20
-61.052561
30
0
70
0
0
VERTEX
5
12A8
330
17
100
AcDbEntity
8
CUT
100
AcDbVertex
100
AcDb2dVertex
10
70.669873
20
-61.766499
30
0
70
0
0
VERTEX
5
12A9
330
17
100
AcDbEntity
8
CUT
100
AcDbVertex
100
AcDb2dVertex
10
70.301537
20
-62.556398
30
0
70
0
0
VERTEX
5
12AA
330
17
100
AcDbEntity
8
CUT
100
AcDbVertex
100
AcDb2dVertex
10
70.075961
20
-63.398258
30
0
70
0
0
VERTEX
5
12AB
330
17
100
AcDbEntity
8
CUT
100
AcDbVertex
100
AcDb2dVertex
10
70
20
-64.266499
30
0
70
0
0
VERTEX
5
12AC
330
17
100
AcDbEntity
8
CUT
100
AcDbVertex
100
AcDb2dVertex
10
70
20
-75.733501
30
0
70
0
0
VERTEX
5
12AD
330
17
100
AcDbEntity
8
CUT
100
AcDbVertex
100
AcDb2dVertex
10
70.075961
20
-76.601742
30
0
70
0
0
VERTEX
5
12AE
330
17
100
AcDbEntity
8
CUT
100
AcDbVertex
100
AcDb2dVertex
10
70.301537
20
-77.443602
30
0
70
0
0
VERTEX
5
12AF
330
17
100
AcDbEntity
8
CUT
100
AcDbVertex
100
AcDb2dVertex
10
70.669873
20
-78.233501
30
0
70
0
0
VERTEX
5
12B0
330
17
100
AcDbEntity
8
CUT
100
AcDbVertex
100
AcDb2dVertex
10
71.169778
20
-78.947439
30
0
70
0
0
VERTEX
5
12B1
330
17
100
AcDbEntity
8
CUT
100
AcDbVertex
100
AcDb2dVertex
10
71.786062
20
-79.563723
30
0
70
0
0
VERTEX
5
12B2
330
17
100
AcDbEntity
8
CUT
100
AcDbVertex
100
AcDb2dVertex
10
72.5
20
-80.063628
30
0
70
0
0
VERTEX
5
12B3
330
17
100
AcDbEntity
8
CUT
100
AcDbVertex
100
AcDb2dVertex
10
73.289899
20
-80.431964
30
0
70
0
0
VERTEX
5
12B4
330
17
100
AcDbEntity
8
CUT
100
AcDbVertex
100
AcDb2dVertex
10
74.131759
20
-80.65754
30
0
70
0
0
VERTEX
5
12B5
330
17
100
AcDbEntity
8
CUT
100
AcDbVertex
100
AcDb2dVertex
10
75
20
-80.733501
30
0
70
0
0
VERTEX
5
12B6
330
17
100
AcDbEntity
8
CUT
100
AcDbVertex
100
AcDb2dVertex
10
75.868241
20
-80.65754
30
0
70
0
0
VERTEX
5
12B7
330
17
100
AcDbEntity
8
CUT
100
AcDbVertex
100
AcDb2dVertex
10
76.710101
20
-80.431964
30
0
70
0
0
VERTEX
5
12B8
330
17
100
AcDbEntity
8
CUT
100
AcDbVertex
100
AcDb2dVertex
10
77.5
20
-80.063628
30
0
70
0
0
VERTEX
5
12B9
330
17
100
AcDbEntity
8
CUT
100
AcDbVertex
100
AcDb2dVertex
10
78.213938
20
-79.563723
30
0
70
0
0
VERTEX
5
12BA
330
17
100
AcDbEntity
8
CUT
100
AcDbVertex
100
AcDb2dVertex
10
78.830222
20
-78.947439
30
0
70
0
0
VERTEX
5
12BB
330
17
100
AcDbEntity
8
CUT
100
AcDbVertex
100
AcDb2dVertex
10
79.330127
20
-78.233501
30
0
70
0
0
VERTEX
5
12BC
330
17
100
AcDbEntity
8
CUT
100
AcDbVertex
100
AcDb2dVertex
10
79.698463
20
-77.443602
30
0
70
0
0
VERTEX
5
12BD
330
17
100
AcDbEntity
8
CUT
100
AcDbVertex
100
AcDb2dVertex
10
79.924039
20
-76.601742
30
0
70
0
0
VERTEX
5
12BE
330
17
100
AcDbEntity
8
CUT
100
AcDbVertex
100
AcDb2dVertex
10
80
20
-75.733501
30
0
70
0
0
SEQEND
5
12BF
330
1298
100
AcDbEntity
8
CUT
0
POLYLINE
5
12C0
330
17
100
AcDbEntity
8
CUT
62
1
100
AcDb2dPolyline
66
1
10
0
20
0
30
0
70
1
0
VERTEX
5
12C1
330
17
100
AcDbEntity
8
CUT
100
AcDbVertex
100
AcDb2dVertex
10
140
20
-64.266499
30
0
70
0
0
VERTEX
5
12C2
330
17
100
AcDbEntity
8
CUT
100
AcDbVertex
100
AcDb2dVertex
10
140
20
-75.733501
30
0
70
0
0
VERTEX
5
12C3
330
17
100
AcDbEntity
8
CUT
100
AcDbVertex
100
AcDb2dVertex
10
140.075961
20
-76.601742
30
0
70
0
0
VERTEX
5
12C4
330
17
100
AcDbEntity
8
CUT
100
AcDbVertex
100
AcDb2dVertex
10
140.301537
20
-77.443602
30
0
70
0
0
VERTEX
5
12C5
330
17
100
AcDbEntity
8
CUT
100
AcDbVertex
100
AcDb2dVertex
10
140.669873
20
-78.233501
30
0
70
0
0
VERTEX
5
12C6
330
17
100
AcDbEntity
8
CUT
100
AcDbVertex
100
AcDb2dVertex
10
141.169778
20
-78.947439
30
0
70
0
0
VERTEX
5
12C7
330
17
100
AcDbEntity
8
CUT
100
AcDbVertex
100
AcDb2dVertex
10
141.786062
20
-79.563723
30
0
70
0
0
VERTEX
5
12C8
330
17
100
AcDbEntity
8
CUT
100
AcDbVertex
100
AcDb2dVertex
10
142.5
20
-80.063628
30
0
70
0
0
VERTEX
5
12C9
330
17
100
AcDbEntity
8
CUT
100
AcDbVertex
100
AcDb2dVertex
10
143.289899
20
-80.431964
30
0
70
0
0
VERTEX
5
12CA
330
17
100
AcDbEntity
8
CUT
100
AcDbVertex
100
AcDb2dVertex
10
144.131759
20
-80.65754
30
0
70
0
0
VERTEX
5
12CB
330
17
100
AcDbEntity
8
CUT
100
AcDbVertex
100
AcDb2dVertex
10
145
20
-80.733501
30
0
70
0
0
VERTEX
5
12CC
330
17
100
AcDbEntity
8
CUT
100
AcDbVertex
100
AcDb2dVertex
10
145.868241
20
-80.65754
30
0
70
0
0
VERTEX
5
12CD
330
17
100
AcDbEntity
8
CUT
100
AcDbVertex
100
AcDb2dVertex
10
146.710101
20
-80.431964
30
0
70
0
0
VERTEX
5
12CE
330
17
100
AcDbEntity
8
CUT
100
AcDbVertex
100
AcDb2dVertex
10
147.5
20
-80.063628
30
0
70
0
0
VERTEX
5
12CF
330
17
100
AcDbEntity
8
CUT
100
AcDbVertex
100
AcDb2dVertex
10
148.213938
20
-79.563723
30
0
70
0
0
VERTEX
5
12D0
330
17
100
AcDbEntity
8
CUT
100
AcDbVertex
100
AcDb2dVertex
10
148.830222
20
-78.947439
30
0
70
0
0
VERTEX
5
12D1
330
17
100
AcDbEntity
8
CUT
100
AcDbVertex
100
AcDb2dVertex
10
149.330127
20
-78.233501
30
0
70
0
0
VERTEX
5
12D2
330
17
100
AcDbEntity
8
CUT
100
AcDbVertex
100
AcDb2dVertex
10
149.698463
20
-77.443602
30
0
70
0
0
VERTEX
5
12D3
330
17
100
AcDbEntity
8
CUT
100
AcDbVertex
100
AcDb2dVertex
10
149.924039
20
-76.601742
30
0
70
0
0
VERTEX
5
12D4
330
17
100
AcDbEntity
8
CUT
100
AcDbVertex
100
AcDb2dVertex
10
150
20
-75.733501
30
0
70
0
0
VERTEX
5
12D5
330
17
100
AcDbEntity
8
CUT
100
AcDbVertex
100
AcDb2dVertex
10
150
20
-64.266499
30
0
70
0
0
VERTEX
5
12D6
330
17
100
AcDbEntity
8
CUT
100
AcDbVertex
100
AcDb2dVertex
10
149.924039
20
-63.398258
30
0
70
0
0
VERTEX
5
12D7
330
17
100
AcDbEntity
8
CUT
100
AcDbVertex
100
AcDb2dVertex
10
149.698463
20
-62.556398
30
0
70
0
0
VERTEX
5
12D8
330
17
100
AcDbEntity
8
CUT
100
AcDbVertex
100
AcDb2dVertex
10
149.330127
20
-61.766499
30
0
70
0
0
VERTEX
5
12D9
330
17
100
AcDbEntity
8
CUT
100
AcDbVertex
100
AcDb2dVertex
10
148.830222
20
-61.052561
30
0
70
0
0
VERTEX
5
12DA
330
17
100
AcDbEntity
8
CUT
100
AcDbVertex
100
AcDb2dVertex
10
148.213938
20
-60.436277
30
0
70
0
0
VERTEX
5
12DB
330
17
100
AcDbEntity
8
CUT
100
AcDbVertex
100
AcDb2dVertex
10
147.5
20
-59.936372
30
0
70
0
0
VERTEX
5
12DC
330
17
100
AcDbEntity
8
CUT
100
AcDbVertex
100
AcDb2dVertex
10
146.710101
20
-59.568036
30
0
70
0
0
VERTEX
5
12DD
330
17
100
AcDbEntity
8
CUT
100
AcDbVertex
100
AcDb2dVertex
10
145.868241
20
-59.34246
30
0
70
0
0
VERTEX
5
12DE
330
17
100
AcDbEntity
8
CUT
100
AcDbVertex
100
AcDb2dVertex
10
145
20
-59.266499
30
0
70
0
0
VERTEX
5
12DF
330
17
100
AcDbEntity
8
CUT
100
AcDbVertex
100
AcDb2dVertex
10
144.131759
20
-59.34246
30
0
70
0
0
VERTEX
5
12E0
330
17
100
AcDbEntity
8
CUT
100
AcDbVertex
100
AcDb2dVertex
10
143.289899
20
-59.568036
30
0
70
0
0
VERTEX
5
12E1
330
17
100
AcDbEntity
8
CUT
100
AcDbVertex
100
AcDb2dVertex
10
142.5
20
-59.936372
30
0
70
0
0
VERTEX
5
12E2
330
17
100
AcDbEntity
8
CUT
100
AcDbVertex
100
AcDb2dVertex
10
141.786062
20
-60.436277
30
0
70
0
0
VERTEX
5
12E3
330
17
100
AcDbEntity
8
CUT
100
AcDbVertex
100
AcDb2dVertex
10
141.169778
20
-61.052561
30
0
70
0
0
VERTEX
5
12E4
330
17
100
AcDbEntity
8
CUT
100
AcDbVertex
100
AcDb2dVertex
10
140.669873
20
-61.766499
30
0
70
0
0
VERTEX
5
12E5
330
17
100
AcDbEntity
8
CUT
100
AcDbVertex
100
AcDb2dVertex
10
140.301537
20
-62.556398
30
0
70
0
0
VERTEX
5
12E6
330
17
100
AcDbEntity
8
CUT
100
AcDbVertex
100
AcDb2dVertex
10
140.075961
20
-63.398258
30
0
70
0
0
SEQEND
5
12E7
330
12C0
100
AcDbEntity
8
CUT
0
CIRCLE
5
12E8
330
17
100
AcDbEntity
8
CUT
62
1
100
AcDbCircle
10
265
20
20
30
0
40
1.55
0
CIRCLE
5
12E9
330
17
100
AcDbEntity
8
CUT
62
1
100
AcDbCircle
10
175
20
-20
30
0
40
1.55
0
CIRCLE
5
12EA
330
17
100
AcDbEntity
8
CUT
62
1
100
AcDbCircle
10
265
20
-20
30
0
40
1.55
0
CIRCLE
5
12EB
330
17
100
AcDbEntity
8
CUT
62
1
100
AcDbCircle
10
265
20
0
30
0
40
1.55
0
CIRCLE
5
12EC
330
17
100
AcDbEntity
8
CUT
62
1
100
AcDbCircle
10
175
20
0
30
0
40
1.55
0
CIRCLE
5
12ED
330
17
100
AcDbEntity
8
CUT
62
1
100
AcDbCircle
10
175
20
20
30
0
40
1.55
0
CIRCLE
5
12EE
330
17
100
AcDbEntity
8
CUT
62
1
100
AcDbCircle
10
224.5
20
0
30
0
40
1.5
0
CIRCLE
5
12EF
330
17
100
AcDbEntity
8
CUT
62
1
100
AcDbCircle
10
244.5
20
0
30
0
40
1.5
0
CIRCLE
5
12F0
330
17
100
AcDbEntity
8
CUT
62
1
100
AcDbCircle
10
234.5
20
0
30
0
40
1.5
0
CIRCLE
5
12F1
330
17
100
AcDbEntity
8
CUT
62
1
100
AcDbCircle
10
215.5
20
0
30
0
40
1.5
0
CIRCLE
5
12F2
330
17
100
AcDbEntity
8
CUT
62
1
100
AcDbCircle
10
205.5
20
0
30
0
40
1.5
0
CIRCLE
5
12F3
330
17
100
AcDbEntity
8
CUT
62
1
100
AcDbCircle
10
195.5
20
0
30
0
40
1.5
0
POLYLINE
5
12F4
330
17
100
AcDbEntity
8
CUT
62
1
100
AcDb2dPolyline
66
1
10
0
20
0
30
0
70
1
0
VERTEX
5
12F5
330
17
100
AcDbEntity
8
CUT
100
AcDbVertex
100
AcDb2dVertex
10
242.767755
20
-15.467002
30
0
70
0
0
VERTEX
5
12F6
330
17
100
AcDbEntity
8
CUT
100
AcDbVertex
100
AcDb2dVertex
10
262.12225
20
-29.088833
30
0
70
0
0
VERTEX
5
12F7
330
17
100
AcDbEntity
8
CUT
100
AcDbVertex
100
AcDb2dVertex
10
262.846488
20
-29.51247
30
0
70
0
0
VERTEX
5
12F8
330
17
100
AcDbEntity
8
CUT
100
AcDbVertex
100
AcDb2dVertex
10
263.631368
20
-29.809038
30
0
70
0
0
VERTEX
5
12F9
330
17
100
AcDbEntity
8
CUT
100
AcDbVertex
100
AcDb2dVertex
10
264.454788
20
-29.970185
30
0
70
0
0
VERTEX
5
12FA
330
17
100
AcDbEntity
8
CUT
100
AcDbVertex
100
AcDb2dVertex
10
265.293561
20
-29.991375
30
0
70
0
0
VERTEX
5
12FB
330
17
100
AcDbEntity
8
CUT
100
AcDbVertex
100
AcDb2dVertex
10
266.124067
20
-29.872009
30
0
70
0
0
VERTEX
5
12FC
330
17
100
AcDbEntity
8
CUT
100
AcDbVertex
100
AcDb2dVertex
10
266.92292
20
-29.61545
30
0
70
0
0
VERTEX
5
12FD
330
17
100
AcDbEntity
8
CUT
100
AcDbVertex
100
AcDb2dVertex
10
267.667624
20
-29.228922
30
0
70
0
0
VERTEX
5
12FE
330
17
100
AcDbEntity
8
CUT
100
AcDbVertex
100
AcDb2dVertex
10
268.33721
20
-28.723309
30
0
70
0
0
VERTEX
5
12FF
330
17
100
AcDbEntity
8
CUT
100
AcDbVertex
100
AcDb2dVertex
10
268.912821
20
-28.11285
30
0
70
0
0
VERTEX
5
1300
330
17
100
AcDbEntity
8
CUT
100
AcDbVertex
100
AcDb2dVertex
10
269.378249
20
-27.414734
30
0
70
0
0
VERTEX
5
1301
330
17
100
AcDbEntity
8
CUT
100
AcDbVertex
100
AcDb2dVertex
10
269.720387
20
-26.64862
30
0
70
0
0
VERTEX
5
1302
330
17
100
AcDbEntity
8
CUT
100
AcDbVertex
100
AcDb2dVertex
10
269.929601
20
-25.836082
30
0
70
0
0
VERTEX
5
1303
330
17
100
AcDbEntity
8
CUT
100
AcDbVertex
100
AcDb2dVertex
10
270
20
-25
30
0
70
0
0
VERTEX
5
1304
330
17
100
AcDbEntity
8
CUT
100
AcDbVertex
100
AcDb2dVertex
10
270
20
25
30
0
70
0
0
VERTEX
5
1305
330
17
100
AcDbEntity
8
CUT
100
AcDbVertex
100
AcDb2dVertex
10
269.929601
20
25.836082
30
0
70
0
0
VERTEX
5
1306
330
17
100
AcDbEntity
8
CUT
100
AcDbVertex
100
AcDb2dVertex
10
269.720387
20
26.64862
30
0
70
0
0
VERTEX
5
1307
330
17
100
AcDbEntity
8
CUT
100
AcDbVertex
100
AcDb2dVertex
10
269.378249
20
27.414734
30
0
70
0
0
VERTEX
5
1308
330
17
100
AcDbEntity
8
CUT
100
AcDbVertex
100
AcDb2dVertex
10
268.912821
20
28.11285
30
0
70
0
0
VERTEX
5
1309
330
17
100
AcDbEntity
8
CUT
100
AcDbVertex
100
AcDb2dVertex
10
268.33721
20
28.723309
30
0
70
0
0
VERTEX
5
130A
330
17
100
AcDbEntity
8
CUT
100
AcDbVertex
100
AcDb2dVertex
10
267.667624
20
29.228922
30
0
70
0
0
VERTEX
5
130B
330
17
100
AcDbEntity
8
CUT
100
AcDbVertex
100
AcDb2dVertex
10
266.92292
20
29.61545
30
0
70
0
0
VERTEX
5
130C
330
17
100
AcDbEntity
8
CUT
100
AcDbVertex
100
AcDb2dVertex
10
266.124067
20
29.872009
30
0
70
0
0
VERTEX
5
130D
330
17
100
AcDbEntity
8
CUT
100
AcDbVertex
100
AcDb2dVertex
10
265.293561
20
29.991375
30
0
70
0
0
VERTEX
5
130E
330
17
100
AcDbEntity
8
CUT
100
AcDbVertex
100
AcDb2dVertex
10
264.454788
20
29.970185
30
0
70
0
0
VERTEX
5
130F
330
17
100
AcDbEntity
8
CUT
100
AcDbVertex
100
AcDb2dVertex
10
263.631368
20
29.809038
30
0
70
0
0
VERTEX
5
1310
330
17
100
AcDbEntity
8
CUT
100
AcDbVertex
100
AcDb2dVertex
10
262.846488
20
29.51247
30
0
70
0
0
VERTEX
5
1311
330
17
100
AcDbEntity
8
CUT
100
AcDbVertex
100
AcDb2dVertex
10
262.12225
20
29.088833
30
0
70
0
0
VERTEX
5
1312
330
17
100
AcDbEntity
8
CUT
100
AcDbVertex
100
AcDb2dVertex
10
242.767755
20
15.467002
30
0
70
0
0
VERTEX
5
1313
330
17
100
AcDbEntity
8
CUT
100
AcDbVertex
100
AcDb2dVertex
10
240.838198
20
14.216707
30
0
70
0
0
VERTEX
5
1314
330
17
100
AcDbEntity
8
CUT
100
AcDbVertex
100
AcDb2dVertex
10
238.818554
20
13.117858
30
0
70
0
0
VERTEX
5
1315
330
17
100
AcDbEntity
8
CUT
100
AcDbVertex
100
AcDb2dVertex
10
236.720687
20
12.176909
30
0
70
0
0
VERTEX
5
1316
330
17
100
AcDbEntity
8
CUT
100
AcDbVertex
100
AcDb2dVertex
10
234.556919
20
11.399389
30
0
70
0
0
VERTEX
5
1317
330
17
100
AcDbEntity
8
CUT
100
AcDbVertex
100
AcDb2dVertex
10
232.33996
20
10.789862
30
0
70
0
0
VERTEX
5
1318
330
17
100
AcDbEntity
8
CUT
100
AcDbVertex
100
AcDb2dVertex
10
230.082831
20
10.351911
30
0
70
0
0
VERTEX
5
1319
330
17
100
AcDbEntity
8
CUT
100
AcDbVertex
100
AcDb2dVertex
10
227.798791
20
10.088107
30
0
70
0
0
VERTEX
5
131A
330
17
100
AcDbEntity
8
CUT
100
AcDbVertex
100
AcDb2dVertex
10
225.501256
20
10
30
0
70
0
0
VERTEX
5
131B
330
17
100
AcDbEntity
8
CUT
100
AcDbVertex
100
AcDb2dVertex
10
214.498744
20
10
30
0
70
0
0
VERTEX
5
131C
330
17
100
AcDbEntity
8
CUT
100
AcDbVertex
100
AcDb2dVertex
10
212.201209
20
10.088107
30
0
70
0
0
VERTEX
5
131D
330
17
100
AcDbEntity
8
CUT
100
AcDbVertex
100
AcDb2dVertex
10
209.917169
20
10.351911
30
0
70
0
0
VERTEX
5
131E
330
17
100
AcDbEntity
8
CUT
100
AcDbVertex
100
AcDb2dVertex
10
207.66004
20
10.789862
30
0
70
0
0
VERTEX
5
131F
330
17
100
AcDbEntity
8
CUT
100
AcDbVertex
100
AcDb2dVertex
10
205.443081
20
11.399389
30
0
70
0
0
VERTEX
5
1320
330
17
100
AcDbEntity
8
CUT
100
AcDbVertex
100
AcDb2dVertex
10
203.279313
20
12.176909
30
0
70
0
0
VERTEX
5
1321
330
17
100
AcDbEntity
8
CUT
100
AcDbVertex
100
AcDb2dVertex
10
201.181446
20
13.117858
30
0
70
0
0
VERTEX
5
1322
330
17
100
AcDbEntity
8
CUT
100
AcDbVertex
100
AcDb2dVertex
10
199.161802
20
14.216707
30
0
70
0
0
VERTEX
5
1323
330
17
100
AcDbEntity
8
CUT
100
AcDbVertex
100
AcDb2dVertex
10
197.232245
20
15.467002
30
0
70
0
0
VERTEX
5
1324
330
17
100
AcDbEntity
8
CUT
100
AcDbVertex
100
AcDb2dVertex
10
177.87775
20
29.088833
30
0
70
0
0
VERTEX
5
1325
330
17
100
AcDbEntity
8
CUT
100
AcDbVertex
100
AcDb2dVertex
10
177.153512
20
29.51247
30
0
70
0
0
VERTEX
5
1326
330
17
100
AcDbEntity
8
CUT
100
AcDbVertex
100
AcDb2dVertex
10
176.368632
20
29.809038
30
0
70
0
0
VERTEX
5
1327
330
17
100
AcDbEntity
8
CUT
100
AcDbVertex
100
AcDb2dVertex
10
175.545212
20
29.970185
30
0
70
0
0
VERTEX
5
1328
330
17
100
AcDbEntity
8
CUT
100
AcDbVertex
100
AcDb2dVertex
10
174.706439
20
29.991375
30
0
70
0
0
VERTEX
5
1329
330
17
100
AcDbEntity
8
CUT
100
AcDbVertex
100
AcDb2dVertex
10
173.875933
20
29.872009
30
0
70
0
0
VERTEX
5
132A
330
17
100
AcDbEntity
8
CUT
100
AcDbVertex
100
AcDb2dVertex
10
173.07708
20
29.61545
30
0
70
0
0
VERTEX
5
132B
330
17
100
AcDbEntity
8
CUT
100
AcDbVertex
100
AcDb2dVertex
10
172.332376
20
29.228922
30
0
70
0
0
VERTEX
5
132C
330
17
100
AcDbEntity
8
CUT
100
AcDbVertex
100
AcDb2dVertex
10
171.66279
20
28.723309
30
0
70
0
0
VERTEX
5
132D
330
17
100
AcDbEntity
8
CUT
100
AcDbVertex
100
AcDb2dVertex
10
171.087179
20
28.11285
30
0
70
0
0
VERTEX
5
132E
330
17
100
AcDbEntity
8
CUT
100
AcDbVertex
100
AcDb2dVertex
10
170.621751
20
27.414734
30
0
70
0
0
VERTEX
5
132F
330
17
100
AcDbEntity
8
CUT
100
AcDbVertex
100
AcDb2dVertex
10
170.279613
20
26.64862
30
0
70
0
0
VERTEX
5
1330
330
17
100
AcDbEntity
8
CUT
100
AcDbVertex
100
AcDb2dVertex
10
170.070399
20
25.836082
30
0
70
0
0
VERTEX
5
1331
330
17
100
AcDbEntity
8
CUT
100
AcDbVertex
100
AcDb2dVertex
10
170
20
25
30
0
70
0
0
VERTEX
5
1332
330
17
100
AcDbEntity
8
CUT
100
AcDbVertex
100
AcDb2dVertex
10
170
20
-25
30
0
70
0
0
VERTEX
5
1333
330
17
100
AcDbEntity
8
CUT
100
AcDbVertex
100
AcDb2dVertex
10
170.070399
20
-25.836082
30
0
70
0
0
VERTEX
5
1334
330
17
100
AcDbEntity
8
CUT
100
AcDbVertex
100
AcDb2dVertex
10
170.279613
20
-26.64862
30
0
70
0
0
VERTEX
5
1335
330
17
100
AcDbEntity
8
CUT
100
AcDbVertex
100
AcDb2dVertex
10
170.621751
20
-27.414734
30
0
70
0
0
VERTEX
5
1336
330
17
100
AcDbEntity
8
CUT
100
AcDbVertex
100
AcDb2dVertex
10
171.087179
20
-28.11285
30
0
70
0
0
VERTEX
5
1337
330
17
100
AcDbEntity
8
CUT
100
AcDbVertex
100
AcDb2dVertex
10
171.66279
20
-28.723309
30
0
70
0
0
VERTEX
5
1338
330
17
100
AcDbEntity
8
CUT
100
AcDbVertex
100
AcDb2dVertex
10
172.332376
20
-29.228922
30
0
70
0
0
VERTEX
5
1339
330
17
100
AcDbEntity
8
CUT
100
AcDbVertex
100
AcDb2dVertex
10
173.07708
20
-29.61545
30
0
70
0
0
VERTEX
5
133A
330
17
100
AcDbEntity
8
CUT
100
AcDbVertex
100
AcDb2dVertex
10
173.875933
20
-29.872009
30
0
70
0
0
VERTEX
5
133B
330
17
100
AcDbEntity
8
CUT
100
AcDbVertex
100
AcDb2dVertex
10
174.706439
20
-29.991375
30
0
70
0
0
VERTEX
5
133C
330
17
100
AcDbEntity
8
CUT
100
AcDbVertex
100
AcDb2dVertex
10
175.545212
20
-29.970185
30
0
70
0
0
VERTEX
5
133D
330
17
100
AcDbEntity
8
CUT
100
AcDbVertex
100
AcDb2dVertex
10
176.368632
20
-29.809038
30
0
70
0
0
VERTEX
5
133E
330
17
100
AcDbEntity
8
CUT
100
AcDbVertex
100
AcDb2dVertex
10
177.153512
20
-29.51247
30
0
70
0
0
VERTEX
5
133F
330
17
100
AcDbEntity
8
CUT
100
AcDbVertex
100
AcDb2dVertex
10
177.87775
20
-29.088833
30
0
70
0
0
VERTEX
5
1340
330
17
100
AcDbEntity
8
CUT
100
AcDbVertex
100
AcDb2dVertex
10
197.232245
20
-15.467002
30
0
70
0
0
VERTEX
5
1341
330
17
100
AcDbEntity
8
CUT
100
AcDbVertex
100
AcDb2dVertex
10
199.161802
20
-14.216707
30
0
70
0
0
VERTEX
5
1342
330
17
100
AcDbEntity
8
CUT
100
AcDbVertex
100
AcDb2dVertex
10
201.181446
20
-13.117858
30
0
70
0
0
VERTEX
5
1343
330
17
100
AcDbEntity
8
CUT
100
AcDbVertex
100
AcDb2dVertex
10
203.279313
20
-12.176909
30
0
70
0
0
VERTEX
5
1344
330
17
100
AcDbEntity
8
CUT
100
AcDbVertex
100
AcDb2dVertex
10
205.443081
20
-11.399389
30
0
70
0
0
VERTEX
5
1345
330
17
100
AcDbEntity
8
CUT
100
AcDbVertex
100
AcDb2dVertex
10
207.66004
20
-10.789862
30
0
70
0
0
VERTEX
5
1346
330
17
100
AcDbEntity
8
CUT
100
AcDbVertex
100
AcDb2dVertex
10
209.917169
20
-10.351911
30
0
70
0
0
VERTEX
5
1347
330
17
100
AcDbEntity
8
CUT
100
AcDbVertex
100
AcDb2dVertex
10
212.201209
20
-10.088107
30
0
70
0
0
VERTEX
5
1348
330
17
100
AcDbEntity
8
CUT
100
AcDbVertex
100
AcDb2dVertex
10
214.498744
20
-10
30
0
70
0
0
VERTEX
5
1349
330
17
100
AcDbEntity
8
CUT
100
AcDbVertex
100
AcDb2dVertex
10
225.501256
20
-10
30
0
70
0
0
VERTEX
5
134A
330
17
100
AcDbEntity
8
CUT
100
AcDbVertex
100
AcDb2dVertex
10
227.798791
20
-10.088107
30
0
70
0
0
VERTEX
5
134B
330
17
100
AcDbEntity
8
CUT
100
AcDbVertex
100
AcDb2dVertex
10
230.082831
20
-10.351911
30
0
70
0
0
VERTEX
5
134C
330
17
100
AcDbEntity
8
CUT
100
AcDbVertex
100
AcDb2dVertex
10
232.33996
20
-10.789862
30
0
70
0
0
VERTEX
5
134D
330
17
100
AcDbEntity
8
CUT
100
AcDbVertex
100
AcDb2dVertex
10
234.556919
20
-11.399389
30
0
70
0
0
VERTEX
5
134E
330
17
100
AcDbEntity
8
CUT
100
AcDbVertex
100
AcDb2dVertex
10
236.720687
20
-12.176909
30
0
70
0
0
VERTEX
5
134F
330
17
100
AcDbEntity
8
CUT
100
AcDbVertex
100
AcDb2dVertex
10
238.818554
20
-13.117858
30
0
70
0
0
VERTEX
5
1350
330
17
100
AcDbEntity
8
CUT
100
AcDbVertex
100
AcDb2dVertex
10
240.838198
20
-14.216707
30
0
70
0
0
SEQEND
5
1351
330
12F4
100
AcDbEntity
8
CUT
0
POLYLINE
5
1352
330
17
100
AcDbEntity
8
CUT
62
1
100
AcDb2dPolyline
66
1
10
0
20
0
30
0
70
1
0
VERTEX
5
1353
330
17
100
AcDbEntity
8
CUT
100
AcDbVertex
100
AcDb2dVertex
10
190
20
5.733501
30
0
70
0
0
VERTEX
5
1354
330
17
100
AcDbEntity
8
CUT
100
AcDbVertex
100
AcDb2dVertex
10
189.924039
20
6.601742
30
0
70
0
0
VERTEX
5
1355
330
17
100
AcDbEntity
8
CUT
100
AcDbVertex
100
AcDb2dVertex
10
189.698463
20
7.443602
30
0
70
0
0
VERTEX
5
1356
330
17
100
AcDbEntity
8
CUT
100
AcDbVertex
100
AcDb2dVertex
10
189.330127
20
8.233501
30
0
70
0
0
VERTEX
5
1357
330
17
100
AcDbEntity
8
CUT
100
AcDbVertex
100
AcDb2dVertex
10
188.830222
20
8.947439
30
0
70
0
0
VERTEX
5
1358
330
17
100
AcDbEntity
8
CUT
100
AcDbVertex
100
AcDb2dVertex
10
188.213938
20
9.563723
30
0
70
0
0
VERTEX
5
1359
330
17
100
AcDbEntity
8
CUT
100
AcDbVertex
100
AcDb2dVertex
10
187.5
20
10.063628
30
0
70
0
0
VERTEX
5
135A
330
17
100
AcDbEntity
8
CUT
100
AcDbVertex
100
AcDb2dVertex
10
186.710101
20
10.431964
30
0
70
0
0
VERTEX
5
135B
330
17
100
AcDbEntity
8
CUT
100
AcDbVertex
100
AcDb2dVertex
10
185.868241
20
10.65754
30
0
70
0
0
VERTEX
5
135C
330
17
100
AcDbEntity
8
CUT
100
AcDbVertex
100
AcDb2dVertex
10
185
20
10.733501
30
0
70
0
0
VERTEX
5
135D
330
17
100
AcDbEntity
8
CUT
100
AcDbVertex
100
AcDb2dVertex
10
184.131759
20
10.65754
30
0
70
0
0
VERTEX
5
135E
330
17
100
AcDbEntity
8
CUT
100
AcDbVertex
100
AcDb2dVertex
10
183.289899
20
10.431964
30
0
70
0
0
VERTEX
5
135F
330
17
100
AcDbEntity
8
CUT
100
AcDbVertex
100
AcDb2dVertex
10
182.5
20
10.063628
30
0
70
0
0
VERTEX
5
1360
330
17
100
AcDbEntity
8
CUT
100
AcDbVertex
100
AcDb2dVertex
10
181.786062
20
9.563723
30
0
70
0
0
VERTEX
5
1361
330
17
100
AcDbEntity
8
CUT
100
AcDbVertex
100
AcDb2dVertex
10
181.169778
20
8.947439
30
0
70
0
0
VERTEX
5
1362
330
17
100
AcDbEntity
8
CUT
100
AcDbVertex
100
AcDb2dVertex
10
180.669873
20
8.233501
30
0
70
0
0
VERTEX
5
1363
330
17
100
AcDbEntity
8
CUT
100
AcDbVertex
100
AcDb2dVertex
10
180.301537
20
7.443602
30
0
70
0
0
VERTEX
5
1364
330
17
100
AcDbEntity
8
CUT
100
AcDbVertex
100
AcDb2dVertex
10
180.075961
20
6.601742
30
0
70
0
0
VERTEX
5
1365
330
17
100
AcDbEntity
8
CUT
100
AcDbVertex
100
AcDb2dVertex
10
180
20
5.733501
30
0
70
0
0
VERTEX
5
1366
330
17
100
AcDbEntity
8
CUT
100
AcDbVertex
100
AcDb2dVertex
10
180
20
-5.733501
30
0
70
0
0
VERTEX
5
1367
330
17
100
AcDbEntity
8
CUT
100
AcDbVertex
100
AcDb2dVertex
10
180.075961
20
-6.601742
30
0
70
0
0
VERTEX
5
1368
330
17
100
AcDbEntity
8
CUT
100
AcDbVertex
100
AcDb2dVertex
10
180.301537
20
-7.443602
30
0
70
0
0
VERTEX
5
1369
330
17
100
AcDbEntity
8
CUT
100
AcDbVertex
100
AcDb2dVertex
10
180.669873
20
-8.233501
30
0
70
0
0
VERTEX
5
136A
330
17
100
AcDbEntity
8
CUT
100
AcDbVertex
100
AcDb2dVertex
10
181.169778
20
-8.947439
30
0
70
0
0
VERTEX
5
136B
330
17
100
AcDbEntity
8
CUT
100
AcDbVertex
100
AcDb2dVertex
10
181.786062
20
-9.563723
30
0
70
0
0
VERTEX
5
136C
330
17
100
AcDbEntity
8
CUT
100
AcDbVertex
100
AcDb2dVertex
10
182.5
20
-10.063628
30
0
70
0
0
VERTEX
5
136D
330
17
100
AcDbEntity
8
CUT
100
AcDbVertex
100
AcDb2dVertex
10
183.289899
20
-10.431964
30
0
70
0
0
VERTEX
5
136E
330
17
100
AcDbEntity
8
CUT
100
AcDbVertex
100
AcDb2dVertex
10
184.131759
20
-10.65754
30
0
70
0
0
VERTEX
5
136F
330
17
100
AcDbEntity
8
CUT
100
AcDbVertex
100
AcDb2dVertex
10
185
20
-10.733501
30
0
70
0
0
VERTEX
5
1370
330
17
100
AcDbEntity
8
CUT
100
AcDbVertex
100
AcDb2dVertex
10
185.868241
20
-10.65754
30
0
70
0
0
VERTEX
5
1371
330
17
100
AcDbEntity
8
CUT
100
AcDbVertex
100
AcDb2dVertex
10
186.710101
20
-10.431964
30
0
70
0
0
VERTEX
5
1372
330
17
100
AcDbEntity
8
CUT
100
AcDbVertex
100
AcDb2dVertex
10
187.5
20
-10.063628
30
0
70
0
0
VERTEX
5
1373
330
17
100
AcDbEntity
8
CUT
100
AcDbVertex
100
AcDb2dVertex
10
188.213938
20
-9.563723
30
0
70
0
0
VERTEX
5
1374
330
17
100
AcDbEntity
8
CUT
100
AcDbVertex
100
AcDb2dVertex
10
188.830222
20
-8.947439
30
0
70
0
0
VERTEX
5
1375
330
17
100
AcDbEntity
8
CUT
100
AcDbVertex
100
AcDb2dVertex
10
189.330127
20
-8.233501
30
0
70
0
0
VERTEX
5
1376
330
17
100
AcDbEntity
8
CUT
100
AcDbVertex
100
AcDb2dVertex
10
189.698463
20
-7.443602
30
0
70
0
0
VERTEX
5
1377
330
17
100
AcDbEntity
8
CUT
100
AcDbVertex
100
AcDb2dVertex
10
189.924039
20
-6.601742
30
0
70
0
0
VERTEX
5
1378
330
17
100
AcDbEntity
8
CUT
100
AcDbVertex
100
AcDb2dVertex
10
190
20
-5.733501
30
0
70
0
0
SEQEND
5
1379
330
1352
100
AcDbEntity
8
CUT
0
POLYLINE
5
137A
330
17
100
AcDbEntity
8
CUT
62
1
100
AcDb2dPolyline
66
1
10
0
20
0
30
0
70
1
0
VERTEX
5
137B
330
17
100
AcDbEntity
8
CUT
100
AcDbVertex
100
AcDb2dVertex
10
250
20
5.733501
30
0
70
0
0
VERTEX
5
137C
330
17
100
AcDbEntity
8
CUT
100
AcDbVertex
100
AcDb2dVertex
10
250
20
-5.733501
30
0
70
0
0
VERTEX
5
137D
330
17
100
AcDbEntity
8
CUT
100
AcDbVertex
100
AcDb2dVertex
10
250.075961
20
-6.601742
30
0
70
0
0
VERTEX
5
137E
330
17
100
AcDbEntity
8
CUT
100
AcDbVertex
100
AcDb2dVertex
10
250.301537
20
-7.443602
30
0
70
0
0
VERTEX
5
137F
330
17
100
AcDbEntity
8
CUT
100
AcDbVertex
100
AcDb2dVertex
10
250.669873
20
-8.233501
30
0
70
0
0
VERTEX
5
1380
330
17
100
AcDbEntity
8
CUT
100
AcDbVertex
100
AcDb2dVertex
10
251.169778
20
-8.947439
30
0
70
0
0
VERTEX
5
1381
330
17
100
AcDbEntity
8
CUT
100
AcDbVertex
100
AcDb2dVertex
10
251.786062
20
-9.563723
30
0
70
0
0
VERTEX
5
1382
330
17
100
AcDbEntity
8
CUT
100
AcDbVertex
100
AcDb2dVertex
10
252.5
20
-10.063628
30
0
70
0
0
VERTEX
5
1383
330
17
100
AcDbEntity
8
CUT
100
AcDbVertex
100
AcDb2dVertex
10
253.289899
20
-10.431964
30
0
70
0
0
VERTEX
5
1384
330
17
100
AcDbEntity
8
CUT
100
AcDbVertex
100
AcDb2dVertex
10
254.131759
20
-10.65754
30
0
70
0
0
VERTEX
5
1385
330
17
100
AcDbEntity
8
CUT
100
AcDbVertex
100
AcDb2dVertex
10
255
20
-10.733501
30
0
70
0
0
VERTEX
5
1386
330
17
100
AcDbEntity
8
CUT
100
AcDbVertex
100
AcDb2dVertex
10
255.868241
20
-10.65754
30
0
70
0
0
VERTEX
5
1387
330
17
100
AcDbEntity
8
CUT
100
AcDbVertex
100
AcDb2dVertex
10
256.710101
20
-10.431964
30
0
70
0
0
VERTEX
5
1388
330
17
100
AcDbEntity
8
CUT
100
AcDbVertex
100
AcDb2dVertex
10
257.5
20
-10.063628
30
0
70
0
0
VERTEX
5
1389
330
17
100
AcDbEntity
8
CUT
100
AcDbVertex
100
AcDb2dVertex
10
258.213938
20
-9.563723
30
0
70
0
0
VERTEX
5
138A
330
17
100
AcDbEntity
8
CUT
100
AcDbVertex
100
AcDb2dVertex
10
258.830222
20
-8.947439
30
0
70
0
0
VERTEX
5
138B
330
17
100
AcDbEntity
8
CUT
100
AcDbVertex
100
AcDb2dVertex
10
259.330127
20
-8.233501
30
0
70
0
0
VERTEX
5
138C
330
17
100
AcDbEntity
8
CUT
100
AcDbVertex
100
AcDb2dVertex
10
259.698463
20
-7.443602
30
0
70
0
0
VERTEX
5
138D
330
17
100
AcDbEntity
8
CUT
100
AcDbVertex
100
AcDb2dVertex
10
259.924039
20
-6.601742
30
0
70
0
0
VERTEX
5
138E
330
17
100
AcDbEntity
8
CUT
100
AcDbVertex
100
AcDb2dVertex
10
260
20
-5.733501
30
0
70
0
0
VERTEX
5
138F
330
17
100
AcDbEntity
8
CUT
100
AcDbVertex
100
AcDb2dVertex
10
260
20
5.733501
30
0
70
0
0
VERTEX
5
1390
330
17
100
AcDbEntity
8
CUT
100
AcDbVertex
100
AcDb2dVertex
10
259.924039
20
6.601742
30
0
70
0
0
VERTEX
5
1391
330
17
100
AcDbEntity
8
CUT
100
AcDbVertex
100
AcDb2dVertex
10
259.698463
20
7.443602
30
0
70
0
0
VERTEX
5
1392
330
17
100
AcDbEntity
8
CUT
100
AcDbVertex
100
AcDb2dVertex
10
259.330127
20
8.233501
30
0
70
0
0
VERTEX
5
1393
330
17
100
AcDbEntity
8
CUT
100
AcDbVertex
100
AcDb2dVertex
10
258.830222
20
8.947439
30
0
70
0
0
VERTEX
5
1394
330
17
100
AcDbEntity
8
CUT
100
AcDbVertex
100
AcDb2dVertex
10
258.213938
20
9.563723
30
0
70
0
0
VERTEX
5
1395
330
17
100
AcDbEntity
8
CUT
100
AcDbVertex
100
AcDb2dVertex
10
257.5
20
10.063628
30
0
70
0
0
VERTEX
5
1396
330
17
100
AcDbEntity
8
CUT
100
AcDbVertex
100
AcDb2dVertex
10
256.710101
20
10.431964
30
0
70
0
0
VERTEX
5
1397
330
17
100
AcDbEntity
8
CUT
100
AcDbVertex
100
AcDb2dVertex
10
255.868241
20
10.65754
30
0
70
0
0
VERTEX
5
1398
330
17
100
AcDbEntity
8
CUT
100
AcDbVertex
100
AcDb2dVertex
10
255
20
10.733501
30
0
70
0
0
VERTEX
5
1399
330
17
100
AcDbEntity
8
CUT
100
AcDbVertex
100
AcDb2dVertex
10
254.131759
20
10.65754
30
0
70
0
0
VERTEX
5
139A
330
17
100
AcDbEntity
8
CUT
100
AcDbVertex
100
AcDb2dVertex
10
253.289899
20
10.431964
30
0
70
0
0
VERTEX
5
139B
330
17
100
AcDbEntity
8
CUT
100
AcDbVertex
100
AcDb2dVertex
10
252.5
20
10.063628
30
0
70
0
0
VERTEX
5
139C
330
17
100
AcDbEntity
8
CUT
100
AcDbVertex
100
AcDb2dVertex
10
251.786062
20
9.563723
30
0
70
0
0
VERTEX
5
139D
330
17
100
AcDbEntity
8
CUT
100
AcDbVertex
100
AcDb2dVertex
10
251.169778
20
8.947439
30
0
70
0
0
VERTEX
5
139E
330
17
100
AcDbEntity
8
CUT
100
AcDbVertex
100
AcDb2dVertex
10
250.669873
20
8.233501
30
0
70
0
0
VERTEX
5
139F
330
17
100
AcDbEntity
8
CUT
100
AcDbVertex
100
AcDb2dVertex
10
250.301537
20
7.443602
30
0
70
0
0
VERTEX
5
13A0
330
17
100
AcDbEntity
8
CUT
100
AcDbVertex
100
AcDb2dVertex
10
250.075961
20
6.601742
30
0
70
0
0
SEQEND
5
13A1
330
137A
100
AcDbEntity
8
CUT
0
ENDSEC
0
SECTION
2
OBJECTS
0
DICTIONARY
5
A
330
0
100
AcDbDictionary
281
1
3
ACAD_COLOR
350
B
3
ACAD_GROUP
350
C
3
ACAD_LAYOUT
350
D
3
ACAD_MATERIAL
350
E
3
ACAD_MLEADERSTYLE
350
F
3
ACAD_MLINESTYLE
350
10
3
ACAD_PLOTSETTINGS
350
11
3
ACAD_PLOTSTYLENAME
350
12
3
ACAD_SCALELIST
350
14
3
ACAD_TABLESTYLE
350
15
3
ACAD_VISUALSTYLE
350
16
3
EZDXF_META
350
2D
0
DICTIONARY
5
B
330
A
100
AcDbDictionary
281
1
0
DICTIONARY
5
C
330
A
100
AcDbDictionary
281
1
0
DICTIONARY
5
D
330
A
100
AcDbDictionary
281
1
3
Model
350
1A
3
Layout1
350
1E
0
DICTIONARY
5
E
330
A
100
AcDbDictionary
281
1
3
ByBlock
350
1F
3
ByLayer
350
20
3
Global
350
21
0
DICTIONARY
5
F
330
A
100
AcDbDictionary
281
1
3
Standard
350
2C
0
DICTIONARY
5
10
330
A
100
AcDbDictionary
281
1
3
Standard
350
22
0
DICTIONARY
5
11
330
A
100
AcDbDictionary
281
1
0
ACDBDICTIONARYWDFLT
5
12
330
A
100
AcDbDictionary
281
1
3
Normal
350
13
100
AcDbDictionaryWithDefault
340
13
0
ACDBPLACEHOLDER
5
13
330
12
0
DICTIONARY
5
14
330
A
100
AcDbDictionary
281
1
0
DICTIONARY
5
15
330
A
100
AcDbDictionary
281
1
0
DICTIONARY
5
16
330
A
100
AcDbDictionary
281
1
0
LAYOUT
5
1A
330
D
100
AcDbPlotSettings
1

4
A3
6

40
7.5
41
20.0
42
7.5
43
20.0
44
420.0
45
297.0
46
0.0
47
0.0
48
0.0
49
0.0
140
0.0
141
0.0
142
1.0
143
1.0
70
1024
72
1
73
0
74
5
7

75
16
76
0
77
2
78
300
147
1.0
148
0.0
149
0.0
100
AcDbLayout
1
Model
70
1
71
0
10
0.0
20
0.0
11
420.0
21
297.0
12
0.0
22
0.0
32
0.0
14
1e+20
24
1e+20
34
1e+20
15
-1e+20
25
-1e+20
35
-1e+20
146
0.0
13
0.0
23
0.0
33
0.0
16
1.0
26
0.0
36
0.0
17
0.0
27
1.0
37
0.0
76
1
330
17
0
LAYOUT
5
1E
330
D
100
AcDbPlotSettings
1

4
A3
6

40
7.5
41
20.0
42
7.5
43
20.0
44
420.0
45
297.0
46
0.0
47
0.0
48
0.0
49
0.0
140
0.0
141
0.0
142
1.0
143
1.0
70
0
72
1
73
0
74
5
7

75
16
76
0
77
2
78
300
147
1.0
148
0.0
149
0.0
100
AcDbLayout
1
Layout1
70
1
71
1
10
0.0
20
0.0
11
420.0
21
297.0
12
0.0
22
0.0
32
0.0
14
1e+20
24
1e+20
34
1e+20
15
-1e+20
25
-1e+20
35
-1e+20
146
0.0
13
0.0
23
0.0
33
0.0
16
1.0
26
0.0
36
0.0
17
0.0
27
1.0
37
0.0
76
1
330
1B
0
MATERIAL
5
1F
102
{ACAD_REACTORS
330
E
102
}
330
E
100
AcDbMaterial
1
ByBlock
2

70
0
40
1.0
71
1
41
1.0
91
-1023410177
42
1.0
72
1
3

73
1
74
1
75
1
44
0.5
73
0
45
1.0
46
1.0
77
1
4

78
1
79
1
170
1
48
1.0
171
1
6

172
1
173
1
174
1
140
1.0
141
1.0
175
1
7

176
1
177
1
178
1
143
1.0
179
1
8

270
1
271
1
272
1
145
1.0
146
1.0
273
1
9

274
1
275
1
276
1
42
1.0
72
1
3

73
1
74
1
75
1
94
63
0
MATERIAL
5
20
102
{ACAD_REACTORS
330
E
102
}
330
E
100
AcDbMaterial
1
ByLayer
2

70
0
40
1.0
71
1
41
1.0
91
-1023410177
42
1.0
72
1
3

73
1
74
1
75
1
44
0.5
73
0
45
1.0
46
1.0
77
1
4

78
1
79
1
170
1
48
1.0
171
1
6

172
1
173
1
174
1
140
1.0
141
1.0
175
1
7

176
1
177
1
178
1
143
1.0
179
1
8

270
1
271
1
272
1
145
1.0
146
1.0
273
1
9

274
1
275
1
276
1
42
1.0
72
1
3

73
1
74
1
75
1
94
63
0
MATERIAL
5
21
102
{ACAD_REACTORS
330
E
102
}
330
E
100
AcDbMaterial
1
Global
2

70
0
40
1.0
71
1
41
1.0
91
-1023410177
42
1.0
72
1
3

73
1
74
1
75
1
44
0.5
73
0
45
1.0
46
1.0
77
1
4

78
1
79
1
170
1
48
1.0
171
1
6

172
1
173
1
174
1
140
1.0
141
1.0
175
1
7

176
1
177
1
178
1
143
1.0
179
1
8

270
1
271
1
272
1
145
1.0
146
1.0
273
1
9

274
1
275
1
276
1
42
1.0
72
1
3

73
1
74
1
75
1
94
63
0
MLINESTYLE
5
22
102
{ACAD_REACTORS
330
10
102
}
330
10
100
AcDbMlineStyle
2
Standard
70
0
3

62
256
51
90.0
52
90.0
71
2
49
0.5
62
256
6
BYLAYER
49
-0.5
62
256
6
BYLAYER
0
MLEADERSTYLE
5
2C
102
{ACAD_REACTORS
330
F
102
}
330
F
100
AcDbMLeaderStyle
179
2
170
2
171
1
172
0
90
2
40
0.0
41
0.0
173
1
91
-1056964608
92
-2
290
1
42
2.0
291
1
43
8.0
3
Standard
44
4.0
300

342
29
174
1
175
1
176
0
178
1
93
-1056964608
45
4.0
292
0
297
0
46
4.0
94
-1056964608
47
1.0
49
1.0
140
1.0
294
1
141
0.0
177
0
142
1.0
295
0
296
0
143
3.75
271
0
272
9
273
9
0
DICTIONARY
5
2D
330
A
100
AcDbDictionary
280
1
281
1
3
CREATED_BY_EZDXF
350
2E
3
WRITTEN_BY_EZDXF
350
35
0
DICTIONARYVAR
5
2E
330
2D
100
DictionaryVariables
280
0
1
0.0 @ 2000-01-01T00:00:00.000000+00:00
0
DICTIONARYVAR
5
35
330
2D
100
DictionaryVariables
280
0
1
0.0 @ 2000-01-01T00:00:00.000000+00:00
0
ENDSEC
0
EOF
