0
SECTION
2
HEADER
9
$ACADVER
1
AC1015
9
$ACADMAINTVER
70
6
9
$DWGCODEPAGE
3
ANSI_1252
9
$INSBASE
10
0.0
20
0.0
30
0.0
9
$EXTMIN
10
-50
20
-29.991375
30
0
9
$EXTMAX
10
50
20
29.991375
30
0
9
$LIMMIN
10
0.0
20
0.0
9
$LIMMAX
10
420.0
20
297.0
9
$ORTHOMODE
70
0
9
$REGENMODE
70
1
9
$FILLMODE
70
1
9
$QTEXTMODE
70
0
9
$MIRRTEXT
70
1
9
$LTSCALE
40
1.0
9
$ATTMODE
70
1
9
$TEXTSIZE
40
2.5
9
$TRACEWID
40
1.0
9
$TEXTSTYLE
7
Standard
9
$CLAYER
8
0
9
$CELTYPE
6
ByLayer
9
$CECOLOR
62
256
9
$CELTSCALE
40
1.0
9
$DISPSILH
70
0
9
$DIMSCALE
40
1.0
9
$DIMASZ
40
2.5
9
$DIMEXO
40
0.625
9
$DIMDLI
40
3.75
9
$DIMRND
40
0.0
9
$DIMDLE
40
0.0
9
$DIMEXE
40
1.25
9
$DIMTP
40
0.0
9
$DIMTM
40
0.0
9
$DIMTXT
40
2.5
9
$DIMCEN
40
2.5
9
$DIMTSZ
40
0.0
9
$DIMTOL
70
0
9
$DIMLIM
70
0
9
$DIMTIH
70
0
9
$DIMTOH
70
0
9
$DIMSE1
70
0
9
$DIMSE2
70
0
9
$DIMTAD
70
1
9
$DIMZIN
70
8
9
$DIMBLK
1

9
$DIMASO
70
1
9
$DIMSHO
70
1
9
$DIMPOST
1

9
$DIMAPOST
1

9
$DIMALT
70
0
9
$DIMALTD
70
3
9
$DIMALTF
40
0.03937007874
9
$DIMLFAC
40
1.0
9
$DIMTOFL
70
1
9
$DIMTVP
40
0.0
9
$DIMTIX
70
0
9
$DIMSOXD
70
0
9
$DIMSAH
70
0
9
$DIMBLK1
1

9
$DIMBLK2
1

9
$DIMSTYLE
2
ISO-25
9
$DIMCLRD
70
0
9
$DIMCLRE
70
0
9
$DIMCLRT
70
0
9
$DIMTFAC
40
1.0
9
$DIMGAP
40
0.625
9
$DIMJUST
70
0
9
$DIMSD1
70
0
9
$DIMSD2
70
0
9
$DIMTOLJ
70
0
9
$DIMTZIN
70
8
9
$DIMALTZ
70
0
9
$DIMALTTZ
70
0
9
$DIMUPT
70
0
9
$DIMDEC
70
2
9
$DIMTDEC
70
2
9
$DIMALTU
70
2
9
$DIMALTTD
70
3
9
$DIMTXSTY
7
Standard
9
$DIMAUNIT
70
0
9
$DIMADEC
70
0
9
$DIMALTRND
40
0.0
9
$DIMAZIN
70
0
9
$DIMDSEP
70
44
9
$DIMATFIT
70
3
9
$DIMFRAC
70
0
9
$DIMLDRBLK
1

9
$DIMLUNIT
70
2
9
$DIMLWD
70
-2
9
$DIMLWE
70
-2
9
$DIMTMOVE
70
0
9
$LUNITS
70
2
9
$LUPREC
70
6
9
$SKETCHINC
40
1.0
9
$FILLETRAD
40
10.0
9
$AUNITS
70
0
9
$AUPREC
70
2
9
$MENU
1
.
9
$ELEVATION
40
0.0
9
$PELEVATION
40
0.0
9
$THICKNESS
40
0.0
9
$LIMCHECK
70
0
9
$CHAMFERA
40
0.0
9
$CHAMFERB
40
0.0
9
$CHAMFERC
40
0.0
9
$CHAMFERD
40
0.0
9
$SKPOLY
70
0
9
$TDCREATE
40
2451545.0
9
$TDUCREATE
40
2451545.0
9
$TDUPDATE
40
2451545.0
9
$TDUUPDATE
40
2451545.0
9
$TDINDWG
40
0.0
9
$TDUSRTIMER
40
0.0
9
$USRTIMER
70
1
9
$ANGBASE
50
0.0
9
$ANGDIR
70
0
9
$PDMODE
70
0
9
$PDSIZE
40
0.0
9
$PLINEWID
40
0.0
9
$SPLFRAME
70
0
9
$SPLINETYPE
70
6
9
$SPLINESEGS
70
8
9
$HANDSEED
5
10BA
9
$SURFTAB1
70
6
9
$SURFTAB2
70
6
9
$SURFTYPE
70
6
9
$SURFU
70
6
9
$SURFV
70
6
9
$UCSBASE
2

9
$UCSNAME
2

9
$UCSORG
10
0.0
20
0.0
30
0.0
9
$UCSXDIR
10
1.0
20
0.0
30
0.0
9
$UCSYDIR
10
0.0
20
1.0
30
0.0
9
$UCSORTHOREF
2

9
$UCSORTHOVIEW
70
0
9
$UCSORGTOP
10
0.0
20
0.0
30
0.0
9
$UCSORGBOTTOM
10
0.0
20
0.0
30
0.0
9
$UCSORGLEFT
10
0.0
20
0.0
30
0.0
9
$UCSORGRIGHT
10
0.0
20
0.0
30
0.0
9
$UCSORGFRONT
10
0.0
20
0.0
30
0.0
9
$UCSORGBACK
10
0.0
20
0.0
30
0.0
9
$PUCSBASE
2

9
$PUCSNAME
2

9
$PUCSORG
10
0.0
20
0.0
30
0.0
9
$PUCSXDIR
10
1.0
20
0.0
30
0.0
9
$PUCSYDIR
10
0.0
20
1.0
30
0.0
9
$PUCSORTHOREF
2

9
$PUCSORTHOVIEW
70
0
9
$PUCSORGTOP
10
0.0
20
0.0
30
0.0
9
$PUCSORGBOTTOM
10
0.0
20
0.0
30
0.0
9
$PUCSORGLEFT
10
0.0
20
0.0
30
0.0
9
$PUCSORGRIGHT
10
0.0
20
0.0
30
0.0
9
$PUCSORGFRONT
10
0.0
20
0.0
30
0.0
9
$PUCSORGBACK
10
0.0
20
0.0
30
0.0
9
$USERI1
70
0
9
$USERI2
70
0
9
$USERI3
70
0
9
$USERI4
70
0
9
$USERI5
70
0
9
$USERR1
40
0.0
9
$USERR2
40
0.0
9
$USERR3
40
0.0
9
$USERR4
40
0.0
9
$USERR5
40
0.0
9
$WORLDVIEW
70
1
9
$SHADEDGE
70
3
9
$SHADEDIF
70
70
9
$TILEMODE
70
1
9
$MAXACTVP
70
64
9
$PINSBASE
10
0.0
20
0.0
30
0.0
9
$PLIMCHECK
70
0
9
$PEXTMIN
10
1e+20
20
1e+20
30
1e+20
9
$PEXTMAX
10
-1e+20
20
-1e+20
30
-1e+20
9
$PLIMMIN
10
0.0
20
0.0
9
$PLIMMAX
10
420.0
20
297.0
9
$UNITMODE
70
0
9
$VISRETAIN
70
1
9
$PLINEGEN
70
0
9
$PSLTSCALE
70
1
9
$TREEDEPTH
70
3020
9
$CMLSTYLE
2
Standard
9
$CMLJUST
70
0
9
$CMLSCALE
40
20.0
9
$PROXYGRAPHICS
70
1
9
$MEASUREMENT
70
1
9
$CELWEIGHT
370
-1
9
$ENDCAPS
280
0
9
$JOINSTYLE
280
0
9
$LWDISPLAY
290
0
9
$INSUNITS
70
4
9
$HYPERLINKBASE
1

9
$STYLESHEET
1

9
$XEDIT
290
1
9
$CEPSNTYPE
380
0
9
$PSTYLEMODE
290
1
9
$FINGERPRINTGUID
2
{00000000-0000-0000-0000-000000000000}
9
$VERSIONGUID
2
{00000000-0000-0000-0000-000000000000}
9
$EXTNAMES
290
1
9
$PSVPSCALE
40
0.0
9
$OLESTARTUP
290
0
0
ENDSEC
0
SECTION
2
CLASSES
0
CLASS
1
ACDBDICTIONARYWDFLT
2
AcDbDictionaryWithDefault
3
ObjectDBX Classes
90
0
280
0
281
0
0
CLASS
1
SUN
2
AcDbSun
3
SCENEOE
90
1153
280
0
281
0
0
CLASS
1
VISUALSTYLE
2
AcDbVisualStyle
3
ObjectDBX Classes
90
4095
280
0
281
0
0
CLASS
1
MATERIAL
2
AcDbMaterial
3
ObjectDBX Classes
90
1153
280
0
281
0
0
CLASS
1
SCALE
2
AcDbScale
3
ObjectDBX Classes
90
1153
280
0
281
0
0
CLASS
1
TABLESTYLE
2
AcDbTableStyle
3
ObjectDBX Classes
90
4095
280
0
281
0
0
CLASS
1
MLEADERSTYLE
2
AcDbMLeaderStyle
3
ACDB_MLEADERSTYLE_CLASS
90
4095
280
0
281
0
0
CLASS
1
DICTIONARYVAR
2
AcDbDictionaryVar
3
ObjectDBX Classes
90
0
280
0
281
0
0
CLASS
1
CELLSTYLEMAP
2
AcDbCellStyleMap
3
ObjectDBX Classes
90
1152
280
0
281
0
0
CLASS
1
MENTALRAYRENDERSETTINGS
2
AcDbMentalRayRenderSettings
3
SCENEOE
90
1024
280
0
281
0
0
CLASS
1
ACDBDETAILVIEWSTYLE
2
AcDbDetailViewStyle
3
ObjectDBX Classes
90
1025
280
0
281
0
0
CLASS
1
ACDBSECTIONVIEWSTYLE
2
AcDbSectionViewStyle
3
ObjectDBX Classes
90
1025
280
0
281
0
0
CLASS
1
RASTERVARIABLES
2
AcDbRasterVariables
3
ISM
90
0
280
0
281
0
0
CLASS
1
ACDBPLACEHOLDER
2
AcDbPlaceHolder
3
ObjectDBX Classes
90
0
280
0
281
0
0
CLASS
1
LAYOUT
2
AcDbLayout
3
ObjectDBX Classes
90
0
280
0
281
0
0
ENDSEC
0
SECTION
2
TABLES
0
TABLE
2
VPORT
5
8
330
0
100
AcDbSymbolTable
70
1
0
VPORT
5
23
330
8
100
AcDbSymbolTableRecord
100
AcDbViewportTableRecord
2
*Active
70
0
10
0.0
20
0.0
11
1.0
21
1.0
12
0.0
22
0.0
13
0.0
23
0.0
14
0.5
24
0.5
15
0.5
25
0.5
16
0.0
26
0.0
36
1.0
17
0.0
27
0.0
37
0.0
40
1000.0
41
1.34
42
50.0
43
0.0
44
0.0
50
0.0
51
0.0
71
0
72
1000
73
1
74
3
75
0
76
0
77
0
78
0
281
0
65
0
146
0.0
0
ENDTAB
0
TABLE
2
LTYPE
5
2
330
0
100
AcDbSymbolTable
70
4
0
LTYPE
5
24
330
2
100
AcDbSymbolTableRecord
100
AcDbLinetypeTableRecord
2
ByBlock
70
0
3

72
65
73
0
40
0.0
0
LTYPE
5
25
330
2
100
AcDbSymbolTableRecord
100
AcDbLinetypeTableRecord
2
ByLayer
70
0
3

72
65
73
0
40
0.0
0
LTYPE
5
26
330
2
100
AcDbSymbolTableRecord
100
AcDbLinetypeTableRecord
2
Continuous
70
0
3

72
65
73
0
40
0.0
0
LTYPE
5
2F
330
2
100
AcDbSymbolTableRecord
100
AcDbLinetypeTableRecord
2
DASHED
70
0
3
Dashed line
72
65
73
2
40
12.0
49
8.0
74
0
49
-4.0
74
0
0
ENDTAB
0
TABLE
2
LAYER
5
1
330
0
100
AcDbSymbolTable
70
5
0
LAYER
5
27
330
1
100
AcDbSymbolTableRecord
100
AcDbLayerTableRecord
2
0
70
0
62
7
6
Continuous
370
-3
390
13
0
LAYER
5
28
330
1
100
AcDbSymbolTableRecord
100
AcDbLayerTableRecord
2
Defpoints
70
0
62
7
6
Continuous
290
0
370
-3
390
13
0
LAYER
5
30
330
1
100
AcDbSymbolTableRecord
100
AcDbLayerTableRecord
2
CUT
70
0
62
1
6
Continuous
370
-3
390
13
0
LAYER
5
31
330
1
100
AcDbSymbolTableRecord
100
AcDbLayerTableRecord
2
THIN_ENGRAVE
70
0
62
5
6
Continuous
370
-3
390
13
0
LAYER
5
32
330
1
100
AcDbSymbolTableRecord
100
AcDbLayerTableRecord
2
CONSTRUCTION
70
0
62
6
6
DASHED
370
-3
390
13
0
ENDTAB
0
TABLE
2
STYLE
5
5
330
0
100
AcDbSymbolTable
70
1
0
STYLE
5
29
330
5
100
AcDbSymbolTableRecord
100
AcDbTextStyleTableRecord
2
Standard
70
0
40
0.0
41
1.0
50
0.0
71
0
42
2.5
3
txt
4

0
ENDTAB
0
TABLE
2
VIEW
5
7
330
0
100
AcDbSymbolTable
70
0
0
ENDTAB
0
TABLE
2
UCS
5
6
330
0
100
AcDbSymbolTable
70
0
0
ENDTAB
0
TABLE
2
APPID
5
3
330
0
100
AcDbSymbolTable
70
3
0
APPID
5
2A
330
3
100
AcDbSymbolTableRecord
100
AcDbRegAppTableRecord
2
ACAD
70
0
0
APPID
5
33
330
3
100
AcDbSymbolTableRecord
100
AcDbRegAppTableRecord
2
HATCHBACKGROUNDCOLOR
70
0
0
APPID
5
34
330
3
100
AcDbSymbolTableRecord
100
AcDbRegAppTableRecord
2
EZDXF
70
0
0
ENDTAB
0
TABLE
2
DIMSTYLE
5
4
330
0
100
AcDbSymbolTable
70
1
100
AcDbDimStyleTable
0
DIMSTYLE
105
2B
330
4
100
AcDbSymbolTableRecord
100
AcDbDimStyleTableRecord
2
Standard
70
0
3

4

40
1.0
41
2.5
42
0.625
43
3.75
44
1.25
45
0.0
46
0.0
47
0.0
48
0.0
140
2.5
141
2.5
142
0.0
143
0.03937007874
144
1.0
145
0.0
146
1.0
147
0.625
148
0.0
71
0
72
0
73
0
74
0
75
0
76
0
77
1
78
8
79
3
170
0
171
3
172
1
173
0
174
0
175
0
176
0
177
0
178
0
179
2
271
2
272
2
273
2
274
3
275
0
276
0
277
2
278
44
279
0
280
0
281
0
282
0
283
0
284
8
285
0
286
0
288
0
289
3
371
-2
372
-2
0
ENDTAB
0
TABLE
2
BLOCK_RECORD
5
9
330
0
100
AcDbSymbolTable
70
2
0
BLOCK_RECORD
5
17
330
9
100
AcDbSymbolTableRecord
100
AcDbBlockTableRecord
2
*Model_Space
340
1A
0
BLOCK_RECORD
5
1B
330
9
100
AcDbSymbolTableRecord
100
AcDbBlockTableRecord
2
*Paper_Space
340
1E
0
ENDTAB
0
ENDSEC
0
SECTION
2
BLOCKS
0
BLOCK
5
18
330
17
100
AcDbEntity
8
0
100
AcDbBlockBegin
2
*Model_Space
70
0
10
0.0
20
0.0
30
0.0
3
*Model_Space
1

0
ENDBLK
5
19
330
17
100
AcDbEntity
8
0
100
AcDbBlockEnd
0
BLOCK
5
1C
330
1B
100
AcDbEntity
8
0
100
AcDbBlockBegin
2
*Paper_Space
70
0
10
0.0
20
0.0
30
0.0
3
*Paper_Space
1

0
ENDBLK
5
1D
330
1B
100
AcDbEntity
8
0
100
AcDbBlockEnd
0
ENDSEC
0
SECTION
2
ENTITIES
0
CIRCLE
5
1000
330
17
100
AcDbEntity
8
CUT
62
1
100
AcDbCircle
10
45
20
20
30
0
40
1.55
0
CIRCLE
5
1001
330
17
100
AcDbEntity
8
CUT
62
1
100
AcDbCircle
10
-45
20
-20
30
0
40
1.55
0
CIRCLE
5
1002
330
17
100
AcDbEntity
8
CUT
62
1
100
AcDbCircle
10
45
20
-20
30
0
40
1.55
0
CIRCLE
5
1003
330
17
100
AcDbEntity
8
CUT
62
1
100
AcDbCircle
10
45
20
0
30
0
40
1.55
0
CIRCLE
5
1004
330
17
100
AcDbEntity
8
CUT
62
1
100
AcDbCircle
10
-45
20
0
30
0
40
1.55
0
CIRCLE
5
1005
330
17
100
AcDbEntity
8
CUT
62
1
100
AcDbCircle
10
-45
20
20
30
0
40
1.55
0
CIRCLE
5
1006
330
17
100
AcDbEntity
8
CUT
62
1
100
AcDbCircle
10
4.5
20
0
30
0
40
1.5
0
CIRCLE
5
1007
330
17
100
AcDbEntity
8
CUT
62
1
100
AcDbCircle
10
24.5
20
0
30
0
40
1.5
0
CIRCLE
5
1008
330
17
100
AcDbEntity
8
CUT
62
1
100
AcDbCircle
10
14.5
20
0
30
0
40
1.5
0
CIRCLE
5
1009
330
17
100
AcDbEntity
8
CUT
62
1
100
AcDbCircle
10
-4.5
20
0
30
0
40
1.5
0
CIRCLE
5
100A
330
17
100
AcDbEntity
8
CUT
62
1
100
AcDbCircle
10
-14.5
20
0
30
0
40
1.5
0
CIRCLE
5
100B
330
17
100
AcDbEntity
8
CUT
62
1
100
AcDbCircle
10
-24.5
20
0
30
0
40
1.5
0
POLYLINE
5
100C
330
17
100
AcDbEntity
8
CUT
62
1
100
AcDb2dPolyline
66
1
10
0
20
0
30
0
70
1
0
VERTEX
5
100D
330
17
100
AcDbEntity
8
CUT
100
AcDbVertex
100
AcDb2dVertex
10
22.767755
20
-15.467002
30
0
70
0
0
VERTEX
5
100E
330
17
100
AcDbEntity
8
CUT
100
AcDbVertex
100
AcDb2dVertex
10
42.12225
20
-29.088833
30
0
70
0
0
VERTEX
5
100F
330
17
100
AcDbEntity
8
CUT
100
AcDbVertex
100
AcDb2dVertex
10
42.846488
20
-29.51247
30
0
70
0
0
VERTEX
5
1010
330
17
100
AcDbEntity
8
CUT
100
AcDbVertex
100
AcDb2dVertex
10
43.631368
20
-29.809038
30
0
70
0
0
VERTEX
5
1011
330
17
100
AcDbEntity
8
CUT
100
AcDbVertex
100
AcDb2dVertex
10
44.454788
20
-29.970185
30
0
70
0
0
VERTEX
5
1012
330
17
100
AcDbEntity
8
CUT
100
AcDbVertex
100
AcDb2dVertex
10
45.293561
20
-29.991375
30
0
70
0
0
VERTEX
5
1013
330
17
100
AcDbEntity
8
CUT
100
AcDbVertex
100
AcDb2dVertex
10
46.124067
20
-29.872009
30
0
70
0
0
VERTEX
5
1014
330
17
100
AcDbEntity
8
CUT
100
AcDbVertex
100
AcDb2dVertex
10
46.92292
20
-29.61545
30
0
70
0
0
VERTEX
5
1015
330
17
100
AcDbEntity
8
CUT
100
AcDbVertex
100
AcDb2dVertex
10
47.667624
20
-29.228922
30
0
70
0
0
VERTEX
5
1016
330
17
100
AcDbEntity
8
CUT
100
AcDbVertex
100
AcDb2dVertex
10
48.33721
20
-28.723309
30
0
70
0
0
VERTEX
5
1017
330
17
100
AcDbEntity
8
CUT
100
AcDbVertex
100
AcDb2dVertex
10
48.912821
20
-28.11285
30
0
70
0
0
VERTEX
5
1018
330
17
100
AcDbEntity
8
CUT
100
AcDbVertex
100
AcDb2dVertex
10
49.378249
20
-27.414734
30
0
70
0
0
VERTEX
5
1019
330
17
100
AcDbEntity
8
CUT
100
AcDbVertex
100
AcDb2dVertex
10
49.720387
20
-26.64862
30
0
70
0
0
VERTEX
5
101A
330
17
100
AcDbEntity
8
CUT
100
AcDbVertex
100
AcDb2dVertex
10
49.929601
20
-25.836082
30
0
70
0
0
VERTEX
5
101B
330
17
100
AcDbEntity
8
CUT
100
AcDbVertex
100
AcDb2dVertex
10
50
20
-25
30
0
70
0
0
VERTEX
5
101C
330
17
100
AcDbEntity
8
CUT
100
AcDbVertex
100
AcDb2dVertex
10
50
20
25
30
0
70
0
0
VERTEX
5
101D
330
17
100
AcDbEntity
8
CUT
100
AcDbVertex
100
AcDb2dVertex
10
49.929601
20
25.836082
30
0
70
0
0
VERTEX
5
101E
330
17
100
AcDbEntity
8
CUT
100
AcDbVertex
100
AcDb2dVertex
10
49.720387
20
26.64862
30
0
70
0
0
VERTEX
5
101F
330
17
100
AcDbEntity
8
CUT
100
AcDbVertex
100
AcDb2dVertex
10
49.378249
20
27.414734
30
0
70
0
0
VERTEX
5
1020
330
17
100
AcDbEntity
8
CUT
100
AcDbVertex
100
AcDb2dVertex
10
48.912821
20
28.11285
30
0
70
0
0
VERTEX
5
1021
330
17
100
AcDbEntity
8
CUT
100
AcDbVertex
100
AcDb2dVertex
10
48.33721
20
28.723309
30
0
70
0
0
VERTEX
5
1022
330
17
100
AcDbEntity
8
CUT
100
AcDbVertex
100
AcDb2dVertex
10
47.667624
20
29.228922
30
0
70
0
0
VERTEX
5
1023
330
17
100
AcDbEntity
8
CUT
100
AcDbVertex
100
AcDb2dVertex
10
46.92292
20
29.61545
30
0
70
0
0
VERTEX
5
1024
330
17
100
AcDbEntity
8
CUT
100
AcDbVertex
100
AcDb2dVertex
10
46.124067
20
29.872009
30
0
70
0
0
VERTEX
5
1025
330
17
100
AcDbEntity
8
CUT
100
AcDbVertex
100
AcDb2dVertex
10
45.293561
20
29.991375
30
0
70
0
0
VERTEX
5
1026
330
17
100
AcDbEntity
8
CUT
100
AcDbVertex
100
AcDb2dVertex
10
44.454788
20
29.970185
30
0
70
0
0
VERTEX
5
1027
330
17
100
AcDbEntity
8
CUT
100
AcDbVertex
100
AcDb2dVertex
10
43.631368
20
29.809038
30
0
70
0
0
VERTEX
5
1028
330
17
100
AcDbEntity
8
CUT
100
AcDbVertex
100
AcDb2dVertex
10
42.846488
20
29.51247
30
0
70
0
0
VERTEX
5
1029
330
17
100
AcDbEntity
8
CUT
100
AcDbVertex
100
AcDb2dVertex
10
42.12225
20
29.088833
30
0
70
0
0
VERTEX
5
102A
330
17
100
AcDbEntity
8
CUT
100
AcDbVertex
100
AcDb2dVertex
10
22.767755
20
15.467002
30
0
70
0
0
VERTEX
5
102B
330
17
100
AcDbEntity
8
CUT
100
AcDbVertex
100
AcDb2dVertex
10
20.838198
20
14.216707
30
0
70
0
0
VERTEX
5
102C
330
17
100
AcDbEntity
8
CUT
100
AcDbVertex
100
AcDb2dVertex
10
18.818554
20
13.117858
30
0
70
0
0
VERTEX
5
102D
330
17
100
AcDbEntity
8
CUT
100
AcDbVertex
100
AcDb2dVertex
10
16.720687
20
12.176909
30
0
70
0
0
VERTEX
5
102E
330
17
100
AcDbEntity
8
CUT
100
AcDbVertex
100
AcDb2dVertex
10
14.556919
20
11.399389
30
0
70
0
0
VERTEX
5
102F
330
17
100
AcDbEntity
8
CUT
100
AcDbVertex
100
AcDb2dVertex
10
12.33996
20
10.789862
30
0
70
0
0
VERTEX
5
1030
330
17
100
AcDbEntity
8
CUT
100
AcDbVertex
100
AcDb2dVertex
10
10.082831
20
10.351911
30
0
70
0
0
VERTEX
5
1031
330
17
100
AcDbEntity
8
CUT
100
AcDbVertex
100
AcDb2dVertex
10
7.798791
20
10.088107
30
0
70
0
0
VERTEX
5
1032
330
17
100
AcDbEntity
8
CUT
100
AcDbVertex
100
AcDb2dVertex
10
5.501256
20
10
30
0
70
0
0
VERTEX
5
1033
330
17
100
AcDbEntity
8
CUT
100
AcDbVertex
100
AcDb2dVertex
10
-5.501256
20
10
30
0
70
0
0
VERTEX
5
1034
330
17
100
AcDbEntity
8
CUT
100
AcDbVertex
100
AcDb2dVertex
10
-7.798791
20
10.088107
30
0
70
0
0
VERTEX
5
1035
330
17
100
AcDbEntity
8
CUT
100
AcDbVertex
100
AcDb2dVertex
10
-10.082831
20
10.351911
30
0
70
0
0
VERTEX
5
1036
330
17
100
AcDbEntity
8
CUT
100
AcDbVertex
100
AcDb2dVertex
10
-12.33996
20
10.789862
30
0
70
0
0
VERTEX
5
1037
330
17
100
AcDbEntity
8
CUT
100
AcDbVertex
100
AcDb2dVertex
10
-14.556919
20
11.399389
30
0
70
0
0
VERTEX
5
1038
330
17
100
AcDbEntity
8
CUT
100
AcDbVertex
100
AcDb2dVertex
10
-16.720687
20
12.176909
30
0
70
0
0
VERTEX
5
1039
330
17
100
AcDbEntity
8
CUT
100
AcDbVertex
100
AcDb2dVertex
10
-18.818554
20
13.117858
30
0
70
0
0
VERTEX
5
103A
330
17
100
AcDbEntity
8
CUT
100
AcDbVertex
100
AcDb2dVertex
10
-20.838198
20
14.216707
30
0
70
0
0
VERTEX
5
103B
330
17
100
AcDbEntity
8
CUT
100
AcDbVertex
100
AcDb2dVertex
10
-22.767755
20
15.467002
30
0
70
0
0
VERTEX
5
103C
330
17
100
AcDbEntity
8
CUT
100
AcDbVertex
100
AcDb2dVertex
10
-42.12225
20
29.088833
30
0
70
0
0
VERTEX
5
103D
330
17
100
AcDbEntity
8
CUT
100
AcDbVertex
100
AcDb2dVertex
10
-42.846488
20
29.51247
30
0
70
0
0
VERTEX
5
103E
330
17
100
AcDbEntity
8
CUT
100
AcDbVertex
100
AcDb2dVertex
10
-43.631368
20
29.809038
30
0
70
0
0
VERTEX
5
103F
330
17
100
AcDbEntity
8
CUT
100
AcDbVertex
100
AcDb2dVertex
10
-44.454788
20
29.970185
30
0
70
0
0
VERTEX
5
1040
330
17
100
AcDbEntity
8
CUT
100
AcDbVertex
100
AcDb2dVertex
10
-45.293561
20
29.991375
30
0
70
0
0
VERTEX
5
1041
330
17
100
AcDbEntity
8
CUT
100
AcDbVertex
100
AcDb2dVertex
10
-46.124067
20
29.872009
30
0
70
0
0
VERTEX
5
1042
330
17
100
AcDbEntity
8
CUT
100
AcDbVertex
100
AcDb2dVertex
10
-46.92292
20
29.61545
30
0
70
0
0
VERTEX
5
1043
330
17
100
AcDbEntity
8
CUT
100
AcDbVertex
100
AcDb2dVertex
10
-47.667624
20
29.228922
30
0
70
0
0
VERTEX
5
1044
330
17
100
AcDbEntity
8
CUT
100
AcDbVertex
100
AcDb2dVertex
10
-48.33721
20
28.723309
30
0
70
0
0
VERTEX
5
1045
330
17
100
AcDbEntity
8
CUT
100
AcDbVertex
100
AcDb2dVertex
10
-48.912821
20
28.11285
30
0
70
0
0
VERTEX
5
1046
330
17
100
AcDbEntity
8
CUT
100
AcDbVertex
100
AcDb2dVertex
10
-49.378249
20
27.414734
30
0
70
0
0
VERTEX
5
1047
330
17
100
AcDbEntity
8
CUT
100
AcDbVertex
100
AcDb2dVertex
10
-49.720387
20
26.64862
30
0
70
0
0
VERTEX
5
1048
330
17
100
AcDbEntity
8
CUT
100
AcDbVertex
100
AcDb2dVertex
10
-49.929601
20
25.836082
30
0
70
0
0
VERTEX
5
1049
330
17
100
AcDbEntity
8
CUT
100
AcDbVertex
100
AcDb2dVertex
10
-50
20
25
30
0
70
0
0
VERTEX
5
104A
330
17
100
AcDbEntity
8
CUT
100
AcDbVertex
100
AcDb2dVertex
10
-50
20
-25
30
0
70
0
0
VERTEX
5
104B
330
17
100
AcDbEntity
8
CUT
100
AcDbVertex
100
AcDb2dVertex
10
-49.929601
20
-25.836082
30
0
70
0
0
VERTEX
5
104C
330
17
100
AcDbEntity
8
CUT
100
AcDbVertex
100
AcDb2dVertex
10
-49.720387
20
-26.64862
30
0
70
0
0
VERTEX
5
104D
330
17
100
AcDbEntity
8
CUT
100
AcDbVertex
100
AcDb2dVertex
10
-49.378249
20
-27.414734
30
0
70
0
0
VERTEX
5
104E
330
17
100
AcDbEntity
8
CUT
100
AcDbVertex
100
AcDb2dVertex
10
-48.912821
20
-28.11285
30
0
70
0
0
VERTEX
5
104F
330
17
100
AcDbEntity
8
CUT
100
AcDbVertex
100
AcDb2dVertex
10
-48.33721
20
-28.723309
30
0
70
0
0
VERTEX
5
1050
330
17
100
AcDbEntity
8
CUT
100
AcDbVertex
100
AcDb2dVertex
10
-47.667624
20
-29.228922
30
0
70
0
0
VERTEX
5
1051
330
17
100
AcDbEntity
8
CUT
100
AcDbVertex
100
AcDb2dVertex
10
-46.92292
20
-29.61545
30
0
70
0
0
VERTEX
5
1052
330
17
100
AcDbEntity
8
CUT
100
AcDbVertex
100
AcDb2dVertex
10
-46.124067
20
-29.872009
30
0
70
0
0
VERTEX
5
1053
330
17
100
AcDbEntity
8
CUT
100
AcDbVertex
100
AcDb2dVertex
10
-45.293561
20
-29.991375
30
0
70
0
0
VERTEX
5
1054
330
17
100
AcDbEntity
8
CUT
100
AcDbVertex
100
AcDb2dVertex
10
-44.454788
20
-29.970185
30
0
70
0
0
VERTEX
5
1055
330
17
100
AcDbEntity
8
CUT
100
AcDbVertex
100
AcDb2dVertex
10
-43.631368
20
-29.809038
30
0
70
0
0
VERTEX
5
1056
330
17
100
AcDbEntity
8
CUT
100
AcDbVertex
100
AcDb2dVertex
10
-42.846488
20
-29.51247
30
0
70
0
0
VERTEX
5
1057
330
17
100
AcDbEntity
8
CUT
100
AcDbVertex
100
AcDb2dVertex
10
-42.12225
20
-29.088833
30
0
70
0
0
VERTEX
5
1058
330
17
100
AcDbEntity
8
CUT
100
AcDbVertex
100
AcDb2dVertex
10
-22.767755
20
-15.467002
30
0
70
0
0
VERTEX
5
1059
330
17
100
AcDbEntity
8
CUT
100
AcDbVertex
100
AcDb2dVertex
10
-20.838198
20
-14.216707
30
0
70
0
0
VERTEX
5
105A
330
17
100
AcDbEntity
8
CUT
100
AcDbVertex
100
AcDb2dVertex
10
-18.818554
20
-13.117858
30
0
70
0
0
VERTEX
5
105B
330
17
100
AcDbEntity
8
CUT
100
AcDbVertex
100
AcDb2dVertex
10
-16.720687
20
-12.176909
30
0
70
0
0
VERTEX
5
105C
330
17
100
AcDbEntity
8
CUT
100
AcDbVertex
100
AcDb2dVertex
10
-14.556919
20
-11.399389
30
0
70
0
0
VERTEX
5
105D
330
17
100
AcDbEntity
8
CUT
100
AcDbVertex
100
AcDb2dVertex
10
-12.33996
20
-10.789862
30
0
70
0
0
VERTEX
5
105E
330
17
100
AcDbEntity
8
CUT
100
AcDbVertex
100
AcDb2dVertex
10
-10.082831
20
-10.351911
30
0
70
0
0
VERTEX
5
105F
330
17
100
AcDbEntity
8
CUT
100
AcDbVertex
100
AcDb2dVertex
10
-7.798791
20
-10.088107
30
0
70
0
0
VERTEX
5
1060
330
17
100
AcDbEntity
8
CUT
100
AcDbVertex
100
AcDb2dVertex
10
-5.501256
20
-10
30
0
70
0
0
VERTEX
5
1061
330
17
100
AcDbEntity
8
CUT
100
AcDbVertex
100
AcDb2dVertex
10
5.501256
20
-10
30
0
70
0
0
VERTEX
5
1062
330
17
100
AcDbEntity
8
CUT
100
AcDbVertex
100
AcDb2dVertex
10
7.798791
20
-10.088107
30
0
70
0
0
VERTEX
5
1063
330
17
100
AcDbEntity
8
CUT
100
AcDbVertex
100
AcDb2dVertex
10
10.082831
20
-10.351911
30
0
70
0
0
VERTEX
5
1064
330
17
100
AcDbEntity
8
CUT
100
AcDbVertex
100
AcDb2dVertex
10
12.33996
20
-10.789862
30
0
70
0
0
VERTEX
5
1065
330
17
100
AcDbEntity
8
CUT
100
AcDbVertex
100
AcDb2dVertex
10
14.556919
20
-11.399389
30
0
70
0
0
VERTEX
5
1066
330
17
100
AcDbEntity
8
CUT
100
AcDbVertex
100
AcDb2dVertex
10
16.720687
20
-12.176909
30
0
70
0
0
VERTEX
5
1067
330
17
100
AcDbEntity
8
CUT
100
AcDbVertex
100
AcDb2dVertex
10
18.818554
20
-13.117858
30
0
70
0
0
VERTEX
5
1068
330
17
100
AcDbEntity
8
CUT
100
AcDbVertex
100
AcDb2dVertex
10
20.838198
20
-14.216707
30
0
70
0
0
SEQEND
5
1069
330
100C
100
AcDbEntity
8
CUT
0
POLYLINE
5
106A
330
17
100
AcDbEntity
8
CUT
62
1
100
AcDb2dPolyline
66
1
10
0
20
0
30
0
70
1
0
VERTEX
5
106B
330
17
100
AcDbEntity
8
CUT
100
AcDbVertex
100
AcDb2dVertex
10
-30
20
5.733501
30
0
70
0
0
VERTEX
5
106C
330
17
100
AcDbEntity
8
CUT
100
AcDbVertex
100
AcDb2dVertex
10
-30.075961
20
6.601742
30
0
70
0
0
VERTEX
5
106D
330
17
100
AcDbEntity
8
CUT
100
AcDbVertex
100
AcDb2dVertex
10
-30.301537
20
7.443602
30
0
70
0
0
VERTEX
5
106E
330
17
100
AcDbEntity
8
CUT
100
AcDbVertex
100
AcDb2dVertex
10
-30.669873
20
8.233501
30
0
70
0
0
VERTEX
5
106F
330
17
100
AcDbEntity
8
CUT
100
AcDbVertex
100
AcDb2dVertex
10
-31.169778
20
8.947439
30
0
70
0
0
VERTEX
5
1070
330
17
100
AcDbEntity
8
CUT
100
AcDbVertex
100
AcDb2dVertex
10
-31.786062
20
9.563723
30
0
70
0
0
VERTEX
5
1071
330
17
100
AcDbEntity
8
CUT
100
AcDbVertex
100
AcDb2dVertex
10
-32.5
20
10.063628
30
0
70
0
0
VERTEX
5
1072
330
17
100
AcDbEntity
8
CUT
100
AcDbVertex
100
AcDb2dVertex
10
-33.289899
20
10.431964
30
0
70
0
0
VERTEX
5
1073
330
17
100
AcDbEntity
8
CUT
100
AcDbVertex
100
AcDb2dVertex
10
-34.131759
20
10.65754
30
0
70
0
0
VERTEX
5
1074
330
17
100
AcDbEntity
8
CUT
100
AcDbVertex
100
AcDb2dVertex
10
-35
20
10.733501
30
0
70
0
0
VERTEX
5
1075
330
17
100
AcDbEntity
8
CUT
100
AcDbVertex
100
AcDb2dVertex
10
-35.868241
20
10.65754
30
0
70
0
0
VERTEX
5
1076
330
17
100
AcDbEntity
8
CUT
100
AcDbVertex
100
AcDb2dVertex
10
-36.710101
20
10.431964
30
0
70
0
0
VERTEX
5
1077
330
17
100
AcDbEntity
8
CUT
100
AcDbVertex
100
AcDb2dVertex
10
-37.5
20
10.063628
30
0
70
0
0
VERTEX
5
1078
330
17
100
AcDbEntity
8
CUT
100
AcDbVertex
100
AcDb2dVertex
10
-38.213938
20
9.563723
30
0
70
0
0
VERTEX
5
1079
330
17
100
AcDbEntity
8
CUT
100
AcDbVertex
100
AcDb2dVertex
10
-38.830222
20
8.947439
30
0
70
0
0
VERTEX
5
107A
330
17
100
AcDbEntity
8
CUT
100
AcDbVertex
100
AcDb2dVertex
10
-39.330127
20
8.233501
30
0
70
0
0
VERTEX
5
107B
330
17
100
AcDbEntity
8
CUT
100
AcDbVertex
100
AcDb2dVertex
10
-39.698463
20
7.443602
30
0
70
0
0
VERTEX
5
107C
330
17
100
AcDbEntity
8
CUT
100
AcDbVertex
100
AcDb2dVertex
10
-39.924039
20
6.601742
30
0
70
0
0
VERTEX
5
107D
330
17
100
AcDbEntity
8
CUT
100
AcDbVertex
100
AcDb2dVertex
10
-40
20
5.733501
30
0
70
0
0
VERTEX
5
107E
330
17
100
AcDbEntity
8
CUT
100
AcDbVertex
100
AcDb2dVertex
10
-40
20
-5.733501
30
0
70
0
0
VERTEX
5
107F
330
17
100
AcDbEntity
8
CUT
100
AcDbVertex
100
AcDb2dVertex
10
-39.924039
20
-6.601742
30
0
70
0
0
VERTEX
5
1080
330
17
100
AcDbEntity
8
CUT
100
AcDbVertex
100
AcDb2dVertex
10
-39.698463
20
-7.443602
30
0
70
0
0
VERTEX
5
1081
330
17
100
AcDbEntity
8
CUT
100
AcDbVertex
100
AcDb2dVertex
10
-39.330127
20
-8.233501
30
0
70
0
0
VERTEX
5
1082
330
17
100
AcDbEntity
8
CUT
100
AcDbVertex
100
AcDb2dVertex
10
-38.830222
20
-8.947439
30
0
70
0
0
VERTEX
5
1083
330
17
100
AcDbEntity
8
CUT
100
AcDbVertex
100
AcDb2dVertex
10
-38.213938
20
-9.563723
30
0
70
0
0
VERTEX
5
1084
330
17
100
AcDbEntity
8
CUT
100
AcDbVertex
100
AcDb2dVertex
10
-37.5
20
-10.063628
30
0
70
0
0
VERTEX
5
1085
330
17
100
AcDbEntity
8
CUT
100
AcDbVertex
100
AcDb2dVertex
10
-36.710101
20
-10.431964
30
0
70
0
0
VERTEX
5
1086
330
17
100
AcDbEntity
8
CUT
100
AcDbVertex
100
AcDb2dVertex
10
-35.868241
20
-10.65754
30
0
70
0
0
VERTEX
5
1087
330
17
100
AcDbEntity
8
CUT
100
AcDbVertex
100
AcDb2dVertex
10
-35
20
-10.733501
30
0
70
0
0
VERTEX
5
1088
330
17
100
AcDbEntity
8
CUT
100
AcDbVertex
100
AcDb2dVertex
10
-34.131759
20
-10.65754
30
0
70
0
0
VERTEX
5
1089
330
17
100
AcDbEntity
8
CUT
100
AcDbVertex
100
AcDb2dVertex
10
-33.289899
20
-10.431964
30
0
70
0
0
VERTEX
5
108A
330
17
100
AcDbEntity
8
CUT
100
AcDbVertex
100
AcDb2dVertex
10
-32.5
20
-10.063628
30
0
70
0
0
VERTEX
5
108B
330
17
100
AcDbEntity
8
CUT
100
AcDbVertex
100
AcDb2dVertex
10
-31.786062
20
-9.563723
30
0
70
0
0
VERTEX
5
108C
330
17
100
AcDbEntity
8
CUT
100
AcDbVertex
100
AcDb2dVertex
10
-31.169778
20
-8.947439
30
0
70
0
0
VERTEX
5
108D
330
17
100
AcDbEntity
8
CUT
100
AcDbVertex
100
AcDb2dVertex
10
-30.669873
20
-8.233501
30
0
70
0
0
VERTEX
5
108E
330
17
100
AcDbEntity
8
CUT
100
AcDbVertex
100
AcDb2dVertex
10
-30.301537
20
-7.443602
30
0
70
0
0
VERTEX
5
108F
330
17
100
AcDbEntity
8
CUT
100
AcDbVertex
100
AcDb2dVertex
10
-30.075961
20
-6.601742
30
0
70
0
0
VERTEX
5
1090
330
17
100
AcDbEntity
8
CUT
100
AcDbVertex
100
AcDb2dVertex
10
-30
20
-5.733501
30
0
70
0
0
SEQEND
5
1091
330
106A
100
AcDbEntity
8
CUT
0
POLYLINE
5
1092
330
17
100
AcDbEntity
8
CUT
62
1
100
AcDb2dPolyline
66
1
10
0
20
0
30
0
70
1
0
VERTEX
5
1093
330
17
100
AcDbEntity
8
CUT
100
AcDbVertex
100
AcDb2dVertex
10
30
20
5.733501
30
0
70
0
0
VERTEX
5
1094
330
17
100
AcDbEntity
8
CUT
100
AcDbVertex
100
AcDb2dVertex
10
30
20
-5.733501
30
0
70
0
0
VERTEX
5
1095
330
17
100
AcDbEntity
8
CUT
100
AcDbVertex
100
AcDb2dVertex
10
30.075961
20
-6.601742
30
0
70
0
0
VERTEX
5
1096
330
17
100
AcDbEntity
8
CUT
100
AcDbVertex
100
AcDb2dVertex
10
30.301537
20
-7.443602
30
0
70
0
0
VERTEX
5
1097
330
17
100
AcDbEntity
8
CUT
100
AcDbVertex
100
AcDb2dVertex
10
30.669873
20
-8.233501
30
0
70
0
0
VERTEX
5
1098
330
17
100
AcDbEntity
8
CUT
100
AcDbVertex
100
AcDb2dVertex
10
31.169778
20
-8.947439
30
0
70
0
0
VERTEX
5
1099
330
17
100
AcDbEntity
8
CUT
100
AcDbVertex
100
AcDb2dVertex
10
31.786062
20
-9.563723
30
0
70
0
0
VERTEX
5
109A
330
17
100
AcDbEntity
8
CUT
100
AcDbVertex
100
AcDb2dVertex
10
32.5
20
-10.063628
30
0
70
0
0
VERTEX
5
109B
330
17
100
AcDbEntity
8
CUT
100
AcDbVertex
100
AcDb2dVertex
10
33.289899
20
-10.431964
30
0
70
0
0
VERTEX
5
109C
330
17
100
AcDbEntity
8
CUT
100
AcDbVertex
100
AcDb2dVertex
10
34.131759
20
-10.65754
30
0
70
0
0
VERTEX
5
109D
330
17
100
AcDbEntity
8
CUT
100
AcDbVertex
100
AcDb2dVertex
10
35
20
-10.733501
30
0
70
0
0
VERTEX
5
109E
330
17
100
AcDbEntity
8
CUT
100
AcDbVertex
100
AcDb2dVertex
10
35.868241
20
-10.65754
30
0
70
0
0
VERTEX
5
109F
330
17
100
AcDbEntity
8
CUT
100
AcDbVertex
100
AcDb2dVertex
10
36.710101
20
-10.431964
30
0
70
0
0
VERTEX
5
10A0
330
17
100
AcDbEntity
8
CUT
100
AcDbVertex
100
AcDb2dVertex
10
37.5
20
-10.063628
30
0
70
0
0
VERTEX
5
10A1
330
17
100
AcDbEntity
8
CUT
100
AcDbVertex
100
AcDb2dVertex
10
38.213938
20
-9.563723
30
0
70
0
0
VERTEX
5
10A2
330
17
100
AcDbEntity
8
CUT
100
AcDbVertex
100
AcDb2dVertex
10
38.830222
20
-8.947439
30
0
70
0
0
VERTEX
5
10A3
330
17
100
AcDbEntity
8
CUT
100
AcDbVertex
100
AcDb2dVertex
10
39.330127
20
-8.233501
30
0
70
0
0
VERTEX
5
10A4
330
17
100
AcDbEntity
8
CUT
100
AcDbVertex
100
AcDb2dVertex
10
39.698463
20
-7.443602
30
0
70
0
0
VERTEX
5
10A5
330
17
100
AcDbEntity
8
CUT
100
AcDbVertex
100
AcDb2dVertex
10
39.924039
20
-6.601742
30
0
70
0
0
VERTEX
5
10A6
330
17
100
AcDbEntity
8
CUT
100
AcDbVertex
100
AcDb2dVertex
10
40
20
-5.733501
30
0
70
0
0
VERTEX
5
10A7
330
17
100
AcDbEntity
8
CUT
100
AcDbVertex
100
AcDb2dVertex
10
40
20
5.733501
30
0
70
0
0
VERTEX
5
10A8
330
17
100
AcDbEntity
8
CUT
100
AcDbVertex
100
AcDb2dVertex
10
39.924039
20
6.601742
30
0
70
0
0
VERTEX
5
10A9
330
17
100
AcDbEntity
8
CUT
100
AcDbVertex
100
AcDb2dVertex
10
39.698463
20
7.443602
30
0
70
0
0
VERTEX
5
10AA
330
17
100
AcDbEntity
8
CUT
100
AcDbVertex
100
AcDb2dVertex
10
39.330127
20
8.233501
30
0
70
0
0
VERTEX
5
10AB
330
17
100
AcDbEntity
8
CUT
100
AcDbVertex
100
AcDb2dVertex
10
38.830222
20
8.947439
30
0
70
0
0
VERTEX
5
10AC
330
17
100
AcDbEntity
8
CUT
100
AcDbVertex
100
AcDb2dVertex
10
38.213938
20
9.563723
30
0
70
0
0
VERTEX
5
10AD
330
17
100
AcDbEntity
8
CUT
100
AcDbVertex
100
AcDb2dVertex
10
37.5
20
10.063628
30
0
70
0
0
VERTEX
5
10AE
330
17
100
AcDbEntity
8
CUT
100
AcDbVertex
100
AcDb2dVertex
10
36.710101
20
10.431964
30
0
70
0
0
VERTEX
5
10AF
330
17
100
AcDbEntity
8
CUT
100
AcDbVertex
100
AcDb2dVertex
10
35.868241
20
10.65754
30
0
70
0
0
VERTEX
5
10B0
330
17
100
AcDbEntity
8
CUT
100
AcDbVertex
100
AcDb2dVertex
10
35
20
10.733501
30
0
70
0
0
VERTEX
5
10B1
330
17
100
AcDbEntity
8
CUT
100
AcDbVertex
100
AcDb2dVertex
10
34.131759
20
10.65754
30
0
70
0
0
VERTEX
5
10B2
330
17
100
AcDbEntity
8
CUT
100
AcDbVertex
100
AcDb2dVertex
10
33.289899
20
10.431964
30
0
70
0
0
VERTEX
5
10B3
330
17
100
AcDbEntity
8
CUT
100
AcDbVertex
100
AcDb2dVertex
10
32.5
20
10.063628
30
0
70
0
0
VERTEX
5
10B4
330
17
100
AcDbEntity
8
CUT
100
AcDbVertex
100
AcDb2dVertex
10
31.786062
20
9.563723
30
0
70
0
0
VERTEX
5
10B5
330
17
100
AcDbEntity
8
CUT
100
AcDbVertex
100
AcDb2dVertex
10
31.169778
20
8.947439
30
0
70
0
0
VERTEX
5
10B6
330
17
100
AcDbEntity
8
CUT
100
AcDbVertex
100
AcDb2dVertex
10
30.669873
20
8.233501
30
0
70
0
0
VERTEX
5
10B7
330
17
100
AcDbEntity
8
CUT
100
AcDbVertex
100
AcDb2dVertex
10
30.301537
20
7.443602
30
0
70
0
0
VERTEX
5
10B8
330
17
100
AcDbEntity
8
CUT
100
AcDbVertex
100
AcDb2dVertex
10
30.075961
20
6.601742
30
0
70
0
0
SEQEND
5
10B9
330
1092
100
AcDbEntity
8
CUT
0
ENDSEC
0
SECTION
2
OBJECTS
0
DICTIONARY
5
A
330
0
100
AcDbDictionary
281
1
3
ACAD_COLOR
350
B
3
ACAD_GROUP
350
C
3
ACAD_LAYOUT
350
D
3
ACAD_MATERIAL
350
E
3
ACAD_MLEADERSTYLE
350
F
3
ACAD_MLINESTYLE
350
10
3
ACAD_PLOTSETTINGS
350
11
3
ACAD_PLOTSTYLENAME
350
12
3
ACAD_SCALELIST
350
14
3
ACAD_TABLESTYLE
350
15
3
ACAD_VISUALSTYLE
350
16
3
EZDXF_META
350
2D
0
DICTIONARY
5
B
330
A
100
AcDbDictionary
281
1
0
DICTIONARY
5
C
330
A
100
AcDbDictionary
281
1
0
DICTIONARY
5
D
330
A
100
AcDbDictionary
281
1
3
Model
350
1A
3
Layout1
350
1E
0
DICTIONARY
5
E
330
A
100
AcDbDictionary
281
1
3
ByBlock
350
1F
3
ByLayer
350
20
3
Global
350
21
0
DICTIONARY
5
F
330
A
100
AcDbDictionary
281
1
3
Standard
350
2C
0
DICTIONARY
5
10
330
A
100
AcDbDictionary
281
1
3
Standard
350
22
0
DICTIONARY
5
11
330
A
100
AcDbDictionary
281
1
0
ACDBDICTIONARYWDFLT
5
12
330
A
100
AcDbDictionary
281
1
3
Normal
350
13
100
AcDbDictionaryWithDefault
340
13
0
ACDBPLACEHOLDER
5
13
330
12
0
DICTIONARY
5
14
330
A
100
AcDbDictionary
281
1
0
DICTIONARY
5
15
330
A
100
AcDbDictionary
281
1
0
DICTIONARY
5
16
330
A
100
AcDbDictionary
281
1
0
LAYOUT
5
1A
330
D
100
AcDbPlotSettings
1

4
A3
6

40
7.5
41
20.0
42
7.5
43
20.0
44
420.0
45
297.0
46
0.0
47
0.0
48
0.0
49
0.0
140
0.0
141
0.0
142
1.0
143
1.0
70
1024
72
1
73
0
74
5
7

75
16
76
0
77
2
78
300
147
1.0
148
0.0
149
0.0
100
AcDbLayout
1
Model
70
1
71
0
10
0.0
20
0.0
11
420.0
21
297.0
12
0.0
22
0.0
32
0.0
14
1e+20
24
1e+20
34
1e+20
15
-1e+20
25
-1e+20
35
-1e+20
146
0.0
13
0.0
23
0.0
33
0.0
16
1.0
26
0.0
36
0.0
17
0.0
27
1.0
37
0.0
76
1
330
17
0
LAYOUT
5
1E
330
D
100
AcDbPlotSettings
1

4
A3
6

40
7.5
41
20.0
42
7.5
43
20.0
44
420.0
45
297.0
46
0.0
47
0.0
48
0.0
49
0.0
140
0.0
141
0.0
142
1.0
143
1.0
70
0
72
1
73
0
74
5
7

75
16
76
0
77
2
78
300
147
1.0
148
0.0
149
0.0
100
AcDbLayout
1
Layout1
70
1
71
1
10
0.0
20
0.0
11
420.0
21
297.0
12
0.0
22
0.0
32
0.0
14
1e+20
24
1e+20
34
1e+20
15
-1e+20
25
-1e+20
35
-1e+20
146
0.0
13
0.0
23
0.0
33
0.0
16
1.0
26
0.0
36
0.0
17
0.0
27
1.0
37
0.0
76
1
330
1B
0
MATERIAL
5
1F
102
{ACAD_REACTORS
330
E
102
}
330
E
100
AcDbMaterial
1
ByBlock
2

70
0
40
1.0
71
1
41
1.0
91
-1023410177
42
1.0
72
1
3

73
1
74
1
75
1
44
0.5
73
0
45
1.0
46
1.0
77
1
4

78
1
79
1
170
1
48
1.0
171
1
6

172
1
173
1
174
1
140
1.0
141
1.0
175
1
7

176
1
177
1
178
1
143
1.0
179
1
8

270
1
271
1
272
1
145
1.0
146
1.0
273
1
9

274
1
275
1
276
1
42
1.0
72
1
3

73
1
74
1
75
1
94
63
0
MATERIAL
5
20
102
{ACAD_REACTORS
330
E
102
}
330
E
100
AcDbMaterial
1
ByLayer
2

70
0
40
1.0
71
1
41
1.0
91
-1023410177
42
1.0
72
1
3

73
1
74
1
75
1
44
0.5
73
0
45
1.0
46
1.0
77
1
4

78
1
79
1
170
1
48
1.0
171
1
6

172
1
173
1
174
1
140
1.0
141
1.0
175
1
7

176
1
177
1
178
1
143
1.0
179
1
8

270
1
271
1
272
1
145
1.0
146
1.0
273
1
9

274
1
275
1
276
1
42
1.0
72
1
3

73
1
74
1
75
1
94
63
0
MATERIAL
5
21
102
{ACAD_REACTORS
330
E
102
}
330
E
100
AcDbMaterial
1
Global
2

70
0
40
1.0
71
1
41
1.0
91
-1023410177
42
1.0
72
1
3

73
1
74
1
75
1
44
0.5
73
0
45
1.0
46
1.0
77
1
4

78
1
79
1
170
1
48
1.0
171
1
6

172
1
173
1
174
1
140
1.0
141
1.0
175
1
7

176
1
177
1
178
1
143
1.0
179
1
8

270
1
271
1
272
1
145
1.0
146
1.0
273
1
9

274
1
275
1
276
1
42
1.0
72
1
3

73
1
74
1
75
1
94
63
0
MLINESTYLE
5
22
102
{ACAD_REACTORS
330
10
102
}
330
10
100
AcDbMlineStyle
2
Standard
70
0
3

62
256
51
90.0
52
90.0
71
2
49
0.5
62
256
6
BYLAYER
49
-0.5
62
256
6
BYLAYER
0
MLEADERSTYLE
5
2C
102
{ACAD_REACTORS
330
F
102
}
330
F
100
AcDbMLeaderStyle
179
2
170
2
171
1
172
0
90
2
40
0.0
41
0.0
173
1
91
-1056964608
92
-2
290
1
42
2.0
291
1
43
8.0
3
Standard
44
4.0
300

342
29
174
1
175
1
176
0
178
1
93
-1056964608
45
4.0
292
0
297
0
46
4.0
94
-1056964608
47
1.0
49
1.0
140
1.0
294
1
141
0.0
177
0
142
1.0
295
0
296
0
143
3.75
271
0
272
9
273
9
0
DICTIONARY
5
2D
330
A
100
AcDbDictionary
280
1
281
1
3
CREATED_BY_EZDXF
350
2E
3
WRITTEN_BY_EZDXF
350
35
0
DICTIONARYVAR
5
2E
330
2D
100
DictionaryVariables
280
0
1
0.0 @ 2000-01-01T00:00:00.000000+00:00
0
DICTIONARYVAR
5
35
330
2D
100
DictionaryVariables
280
0
1
0.0 @ 2000-01-01T00:00:00.000000+00:00
0
ENDSEC
0
EOF
